<?xml version="1.0" standalone="no"?>
<!DOCTYPE svg PUBLIC "-//W3C//DTD SVG 1.1//EN" "http://www.w3.org/Graphics/SVG/1.1/DTD/svg11.dtd" >
<svg xmlns="http://www.w3.org/2000/svg" xmlns:xlink="http://www.w3.org/1999/xlink" version="1.1">
<metadata>
Created by FontForge 20170731 at Tue Dec 12 12:23:43 2023
 By Aleksey,,,
Copyright (c) 2019 by Sarid Ezra. All rights reserved.
</metadata>
<defs>
<font id="GeorgiaBallpark-Script" horiz-adv-x="0" >
  <font-face 
    font-family="GeorgiaBallpark Script"
    font-weight="400"
    font-stretch="normal"
    units-per-em="2048"
    panose-1="0 0 0 0 0 0 0 0 0 0"
    ascent="1638"
    descent="-410"
    x-height="665"
    cap-height="1280"
    bbox="-1515.25 -278.712 1546.54 1700.72"
    underline-thickness="102"
    underline-position="-307"
    unicode-range="U+0020-FB06"
  />
<missing-glyph horiz-adv-x="276" 
 />
    <glyph glyph-name="a_b" unicode="ab" horiz-adv-x="827" 
d="M769 1546q12 10 22 1.5t5 -21.5q-18 -22 -23 -31q-120 -267 -278 -547q-41 -103 -74 -198q-2 -6 -23.5 -60.5t-31.5 -84.5t-26 -78.5t-23.5 -85t-6.5 -62.5q7 13 25.5 51t33 63.5t31.5 49.5l22 33t12.5 19.5t10 13.5t10 12.5t16.5 18.5t26 30q71 85 145 103q59 15 72 -26
q11 -38 -23 -106q-32 -67 -147 -158q-52 -43 -144 -57q-9 3 -7 13t14 14q128 19 214 127q57 72 59 132q1 42 -32 41q-47 -3 -137 -100q-36 -38 -90 -118q-64 -104 -107 -211q-6 -8 -16 -11q-4 0 -6 -2q-9 5 -10 6q-1 101 32.5 216t94.5 266q-76 -126 -127 -197
q-83 -114 -147 -125q-43 -8 -50 39q-6 40 20 105q-51 -63 -53 -66q-62 -70 -96 -70q-54 3 -32 55q20 51 81 98q70 54 111 36l8 8q9 12 20 8q11 -12 2 -41t-24 -56.5t-19 -54t17 -34.5q12 -4 30 4t37.5 26t38.5 39t39 47t34 45t28 39t16 23q58 88 121 205q2 4 6 13t6 13
q5 14 24 61.5l25 62.5t23.5 57t25.5 60t25 56t28.5 59t29.5 55t34 59.5t36.5 56.5t41.5 61zM-54 514q25 -2 53.5 20t44.5 42t45 60q5 7 8 11l-2 2q-20 11 -58.5 -16t-67 -64.5t-23.5 -54.5zM658 1309q-46 -88 -79 -166q18 36 79 166z" />
    <glyph glyph-name="a_h" unicode="ah" horiz-adv-x="770" 
d="M779 1522q13 18 23 11q6 -4 2 -15q-58 -136 -172.5 -344t-231.5 -394q-80 -159 -120 -293q15 2 83 75.5t153.5 158t137.5 108.5q11 5 18.5 -7.5t7.5 -28.5t-1 -25q-2 -9 -18 -52.5t-31 -89t-27.5 -93.5t-11 -79t21.5 -32q8 0 25 4.5t22 5.5q14 0 13.5 -11t-17.5 -15
q-95 -21 -95 54q0 43 44 170q43 124 38 164q-1 3 -1 5q-48 -22 -102 -77t-94.5 -108t-92 -100t-96.5 -57q-7 1 -8.5 3.5t-1.5 10.5q23 78 59 168l-24 -37q-83 -114 -147 -125q-43 -8 -50 39q-6 40 20 105q-51 -63 -53 -66q-62 -70 -96 -70q-54 3 -32 55q20 51 81 98
q70 54 111 36l8 8q9 12 20 8q11 -12 2 -41t-24 -56.5t-19 -54t17 -34.5q12 -4 30 4t37.5 26t38.5 39t39 47t34 45t28 39t16 23l12 21q25 53 115 219q29 53 92.5 174t115 213.5t101.5 167.5zM-54 514q25 -2 53.5 20t44.5 42t45 60q5 7 8 11l-2 2q-20 11 -58.5 -16t-67 -64.5
t-23.5 -54.5zM689 1329q-33 -57 -72 -133q13 25 37.5 69.5t34.5 63.5z" />
    <glyph glyph-name="a_l" unicode="al" horiz-adv-x="583" 
d="M622 1231q5 8 11 10.5t10.5 0t4.5 -8.5q9 -4 6 -16q-84 -192 -192 -355q-36 -74 -76 -162q-50 -105 -64 -172.5t6.5 -86t81.5 24t152 146.5q13 13 22 6q8 -6 -3 -18q-45 -52 -84.5 -91t-70.5 -60.5t-56 -31.5t-41 -5t-26 19.5t-10.5 41t6 60.5t22.5 78.5t40 93.5l17 34
l-98 -137q-83 -114 -147 -125q-43 -8 -50 39q-6 40 20 105q-50 -63 -53 -66q-62 -70 -96 -70q-54 3 -32 55q20 51 81 98q70 54 111 36l8 8q9 12 20 8q11 -12 2 -41t-24 -56.5t-19 -54t17 -34.5q12 -4 30 4t37.5 26t38.5 39t39 47t34 45t28 39t16 23q127 192 129 195
q13 26 48.5 94.5t59.5 118t44 96.5zM-56 514q25 -2 53.5 20t44.5 42t45 60q5 7 8 11l-2 2q-20 11 -58.5 -16t-67 -64.5t-23.5 -54.5z" />
    <glyph glyph-name="a_t" unicode="at" horiz-adv-x="473" 
d="M599 1221q2 2 14 8q8 11 16.5 7.5t4.5 -15.5q-61 -140 -101 -215q137 24 266 20.5t197 -35.5q6 -10 -8 -23t-26 -10q-51 33 -178.5 38t-264.5 -17q-77 -150 -211 -336q-112 -256 -96 -401q3 -18 15.5 -47.5t15.5 -42.5q0 -11 -11.5 -17.5t-17.5 2.5q-2 6 -15.5 38.5
t-15.5 51.5q-14 134 62 334q-35 -41 -67 -63.5t-53.5 -22.5t-33.5 15.5t-9 50t21 80.5q-50 -63 -53 -66q-62 -70 -96 -70q-54 3 -32 55q20 51 81 98q70 54 111 36l8 8q9 12 20 8q11 -12 2 -41t-24 -56.5t-19 -54t17 -34.5q45 -17 159 135q71 160 168 326q-202 -42 -294 -119
q-12 -9 -19.5 -2.5t4.5 18.5q112 84 326 129q100 172 137 230zM-56 514q25 -2 53.5 20t44.5 42t45 60q5 7 8 11l-2 2q-20 11 -58.5 -16t-67 -64.5t-23.5 -54.5zM363 762q79 119 130 213l-17 -4q-43 -73 -113 -209zM493 999q2 0 6 1t6 1q35 64 57 115q-20 -29 -69 -117z" />
    <glyph glyph-name="a_t_t" unicode="att" horiz-adv-x="757" 
d="M894 1227q10 10 20 3.5t5 -18.5l-115 -188q210 13 311 -33q6 -10 -8.5 -23t-26.5 -10q-36 24 -115 33.5t-178 3.5q-48 -82 -84 -147.5t-74 -147.5t-56 -142.5t-16.5 -113.5t30.5 -79q7 -10 -2 -19t-21 -6q-108 98 105 504q-27 -44 -80.5 -132t-81.5 -132
q-61 -90 -94 -121q-53 -50 -97 -41q-37 10 -14 119q26 102 64 188q-65 -93 -86 -123q-83 -114 -147 -125q-43 -8 -50 39q-6 40 20 105q-50 -63 -53 -66q-62 -70 -96 -70q-54 3 -32 55q20 51 81 98q70 54 111 36l8 8q9 12 20 8q11 -12 2 -41t-24 -56.5t-19 -54t17 -34.5
q12 -4 30 4t37.5 26t38.5 39t39 47t34 45t28 39t16 23l84 129q2 5 43 84q-136 -41 -199 -94q-12 -9 -19 -2.5t5 18.5q76 59 225 105l33 53l45 88l43 98q4 8 0 8q2 1 3.5 3t2.5 2l2 6q5 8 11 10.5t10.5 0.5t5.5 -7q8 -3 6 -11t-14 -12l-35 -76q0 -10 -8 -26l-15 -27l-51 -100
q110 31 248 45l25 35zM507 952q-35 -60 -70 -114q-138 -270 -112 -383q21 -77 200 198q13 20 15 23v2q61 96 209 315q-139 -14 -242 -41zM-56 514q25 -2 53.5 20t44.5 42t45 60q5 7 8 11l-2 2q-20 11 -58.5 -16t-67 -64.5t-23.5 -54.5zM597 1208l4 4z" />
    <glyph glyph-name="a_x" unicode="ax" horiz-adv-x="690" 
d="M664 791q12 9 18 2t-4 -19q-142 -117 -227 -196q7 -46 22.5 -73.5t38.5 -17.5q25 10 52.5 33t59.5 56t46 45q12 9 18 2t-4 -19q-16 -13 -49.5 -47t-63 -58.5t-57.5 -35.5q-69 -26 -92 88q-218 -207 -260 -320q-7 -18 -21 -14q-9 2 -8 12q45 120 285 349q-7 43 -4 71
q-187 -162 -252 -151q-52 8 -6 135q-56 -60 -97 -94q-97 -84 -135 -65q-26 13 -5 63q28 66 106 114q53 33 118 45q14 0 13.5 -11t-17.5 -15q-31 -4 -89 -37.5t-96.5 -77t-12.5 -68.5q43 10 82 41t84.5 82t64.5 68q13 11 23 -2q-1 -19 -12 -54.5t-15 -55.5t2 -34t40 -1t99 53
q15 9 57.5 50t53.5 50q10 16 22 13q6 -2 4 -11q-6 -26 0 -82q72 67 218 187z" />
    <glyph glyph-name="b_b" unicode="bb" horiz-adv-x="790" 
d="M248 1262q11 18 21 11q7 -5 3 -16q-14 -37 -20 -54.5t-16 -43.5t-13 -34t-12.5 -30t-11.5 -27.5t-13.5 -30t-16 -34t-20.5 -44t-26 -54.5q-10 -23 -44.5 -92t-51 -107t-29 -93t-4.5 -95q36 78 59 117q46 80 80 110q28 23 53 19q9 14 73 110t81.5 122t73 107t86 120
t79.5 103t93 114t90 98q0 4 6 4q0 1 1 2t1 2q12 10 22 1.5t5 -21.5q-62 -85 -116.5 -180.5t-103.5 -207t-79 -188t-76 -200.5q-2 -6 -23.5 -60.5t-31.5 -84.5t-26 -78.5t-23.5 -85t-6.5 -62.5q7 13 25.5 51t33 63.5t31.5 49.5l22 33t12.5 19.5t10 13.5t10 12.5t16.5 18.5
t26 30q71 85 145 103q59 15 72 -26q11 -38 -23 -106q-32 -67 -147 -158q-52 -43 -144 -57q-9 3 -7 13t14 14q128 19 214 127q57 72 59 132q1 42 -32 41q-47 -3 -137 -100q-36 -38 -90 -118q-64 -104 -107 -211q-6 -8 -16 -11q-4 0 -6 -2q-9 5 -10 6q0 58 10 118t36.5 140
t40.5 119t56.5 142t50.5 122q9 21 32.5 81t33.5 84.5t31.5 75t36.5 82t37.5 73.5t45.5 80q-203 -234 -491 -678q24 -18 14 -62q-28 -89 -119 -213q-1 -2 -11.5 -17t-15.5 -22t-16 -21t-19.5 -22t-20 -15t-21.5 -9l-10 4q-13 33 30 116.5t80 133.5l74 106q-1 0 -2 1t-2 1
q-40 -23 -65.5 -68t-48 -98t-48.5 -82q-4 -7 -14 -10h-8q-11 5 -11 6q-4 21 -5 44t2.5 46.5t9 46t14.5 47.5t18 47t21.5 49t22.5 47.5t23.5 48.5t22.5 48q11 23 32 67.5t25 52.5t17 37.5t16.5 38t15 38t20 52t24.5 67.5zM10 410q54 52 127.5 167.5t46.5 149.5l-67 -106
q-1 -1 -19.5 -32t-35 -59.5t-33 -64t-19.5 -55.5z" />
    <glyph glyph-name="c_h" unicode="ch" horiz-adv-x="698" 
d="M134 733q13 0 12 -9q-2 -12 -18 -17q-4 0 -17.5 6t-19.5 4q-25 -11 -60 -55t-56 -91t-7 -63q33 -5 78 25t90.5 79t100.5 123.5t100 143t96 151.5q17 32 64 120.5t72 135t65 115t74 121.5q12 9 17.5 2.5t-3.5 -19.5q-4 -4 -4 -8q3 -3 0 -14q-13 -22 -111.5 -206.5
t-142.5 -248.5l-21 -31l-14 -28q-169 -307 -221 -482q15 2 83 75.5t154 158t138 108.5q11 5 18 -7.5t7 -28.5t-1 -25q-2 -9 -18 -52.5t-30.5 -89t-27 -93.5t-11 -79t21.5 -32q8 0 25 4.5t22 5.5q14 0 13.5 -11t-17.5 -15q-96 -22 -95 55q0 43 44 170q43 124 37 164
q-1 2 -1 4q-48 -22 -102 -77t-94.5 -108t-92 -100t-96.5 -57q-7 1 -8.5 3.5t-1.5 10.5q40 140 127 311q-120 -163 -244 -272q-42 -36 -88 -28q-36 6 -35 37l3 16q70 185 153 206q10 3 24 -2.5t19 -5.5z" />
    <glyph glyph-name="c_k" unicode="ck" horiz-adv-x="567" 
d="M285 575q-9 -6 -13 -6q-79 -203 -65 -309q2 -16 16 -37t17 -28q0 -7 -6 -13t-12.5 -6.5t-10.5 4.5q-2 6 -17 28t-16 38q-18 148 131 479q-124 -130 -297 -215q-40 -22 -67 -10q-17 10 -18.5 28t11.5 40.5t30 44.5t42 47t42.5 41t35.5 32q42 37 67 34q16 -2 11 -28
q-7 -18 -20 -14q-8 2 -7 12l-2 4q-51 -38 -74 -61q-91 -91 -110 -150q72 -37 276 146q69 66 111 115q77 165 190 364q2 3 14 25.5t22 40t26 45t29.5 48.5t27.5 42t25.5 33.5t19.5 15.5q10 4 15 -0.5t2 -13.5q-34 -44 -77.5 -138t-49.5 -104q-137 -250 -211 -348
q-68 -148 -86 -193q139 131 258 166q10 0 14 -6l4 -10q0 -7 -6 -13t-12 -6.5t-10 4.5q-1 2 -3 2q-88 -25 -223 -145q6 0 6 -4q13 -41 55 -44.5t86 14.5t89 48q9 3 13.5 1t3.5 -8.5t-9 -12.5q-55 -36 -106 -56t-97.5 -13t-62.5 53zM555 1151q-72 -128 -133 -248
q64 96 176 320q-8 -14 -19 -31.5t-17 -27.5t-7 -13z" />
    <glyph glyph-name="c_l" unicode="cl" horiz-adv-x="493" 
d="M134 733q13 0 12 -9q-2 -12 -18 -17q-4 0 -17.5 6t-19.5 4q-25 -11 -60 -55t-56 -91t-7 -63q93 -30 286 250q36 52 165 256q0 2 4 6q0 2 8 14q1 3 -1 -1q-4 -8 -7 -13q16 27 57.5 110t48.5 95l2 6q13 17 24 10q7 -3 3 -14l-2 -2l-2 -4l-4 -7q-3 -4 -25 -49
q-9 -17 -18.5 -42t-22 -49t-37.5 -62q-1 -1 -3 -4.5t-3.5 -6t-1.5 -4.5q-69 -136 -143 -297q-50 -105 -64 -172.5t6.5 -86t81.5 24t152 146.5q14 14 22 6q6 -6 -4 -18q-45 -52 -84.5 -91t-70.5 -60.5t-56 -31.5t-41 -5t-25.5 19.5t-10 41t6 60.5t22.5 78.5t40 93.5
q7 15 68 135q-138 -204 -281 -330q-42 -36 -88 -28q-36 6 -35 37l3 16q70 185 153 206q10 3 24 -2.5t19 -5.5zM423 1020q-4 -4 -4 -6q0 2 4 6z" />
    <glyph glyph-name="c_t" unicode="ct" horiz-adv-x="401" 
d="M79 846q-12 -9 -19.5 -2.5t4.5 18.5q111 84 336 133q19 32 57 96.5t56 94.5l25 41q5 9 11 11.5t10.5 -1t4.5 -10.5q3 -6 0 -15l-49 -82q-1 -3 -5.5 -14.5t-6.5 -16t-7 -16t-10 -20t-13.5 -22.5t-18.5 -29l-7 -8q141 26 273.5 22.5t204.5 -35.5q6 -10 -8.5 -23t-26.5 -10
q-53 34 -186 38.5t-273 -21.5q-14 -22 -47.5 -79.5t-56.5 -92.5q-187 -356 -95 -438q7 -10 -1.5 -19t-20.5 -6q-84 75 27 340q-73 -89 -173 -170q-43 -36 -89 -27q-37 7 -34 39q1 6 3 13q70 185 153 206q10 3 24 -2.5t19 -5.5q13 0 12 -9q-2 -12 -18 -17q-4 0 -17.5 6
t-19.5 4q-25 -11 -60 -55t-56 -91t-7 -63q32 -10 72.5 12.5t86 73t86.5 106.5t89 129q53 100 76 138q-211 -42 -305 -121zM429 1020q-4 -4 -4 -6q0 2 4 6z" />
    <glyph glyph-name="d_d" unicode="dd" horiz-adv-x="927" 
d="M618 715q6 -10 -3 -19t-21 -6q-40 20 -114 -62t-87 -126l4 -4q97 30 310 299q71 162 188 366q1 1 18 30.5t31.5 54t39 60t44.5 59.5t42.5 41t39.5 15q50 -5 -77 -204q-13 -21 -26 -40l-1 -1q-89 -142 -265 -367q-150 -326 -58 -334q54 -4 191 107q6 5 29 28q13 13 22 6
q8 -6 -3 -18q-40 -41 -93.5 -80.5t-103.5 -60.5q-60 -24 -90.5 5t-16.5 87q27 93 62 184l-41 -51q-2 -2 -18.5 -22.5t-21.5 -27t-21.5 -26.5t-25 -28.5t-24.5 -25t-27 -25.5t-25.5 -20.5t-28.5 -18.5t-27 -11q-57 -18 -54 21q4 44 70 117q77 86 141 100q24 5 41 -2zM227 817
q12 0 11.5 -8.5t-13.5 -15.5q-86 -32 -165 -116.5t-132 -180.5q91 54 212 181t230.5 273t200.5 285t138 233q11 16 22 11q8 -4 4 -15q-66 -166 -213.5 -466t-191.5 -398q-32 -72 -67 -180t-36 -168q8 2 11.5 -2.5t-0.5 -13.5q-5 -15 -11 -23q-5 -6 -12 -8t-12 4
q-13 54 23.5 175.5t78.5 219.5q48 106 172 355.5t182 383.5q-50 -79 -79 -124t-88 -132.5t-102.5 -146t-107.5 -138t-118.5 -135.5t-119.5 -112t-126 -92q-11 -5 -18 2q-1 43 58 125t138.5 150.5t130.5 76.5zM840 1010q-5 -10 -26.5 -50.5t-35.5 -68.5q119 160 207 299
q34 53 86 151q2 3 11 17t14.5 24.5t1.5 14.5q-1 0 -3 1t-3 1q0 -2 -6.5 -7.5t-14.5 -12t-10 -9.5q-9 -9 -64 -84q-80 -126 -157 -276z" />
    <glyph glyph-name="e_b" unicode="eb" horiz-adv-x="792" 
d="M18 592q-12 -9 -19 -2.5t5 18.5q12 10 41 28.5t49.5 36t26.5 36.5l-2 6q-21 0 -33 -2q-131 -114 -115 -224q35 -1 79.5 24t82.5 59t79 80.5t65.5 78t46.5 62.5q27 36 43 59t23 34t24 39t32 52q2 6 23.5 58.5t25 61t22.5 54.5t25.5 59t24.5 53t28 58t28.5 53t34 58.5
t35 54t40.5 59.5q11 10 21 0q14 0 8 -16q-19 -48 -63.5 -130t-51.5 -97q-13 -25 -54 -108t-73.5 -144t-66.5 -117q-39 -97 -68 -184q-2 -6 -23.5 -60.5t-31.5 -84.5t-26 -78.5t-23.5 -85t-6.5 -62.5q7 14 20.5 40.5t22.5 43t22 39t26 41.5q7 11 14 21.5t10.5 16t8 12t6 8.5
t5.5 8t5 7t7.5 8.5t9.5 11t13 15t17 19.5q71 85 145 103q59 15 72 -26q11 -38 -23 -106q-32 -67 -147 -158q-52 -43 -143 -57q-9 3 -7.5 13t13.5 14q128 19 214 127q57 72 59 132q1 42 -32 41q-47 -3 -137 -100q-36 -38 -90 -118q-61 -99 -106 -211q-5 -8 -17 -11
q-4 0 -6 -2q-9 5 -10 6q-1 74 21.5 168.5t48 163t69.5 176.5q-63 -87 -117 -141q-31 -36 -72 -79t-103.5 -93.5t-94.5 -50.5q-3 0 -26 -0.5t-25 4.5q-22 16 -13 55t32.5 82t57 81.5t60.5 53.5q53 30 62 0q8 -29 -27 -72q-9 -12 -21 -22q-11 -10 -39.5 -25.5t-40.5 -25.5z
" />
    <glyph glyph-name="e_h" unicode="eh" horiz-adv-x="720" 
d="M20 592q-12 -9 -19 -2.5t5 18.5q12 10 41 28.5t49.5 36t26.5 36.5l-2 6q-21 0 -33 -2q-131 -114 -115 -224q35 -1 79.5 24t82.5 59t79 80.5t65.5 78t46.5 62.5q1 1 2 3t2 3q68 129 90 168q43 79 170 321q44 80 55 96l12 21q44 79 72 117q4 4 8 4q8 6 14.5 1.5t2.5 -14.5
q-15 -36 -31 -68.5t-38 -72.5t-36 -69l-49 -98t-59.5 -117.5t-56 -104t-70 -117t-70.5 -98.5q-72 -143 -115 -281q15 2 83 75.5t154 158t138 108.5q11 5 18.5 -7.5t7.5 -28.5t-1 -25q-2 -9 -18 -52.5t-31 -89t-27.5 -93.5t-11 -79t21.5 -32q8 0 25 4.5t22 5.5q14 0 13.5 -11
t-17.5 -15q-95 -21 -95 54q0 43 44 170q43 124 38 164q-1 3 -1 5q-48 -22 -102 -77t-94.5 -108t-92 -100t-96.5 -57q-7 1 -8.5 3.5t-1.5 10.5q27 98 84 223l-11 -10q-31 -36 -72 -79t-103.5 -93.5t-94.5 -50.5q-3 0 -26 -0.5t-25 4.5q-22 16 -13 55t32.5 82t57 81.5
t60.5 53.5q53 30 62 0q8 -29 -27 -72q-9 -12 -21 -22q-11 -10 -39.5 -25.5t-40.5 -25.5z" />
    <glyph glyph-name="e_l" unicode="el" horiz-adv-x="528" 
d="M20 592q-12 -9 -19 -2.5t5 18.5q12 10 41 28.5t49.5 36t26.5 36.5l-2 6q-21 0 -33 -2q-131 -114 -115 -224q35 -1 76.5 21.5t85.5 65.5t73.5 75t71 84t46.5 58q32 38 59 75q14 27 62.5 120.5t78 152.5t52.5 112q1 2 4 7.5t4 7.5q2 8 10 24q5 8 12 11q2 2 4 2h2q6 0 9 -5
t0 -12q-7 -16 -31 -80.5t-43 -108t-41 -79.5q-5 -8 -15.5 -30t-33.5 -60t-66 -94l-63 -136q-50 -105 -64 -172.5t6.5 -86t81.5 24t152 146.5q14 14 22 6q6 -6 -4 -18q-45 -52 -84.5 -91t-70.5 -60.5t-56 -31.5t-41 -5t-25.5 19.5t-10 41t6 60.5t22.5 78.5t40 93.5l23 47
l-58 -68q-31 -36 -72 -79t-103.5 -93.5t-94.5 -50.5q-3 0 -26 -0.5t-25 4.5q-22 16 -13 55t32.5 82t57 81.5t60.5 53.5q53 30 62 0q8 -29 -27 -72q-9 -12 -21 -22q-11 -10 -39.5 -25.5t-40.5 -25.5z" />
    <glyph glyph-name="e_t" unicode="et" horiz-adv-x="460" 
d="M137 846q-12 -9 -19 -2.5t5 18.5q115 87 338 133q1 1 2 3t2 3l67 115q24 48 50 92q16 25 38.5 56t35.5 51.5t22 42.5q10 16 22 12q7 -5 2 -16q-38 -65 -90 -160q-8 -12 -12 -20q-72 -125 -100 -170h2l-17 -29h-2q-72 -111 -135 -195q45 91 101 189h-5l17 26q4 4 4 6
q46 67 67 115l66 111q10 10 20 3.5t5 -18.5q-10 -15 -11 -18q-11 -16 -12 -20q-68 -113 -98 -170q140 27 275.5 23.5t205.5 -36.5q6 -10 -8.5 -23t-26.5 -10q-53 35 -187 39.5t-276 -22.5q-335 -596 -221 -699q6 -10 -2.5 -18.5t-21.5 -5.5q-106 98 108 528l-78 -96
q-31 -36 -72 -79t-103.5 -93.5t-94.5 -50.5q-3 0 -26 -0.5t-25 4.5q-22 16 -13 55t32.5 82t57 81.5t60.5 53.5q53 30 62 0q8 -29 -27 -72q-9 -12 -21 -22q-11 -10 -39.5 -25.5t-40.5 -25.5q-12 -9 -19 -2.5t5 18.5q12 10 41 28.5t49.5 36t26.5 36.5l-2 6q-21 0 -33 -2
q-131 -114 -115 -224q35 -1 79.5 24t82.5 59t79 80.5t65.5 78t46.5 62.5q19 25 31 41.5t20 27t16.5 24.5t12.5 20t17 28t21 35q-215 -46 -307 -123zM449 969l12 26q21 6 39 9l-17 -29z" />
    <glyph glyph-name="e_x" unicode="ex" horiz-adv-x="630" 
d="M604 791q12 9 18 2t-4 -19q-142 -117 -227 -196q7 -46 23 -73.5t39 -17.5q25 10 52.5 33t59 55.5t45.5 45.5q12 9 18.5 2t-3.5 -19q-16 -13 -49.5 -47t-63 -58.5t-57.5 -35.5q-37 -14 -60 12t-33 76q-218 -207 -260 -320q-7 -17 -20 -14q-9 2 -8 12q45 122 284 349
q-7 50 -2 81q-348 -293 -419 -243q-32 22 -18.5 75t47 109.5t82.5 104.5t89 59q13 3 17 2q19 -18 15 -41.5t-25.5 -48t-49 -44.5t-56.5 -32.5t-46 -11.5q-86 -146 -8 -143q71 4 224 111q94 66 152 126v2q1 2 3 4t4.5 3.5t3.5 2.5q12 8 14 2l2 -10q-6 -26 0 -82
q80 74 217 187zM135 737q-82 -39 -129 -123h2q45 19 102.5 61t24.5 62z" />
    <glyph glyph-name="f_t" unicode="ft" horiz-adv-x="436" 
d="M213 877q-12 -3 -12 7q0 12 14 17q107 47 193 76l41 76q10 21 31 74.5t42 99.5t43 76q8 8 17 8q50 -4 -6 -149q-36 -92 -66 -132l-23 -26q165 44 250 -3q7 -10 -1.5 -18.5t-20.5 -5.5q-80 45 -254 -8l-53 -58q-22 -48 -39 -85t-38.5 -87.5t-36.5 -90t-28.5 -84.5
t-20 -79.5t-6.5 -66t9 -51.5q9 3 13.5 0.5t3.5 -9t-9 -12.5q-66 -45 -62 39q6 120 132 414l20 47q-243 -251 -354 -291l-2 -8q8 -35 -2 -76q-72 -313 -160 -426q-10 -12 -19.5 -10t-7.5 14q58 254 109 383l43 103l-2 12h-10h-2h-5q-8 2 -9 8t5 12q2 2 0 4h7l2 2q17 3 26 0
q1 0 4 1t4 1q28 61 132.5 277t150.5 334q13 18 24 11q7 -4 3 -15q-46 -115 -148 -325.5t-129 -270.5q126 59 369 327l18 35q-83 -29 -180 -71zM-158 115q117 239 119 366q-86 -204 -119 -366zM473 1049l-27 -56l39 45q34 39 64.5 120t23.5 116q-24 -41 -58.5 -125.5
t-41.5 -99.5z" />
    <glyph glyph-name="g_h" unicode="gh" horiz-adv-x="870" 
d="M879 1522q12 9 17.5 2.5t-3.5 -19.5q-4 -4 -4 -8q4 -4 2 -14l-111 -166q-34 -62 -94 -181.5t-86 -166.5q-169 -307 -221 -482q15 2 83 75.5t154 158t138 108.5q11 5 18 -7.5t7 -28.5t-1 -25q-2 -9 -18 -52.5t-30.5 -89t-27 -93.5t-11 -79t21.5 -32q8 0 25 4.5t22 5.5
q14 0 13.5 -11t-17.5 -15q-96 -22 -95 55q0 43 44 170q43 124 37 164q-1 2 -1 4q-48 -22 -102 -77t-94.5 -108t-92 -100t-96.5 -57q-7 1 -8.5 3.5t-1.5 10.5q55 190 223 496q104 191 105 194q-215 -303 -432 -555q-13 -63 -52 -153q-156 -290 -383 -506q-114 -111 -233 -183
q-97 -59 -117.5 -36.5t45.5 116.5q12 21 43 60q66 74 111 119q182 182 217 219q235 248 330 358q9 41 12 80q-16 -12 -33 -27t-38 -35t-33 -30q-62 -50 -101 -78q-47 -36 -88 -42q-35 -5 -32 26q1 10 6 22q12 31 64.5 82.5t113 86t86.5 15.5q5 -4 14 -22q51 35 59 35
q26 -3 19 -58q61 70 121.5 145.5t103 130.5t98.5 134t80 114t77.5 114.5t64.5 95.5q62 103 82 133zM-207 -35q317 297 395 580q-124 -146 -297 -316q-10 -10 -51 -49t-70.5 -68.5t-75 -75.5t-78.5 -83t-65.5 -77t-51 -72t-21.5 -54q19 -11 100 44.5t142.5 107.5t72.5 63z
M-72 494q15 5 34.5 16.5t45.5 31t44.5 34.5t50.5 42t44 37q-15 18 -40 16t-56 -22t-59 -45.5t-48 -55t-24 -50.5z" />
    <glyph glyph-name="g_l" unicode="gl" horiz-adv-x="677" 
d="M805 1360l-2 -4q-86 -269 -242 -479q-54 -112 -82 -177q-50 -105 -64 -172.5t6.5 -86t81.5 24t152 146.5q13 13 22 6q8 -6 -3 -18q-45 -52 -84.5 -91t-70.5 -60.5t-56 -31.5t-41 -5t-25.5 19.5t-10 41t6 60.5t22.5 78.5t40 93.5l43 90q-127 -153 -289 -297
q-3 -8 -7.5 -18.5l-7.5 -17.5t-4 -9q-156 -290 -383 -506q-114 -111 -233 -183q-97 -59 -117.5 -36.5t45.5 116.5q12 21 43 60q66 74 111 119q182 182 217 219q25 27 65 62t70.5 60.5t87 71.5t80.5 66q34 99 39 178q-16 -12 -33 -27t-38 -35t-33 -30q-62 -50 -101 -78
q-47 -36 -88 -42q-35 -5 -32 26q1 10 6 22q12 31 64.5 82.5t113 86t86.5 15.5q5 -4 14 -22q51 35 59 35q13 -1 18 -17t1.5 -42t-10.5 -53.5t-17 -57.5q90 74 150 141q86 99 146.5 186t91.5 151t52.5 118.5t48 111.5t60.5 105q6 6 6 8q11 17 22 10q6 -4 3 -14zM-207 -35
q261 245 365 490q-80 -71 -174 -144q-108 -84 -302.5 -287.5t-203.5 -273.5q19 -11 100 44.5t142.5 107.5t72.5 63zM-72 494q15 5 34.5 16.5t45.5 31t44.5 34.5t50.5 42t44 37q-15 18 -40 16t-56 -22t-59 -45.5t-48 -55t-24 -50.5z" />
    <glyph glyph-name="g_t" unicode="gt" horiz-adv-x="524" 
d="M201 846q-12 -9 -19.5 -2.5t4.5 18.5q110 83 334 133q4 2 4 4q51 88 138 228q8 7 16 5.5t10 -9.5q5 2 8 -4t0 -13q-55 -85 -129 -192q-1 -2 -4 -6.5t-4 -6.5q143 27 280.5 25t207.5 -35q6 -10 -8.5 -23t-26.5 -10q-53 36 -189.5 40t-277.5 -23q-47 -81 -82 -145t-71 -143
t-53 -137t-15 -109t30 -76q7 -10 -1.5 -19t-20.5 -6q-104 97 92 479q-99 -130 -191 -233q-20 -65 -49 -133q-156 -290 -383 -506q-114 -111 -233 -183q-97 -59 -117.5 -36.5t45.5 116.5q12 21 43 60q66 74 111 119q182 182 217 219q235 248 330 358q9 41 12 80
q-9 -7 -105 -92q-70 -57 -100 -78q-46 -36 -88 -42q-35 -5 -33 24q1 10 6 24q12 31 64.5 82.5t113.5 86t87 15.5q5 -4 14 -22q51 35 59 35q26 -3 19 -58q179 205 254 312q-211 -47 -299 -121zM-213 -35q307 287 391 561q-156 -167 -293 -297q-10 -10 -51 -49t-70.5 -68.5
t-75 -75.5t-78.5 -83t-65.5 -77t-51 -72t-21.5 -54q19 -11 100 44.5t142.5 107.5t72.5 63zM-78 494q15 5 34.5 16.5t45.5 31t44.5 34.5t50.5 42t44 37q-15 18 -40 16t-56 -22t-59 -45.5t-48 -55t-24 -50.5z" />
    <glyph glyph-name="i_b" unicode="ib" horiz-adv-x="739" 
d="M16 680q13 18 24 11q6 -5 3 -15q-11 -26 -35.5 -64.5t-37.5 -65.5t-9 -48q20 -1 42.5 10t48.5 36t40 40t41 48.5t29 35.5q133 162 256 372q44 109 71.5 171.5t76.5 152.5t106 170v2l4 4q1 1 2 3t2 3q12 10 22 1.5t5 -21.5q-21 -26 -29 -39q-83 -196 -242 -467
q-53 -124 -104 -270q-2 -6 -23.5 -60.5t-31.5 -84.5t-26 -78.5t-23.5 -85t-6.5 -62.5q7 13 25.5 51t33 63.5t31.5 49.5l22 33t12.5 19.5t10 13.5t10 12.5t16.5 18.5t26 30q71 85 145 103q59 15 72 -26q11 -38 -23 -106q-32 -67 -147 -158q-52 -43 -144 -57q-9 3 -7.5 13
t13.5 14q128 19 214 127q56 71 59 130q3 44 -31 43q-47 -3 -137 -100q-36 -38 -90 -118q-64 -104 -107 -211q-6 -8 -16 -11q-4 0 -6 -2q-9 5 -10 6q0 27 3 57t6.5 54.5t13 61t14.5 56.5t19.5 62t19.5 57.5t24 62.5t23 57.5t25.5 62t23.5 57.5q-80 -119 -117 -168
q-84 -108 -146 -170q-7 -9 -17 -18.5t-22 -21t-18 -17.5q-10 -9 -25.5 -18.5t-33.5 -18t-33 -7.5t-19 15q-8 27 8 66.5t43 81t31 51.5zM131 903l2 2q15 6 18.5 -2.5t-8.5 -17.5q-14 -10 -26 -32.5t-15 -39.5l2 -6q-2 -11 -13 -17t-17 3q-6 21 13.5 56.5t43.5 53.5z" />
    <glyph glyph-name="i_h" unicode="ih" horiz-adv-x="653" 
d="M2 659q11 19 22 11q7 -4 3 -15q-11 -27 -35 -65t-37 -65t-10 -48q20 -1 43 11t47 34.5t41 41t40.5 47t30.5 36.5q41 52 123 164q42 86 82 156q28 51 92.5 173.5t116 214.5t101.5 167l2 2q9 6 15.5 1.5t2.5 -14.5q-61 -150 -171 -351t-218 -357q-95 -191 -131 -316
q15 2 83 75.5t154 158t138 108.5q11 5 18 -7.5t7 -28.5t-1 -25q-2 -9 -18 -52.5t-30.5 -89t-27 -93.5t-11 -79t21.5 -32q8 0 25 4.5t22 5.5q14 0 13.5 -11t-17.5 -15q-96 -22 -95 55q0 43 44 170q43 124 37 164q-1 2 -1 4q-48 -22 -102 -77t-94.5 -108t-92 -100t-96.5 -57
q-7 1 -8.5 3.5t-1.5 10.5q28 102 84 223q-52 -70 -125 -147q-23 -26 -59 -58q-12 -12 -35 -25t-46 -17.5t-30 14.5q-8 27 8.5 66t44 80.5t31.5 51.5zM115 883l4 2q9 3 13.5 0.5t3.5 -9t-9 -12.5q-13 -10 -25.5 -32.5t-15.5 -38.5l2 -7q0 -11 -11.5 -17t-17.5 3q-6 21 13 57
t43 54zM588 1362q-20 -36 -42 -78t-48.5 -93.5t-40.5 -78.5q85 155 131 250z" />
    <glyph glyph-name="i_l" unicode="il" horiz-adv-x="479" 
d="M14 680q13 18 24 11q6 -5 3 -15q-11 -26 -35.5 -64.5t-37.5 -65.5t-9 -48q20 -1 42.5 10t48.5 36t40 40t41 48.5t29 35.5q168 204 219 282q88 170 137 281l10 8q9 10 17.5 7t3.5 -15q-72 -178 -160 -305q-29 -58 -106 -226q-50 -105 -64 -172.5t6.5 -86t81.5 24
t152 146.5q14 14 22 6q6 -6 -4 -18q-45 -52 -84.5 -91t-70.5 -60.5t-56 -31.5t-41 -5t-25.5 19.5t-10 41t6 60.5t22.5 78.5t40 93.5q22 52 63 129q-15 -22 -73 -97q-84 -108 -146 -170q-7 -9 -17 -18.5t-22 -21t-18 -17.5q-10 -9 -25.5 -18.5t-33.5 -18t-33 -7.5t-19 15
q-8 27 8 66.5t43 81t31 51.5zM129 903l2 2q15 6 18.5 -2.5t-8.5 -17.5q-14 -10 -26 -32.5t-15 -39.5l2 -6q-2 -11 -13 -17t-17 3q-6 21 13.5 56.5t43.5 53.5z" />
    <glyph glyph-name="i_t" unicode="it" horiz-adv-x="403" 
d="M57 815q-12 -9 -19 -2.5t5 18.5q122 90 340 134q26 45 75 125.5t68 113.5q0 2 2 5t2 5q5 5 5 7l6 6q10 10 19.5 3.5t4.5 -18.5q-3 -4 -14 -23.5t-19 -31.5q-55 -122 -96 -182q137 24 268 21t199 -35q7 -10 -7 -23t-28 -10q-51 34 -182.5 38t-269.5 -20q-6 -9 -19.5 -25.5
t-17.5 -21.5q-40 -71 -70.5 -131t-58 -126.5t-39.5 -117.5t-7.5 -93.5t29.5 -65.5q7 -10 -1.5 -19t-20.5 -6q-99 92 70 434q-15 -23 -27 -37q-87 -113 -145 -170q-9 -12 -32.5 -33.5t-25.5 -23.5q-10 -9 -25.5 -18.5t-33.5 -18t-32.5 -7.5t-18.5 15q-8 27 9.5 73.5
t45.5 95.5t31 59q13 19 24 11q5 -5 2 -15q-10 -23 -36 -71t-40 -81.5t-10 -54.5q20 -1 42.5 10t48.5 36t40 40t41 48.5t29 35.5q27 32 79.5 94t74.5 90l47 86q-217 -46 -312 -123zM201 1049l2 2q15 6 18.5 -3t-8.5 -18q-14 -10 -26.5 -33t-14.5 -39l2 -6q-2 -11 -13.5 -17
t-17.5 3q-6 21 14 57t44 54z" />
    <glyph glyph-name="i_x" unicode="ix" horiz-adv-x="583" 
d="M557 791q12 9 18 2t-4 -19q-142 -117 -227 -196q7 -46 23 -73.5t39 -17.5q25 10 52.5 33t59 55.5t45.5 45.5q12 9 18.5 2t-3.5 -19q-16 -13 -49.5 -47t-63 -58.5t-57.5 -35.5q-37 -14 -60 12t-33 76q-218 -207 -260 -320q-7 -17 -20 -14q-9 2 -8 12q45 122 284 349
q-4 27 -4 73q-24 -19 -73.5 -60t-86.5 -71t-51 -37q-181 -99 -187 -32.5t97 213.5q12 10 20 6.5t3 -15.5q-143 -231 -45 -201q82 25 329 228v2q4 7 12 11t13 1q6 -2 6 -8.5t-8 -13.5q-3 -22 4 -70q80 74 217 187zM160 979q8 7 14.5 8t8 -3.5t-0.5 -12.5q-87 -108 -69 -172
q0 -11 -11.5 -17.5t-17.5 2.5q-23 74 76 195z" />
    <glyph glyph-name="l_l" unicode="ll" horiz-adv-x="485" 
d="M334 1298q8 7 14.5 8t8 -3.5t-0.5 -12.5q-140 -213 -317 -600q-4 -8 -23.5 -48t-27.5 -58t-20.5 -50.5t-16.5 -57.5t-2 -46q23 9 49 28t41.5 33.5t44 44.5t35.5 37q110 110 192 234q20 41 52.5 107.5t61 125.5t56.5 121l11 10q9 9 14 0q4 -3 0 -14v-18
q-46 -144 -158 -303l-61 -136q-50 -105 -64 -172.5t6.5 -86t81.5 24t152 146.5q14 14 22 6q6 -6 -4 -18q-45 -52 -84.5 -91t-70.5 -60.5t-56 -31.5t-41 -5t-25.5 19.5t-10 41t6 60.5t22.5 78.5t40 93.5q2 5 7 16t7 16q-22 -28 -67.5 -85.5t-67.5 -86.5q-49 -62 -95.5 -101.5
t-108.5 -62.5q-8 -2 -15 5q-6 30 3 71.5t20 67.5t37 80.5t32 68.5q175 386 320 604z" />
    <glyph glyph-name="l_t" unicode="lt" horiz-adv-x="405" 
d="M229 934q-9 3 -7 13t14 14q59 5 159 22q22 37 68.5 113t66.5 110v2q1 2 4.5 7.5t4.5 7.5l4 4q0 2 2 2q6 6 10 4q8 0 11.5 -6t0.5 -15q-11 -16 -12 -20q-31 -94 -90 -197q78 12 132.5 17t113.5 1.5t94 -20.5q6 -10 -2.5 -18.5t-20.5 -5.5q-32 15 -90.5 17t-110.5 -3.5
t-132 -17.5q-44 -73 -142 -205q-159 -318 -71 -395q7 -10 -2 -19t-21 -6q-84 76 23 330q-46 -56 -93 -105q-128 -137 -185 -134q-47 2 -14 105q21 64 72 158q11 21 133 264t187 340q8 7 14.5 8t8 -3.5t-0.5 -12.5q-140 -213 -317 -600q-95 -201 -76 -225q20 -26 156 108
q71 71 145 168q60 119 113 213q-100 -18 -150 -20z" />
    <glyph glyph-name="n_t" unicode="nt" horiz-adv-x="555" 
d="M231 846q-12 -9 -19 -2.5t5 18.5q111 84 336 133q26 44 73 122t66 110q9 8 17 5t8 -13q5 -3 2 -13q-28 -57 -117 -202q140 25 272 22t203 -35q6 -10 -8.5 -23t-26.5 -10q-53 35 -185.5 39.5t-272.5 -20.5l-72 -111q-47 -87 -79.5 -157t-57 -141.5t-22.5 -123.5t32 -79
q7 -10 -2 -19t-21 -6q-89 80 39 369q-177 -237 -235 -195q-12 14 -9 35.5t10 54.5t5 43q-31 0 -116.5 -84t-106.5 -94q-9 -2 -15 4q-4 25 9.5 62.5t37.5 83.5t31 65q13 19 24 11q6 -4 1 -15q-4 -12 -38.5 -79t-37.5 -97q7 6 66.5 65t93.5 80q70 47 78 17q3 -12 -0.5 -34
t-8 -40.5t-3 -36.5t13.5 -25q76 27 256 291q31 60 80 146q-213 -43 -306 -121z" />
    <glyph glyph-name="o_b" unicode="ob" horiz-adv-x="718" 
d="M80 711q-2 -2 0 -2q10 3 16 0q156 105 320 372q56 143 109.5 249.5t133.5 215.5q12 10 22 1.5t5 -21.5l-27 -35q-142 -290 -229 -436q-58 -133 -119 -305q-3 -9 -19 -50.5t-25 -65.5t-23.5 -66.5t-22.5 -72t-14 -62t-6 -54.5q7 13 25.5 51t33 63.5t31.5 49.5
q7 11 14 21.5t10.5 16t8 12t6 8.5t5.5 8t5 7t7.5 8.5t9.5 11t13 15t17 19.5q70 84 144 103q60 15 74 -26q12 -37 -23 -106q-31 -66 -148 -158q-52 -43 -143 -57q-9 3 -7.5 13t13.5 14q128 19 214 127q57 72 59 132q1 42 -32 41q-47 -3 -137 -100q-36 -38 -90 -118
q-61 -99 -106 -211q-5 -8 -17 -11q-4 0 -6 -2q-9 5 -10 6q-1 57 9 118t35 135.5t41.5 120t54.5 137.5t50 122q-64 -94 -120 -155q-76 -76 -115 -103q7 -7 12 -22q4 -62 -58 -132.5t-120 -70.5q-39 0 -15.5 76.5t72.5 134.5q39 47 62 33zM57 676q-4 4 -2 6q-34 -21 -68.5 -97
t-13.5 -89q21 2 45 19t42.5 41t33 50t15 45t-10.5 27q-27 -10 -41 -2zM539 1313q-2 -3 -7 -8q1 1 3 3.5t4 4.5z" />
    <glyph glyph-name="o_f" unicode="of" horiz-adv-x="536" 
d="M80 713q0 -2 2 -2q7 4 18 0q136 90 245 232.5t171 266.5v2q6 12 8 15q20 36 55.5 103t45.5 85q13 18 23 11q5 -5 1 -15l-78 -147v-2q-59 -127 -181.5 -363.5t-162.5 -318.5q32 15 113 61.5t136.5 69t101.5 20.5q5 0 7 -4t5 -20q1 -7 -5 -13t-12 -6.5t-10 4.5l-4 15
q-35 0 -86.5 -23t-130 -68t-109.5 -61q160 -37 -149 -618q-2 -4 -4 -7q-23 -42 -46.5 -65t-40.5 -23t-29 13.5t-12.5 43t9.5 66.5q7 19 37 106.5t41.5 119t36.5 99.5t48 123.5t50 114.5q-4 0 -12 -4q-15 -3 -14 10q0 11 12 17q14 2 30 12l29 55q180 352 215 422
q-90 -132 -192 -243q-76 -76 -115 -103q6 -5 12 -22q4 -63 -57.5 -133t-118.5 -70q-39 0 -16.5 76.5t71.5 134.5q39 47 62 33zM94 10q3 7 25 50.5t39 79t40 89.5t35 98t18 87.5t-5.5 74t-40.5 43.5q-24 -43 -39 -79q-89 -207 -131 -328q-3 -9 -10.5 -31t-19 -60t-19 -70.5
t-10.5 -61t6 -31.5q15 -9 35 9t37 48.5t27.5 53t12.5 28.5zM57 678q-2 2 -2 6q-34 -21 -68.5 -97t-13.5 -89q21 2 45 19t42.5 41t33 50t15 45t-10.5 27q-27 -10 -41 -2zM516 1210q-2 -3 -4 -5.5l-2 -2.5q1 1 2.5 3.5t3.5 4.5z" />
    <glyph glyph-name="o_l" unicode="ol" horiz-adv-x="464" 
d="M80 711q-2 -2 0 -2q10 3 16 0q223 147 371 456l-2 -2q1 1 2.5 5t3.5 6l2 6l29 51q14 18 24 10q5 -4 2 -14l-4 -6l-4 -7q-10 -21 -38 -72t-42 -79q-23 -39 -82 -127q119 238 144 295q27 47 73 137q11 19 22 11q7 -4 3 -15q-116 -225 -160 -301q-123 -248 -174 -363
q-50 -105 -64 -172.5t6.5 -86t81.5 24t152 146.5q13 13 22 6q8 -6 -3 -18q-45 -52 -84.5 -91t-70.5 -60.5t-56 -31.5t-41 -5t-25.5 19.5t-10 41t6 60.5t22.5 78.5t40 93.5q38 83 116 231q-60 -78 -116 -141q-76 -76 -115 -103q7 -7 12 -22q4 -62 -58 -132.5t-120 -70.5
q-39 0 -15.5 76.5t72.5 134.5q39 47 62 33zM57 676q-4 4 -2 6q-34 -21 -68.5 -97t-13.5 -89q21 2 45 19t42.5 41t33 50t15 45t-10.5 27q-27 -10 -41 -2zM465 1163q-1 -2 -3 -5l-1 -3z" />
    <glyph glyph-name="o_m" unicode="om" horiz-adv-x="772" 
d="M156 485q-9 35 15 96t51.5 120t25.5 85q0 22 -108 -47q-14 -9 -19 -12q-40 -23 -74 -51q7 0 10 -4t0 -8q2 -1 8.5 -3.5t10 -4t8.5 -4.5t8 -6.5t4 -8.5q11 -39 -32.5 -97.5t-94.5 -58.5t-32 61q19 57 69 106l6 5v2q-2 17 49 58.5t111 74.5t82 31q15 -1 20.5 -12t0.5 -31.5
t-12.5 -40t-20.5 -47.5q-6 -14 -16 -37.5t-15 -35t-11 -30t-10 -36.5t-6 -39q4 4 59.5 58.5t135.5 129.5q37 37 62 51.5t34 8t13.5 -21.5t1.5 -35.5t-2.5 -33t1.5 -16.5q19 9 54.5 37t58.5 35h8q16 -18 14.5 -53.5t-8.5 -65.5t2 -59q28 -11 80 24q13 6 17 -2.5t-8 -17.5
q-42 -31 -67 -37t-32.5 7.5t-9 38.5t1.5 51.5t2 51t-10 33.5q-14 -4 -54.5 -38.5t-60.5 -30.5q-22 6 -22.5 25.5t7.5 39t-1 37.5q-37 -11 -76.5 -45t-69.5 -70.5t-70.5 -76t-76.5 -58.5q-5 -2 -9 0t-3 8zM72 602q0 13 -5.5 19.5t-22.5 12.5l-17 5q-29 -23 -51 -65.5
t-11 -61.5q5 -8 45 6h-4q0 1 6 4.5t8 3.5q18 16 26 24.5t17 23.5t9 28z" />
    <glyph glyph-name="o_n" unicode="on" horiz-adv-x="602" 
d="M152 508q6 34 52.5 136t43.5 142q0 22 -108 -47q-14 -9 -19 -12q-40 -23 -74 -51q7 0 10 -4t0 -8q2 -1 8.5 -3.5t10 -4t8.5 -4.5t8 -6.5t4 -8.5q11 -39 -32.5 -97.5t-94.5 -58.5t-32 61q19 57 69 106l6 5v2q-2 17 49 58.5t111 74.5t82 31q38 -3 -1.5 -114t-62.5 -134
q-13 -40 -10 -67q24 0 83.5 59.5t82.5 65.5q28 7 47 2.5t28 -17t21 -23.5t26 -16.5t42 4t70 37.5q15 6 18.5 -2.5t-10.5 -17.5q-49 -32 -82 -45.5t-48 -11t-27 12t-19.5 22t-24.5 21.5t-43 7q-6 -1 -71 -57q-101 -87 -118 -66q-6 8 -3 29zM72 602q0 13 -5.5 19.5t-22.5 12.5
l-17 5q-29 -23 -51 -65.5t-11 -61.5q5 -8 45 6h-4q0 1 6 4.5t8 3.5q18 16 26 24.5t17 23.5t9 28z" />
    <glyph glyph-name="o_o" unicode="oo" horiz-adv-x="475" 
d="M29 686q12 10 20 6q0 2 8 10q43 21 97.5 37.5t110.5 20t75 -26.5h2q14 -14 14 -37q62 -8 86 -8q27 0 39 2q2 1 8 2q11 3 11 4q9 -2 12 -7t-1 -10.5t-15 -8.5q-118 0 -140 2q-12 -108 -85 -175q-51 -46 -89 -36q-43 11 -26 87q1 3 2 7q29 116 114 154q8 0 11 -4t0.5 -10
t-11.5 -11q-18 -8 -37.5 -29t-34 -47t-23 -52t-5 -46t20.5 -27q36 -11 87 63.5t54 129.5q-8 0 -12 2q-8 -4 -13.5 -2t-5.5 10l-8 6q-4 4 0 17q6 6 6 8q-9 11 -29 14t-48.5 -2.5t-49 -10.5t-48 -13.5t-28.5 -8.5q54 -33 0 -110q-41 -57 -102 -91q-58 -33 -65 -1q-7 31 42 114
q1 2 56 78zM57 678q-1 0 -3 1t-3 1v-2q-8 -13 -26 -37t-27 -37q-63 -96 -30 -96q26 0 72 46q59 59 50 97q-5 20 -33 27z" />
    <glyph glyph-name="o_p" unicode="op" horiz-adv-x="532" 
d="M-115 -152q-11 65 29 188t92 231.5t130 263.5t106 217q6 18 6 38q0 22 -108 -47q-14 -9 -19 -12q-40 -23 -74 -51q7 0 10 -4t0 -8q2 -1 8.5 -3.5t10 -4t8.5 -4.5t8 -6.5t4 -8.5q11 -39 -32.5 -97.5t-94.5 -58.5t-32 61q19 57 69 106l6 5v2q-2 17 49 58.5t111 74.5t82 31
q42 -2 0 -102q-7 -16 -21 -47q-31 -65 -32 -82q36 36 67 59q21 21 54 43q141 91 147 43q5 -39 -71 -132q-91 -110 -185 -161q-62 -33 -104 -26h-3q-80 -171 -114 -254q-6 -15 -18 -43.5t-18 -44t-16.5 -43.5t-14 -42.5t-10 -42t-4.5 -41.5t3 -40q0 -7 -6 -13t-12.5 -6.5
t-10.5 4.5zM172 522q-12 -12 -16 -8q-19 -34 -35 -74q38 -5 121 50t145.5 125.5t46.5 103.5q-56 -3 -130.5 -65t-131.5 -132zM72 602q0 13 -5.5 19.5t-22.5 12.5l-17 5q-29 -23 -51 -65.5t-11 -61.5q5 -8 45 6h-4q0 1 6 4.5t8 3.5q18 16 26 24.5t17 23.5t9 28z" />
    <glyph glyph-name="o_r" unicode="or" horiz-adv-x="485" 
d="M147 457q9 56 37 116t49.5 112t20.5 101q0 22 -108 -47q-14 -9 -19 -12q-40 -23 -74 -51q7 0 10 -4t0 -8q2 -1 8.5 -3.5t10 -4t8.5 -4.5t8 -6.5t4 -8.5q11 -39 -32.5 -97.5t-94.5 -58.5t-32 61q19 57 69 106l6 5v2q-2 17 49 58.5t111 74.5t82 31q25 -2 25 -26
q0 -35 -67 -221q-9 -24 -28 -77l-1 -1v-1v-1l-1 -1v-1l-1 -1v-1v-1l-1 -1v-1q9 13 25 40q64 101 101 134q59 52 128 37q14 -2 -1 -25q-11 -17 -23 -20q-19 14 -38.5 14.5t-38.5 -11.5t-36.5 -29t-35.5 -41.5t-32 -45.5t-30 -45.5t-25 -37.5q-6 -9 -16 -11q-4 0 -8 -2
q-9 4 -9 15zM78 602q0 13 -5.5 19.5t-22.5 12.5l-17 5q-30 -24 -52.5 -66t-9.5 -61q5 -8 45 6h-4q0 1 6.5 4.5t8.5 3.5q51 47 51 76z" />
    <glyph glyph-name="o_t" unicode="ot" horiz-adv-x="356" 
d="M33 846q-12 -9 -19.5 -2.5t4.5 18.5q110 83 334 133l105 172l26 47l4 5l3 3q2 4 4 5q10 10 19.5 3.5t4.5 -18.5q-3 -4 -29 -51q-42 -79 -86 -137l-10 -20q142 27 278.5 23.5t207.5 -36.5q6 -10 -8.5 -23t-26.5 -10q-53 36 -189.5 40t-277.5 -23q-47 -81 -82 -145
t-71 -143t-53 -137t-15 -109t30 -76q7 -10 -1.5 -19t-20.5 -6q-115 107 137 561q-125 -128 -258 -199q18 -11 27 -32q4 -62 -58.5 -132.5t-120.5 -70.5q-39 0 -15.5 76.5t72.5 134.5q39 47 62 33v-2h15q135 97 201 152.5t106 105.5q-211 -47 -299 -121zM-12 676l-2 6
q-34 -21 -68.5 -97t-13.5 -89q45 4 95 71q46 61 40 96q-3 25 -37 17l8 6q-11 -7 -22 -10z" />
    <glyph glyph-name="o_u" unicode="ou" horiz-adv-x="538" 
d="M248 702q3 0 -30 -66q-64 -131 -21 -131q9 0 22 5q33 12 66.5 38t51 44.5t53.5 61.5t44 53q12 9 19 4.5t2 -15.5q-3 -6 -11 -21t-17 -31.5t-19.5 -37t-18 -39t-12 -34.5t-1.5 -27t13 -14q13 -3 4 -16q-7 -12 -20 -9q-17 4 -24 16t-5 28t9.5 35.5t16.5 37t19 35.5
q6 10 8 14q-49 -58 -73 -78q-111 -111 -149 -74q-27 25 -4 99q1 5 3 10q6 25 42 94t34 102q0 22 -108 -47q-14 -9 -19 -12q-40 -23 -74 -51q7 0 10 -4t0 -8q2 -1 8.5 -3.5t10 -4t8.5 -4.5t8 -6.5t4 -8.5q11 -39 -32.5 -97.5t-94.5 -58.5q-50 0 -33 59q16 55 67 104q4 5 9 9
v2q-2 17 49 58.5t111 74.5t82 31q14 -1 19.5 -11t2 -27t-10.5 -36.5t-19 -42.5zM74 602q0 13 -5.5 19.5t-22.5 12.5l-17 5q-30 -24 -52.5 -66t-9.5 -61q5 -8 45 6h-4q0 1 6.5 4.5t8.5 3.5q51 47 51 76z" />
    <glyph glyph-name="o_v" unicode="ov" horiz-adv-x="499" 
d="M170 573q3 32 41 104.5t37 108.5q0 22 -108 -47q-14 -9 -19 -12q-40 -23 -74 -51q7 0 10 -4t0 -8q2 -1 8.5 -3.5t10 -4t8.5 -4.5t8 -6.5t4 -8.5q11 -39 -32.5 -97.5t-94.5 -58.5t-32 61q19 57 69 106l6 5v2q-2 17 49 58.5t111 74.5t82 31q23 -2 19.5 -35t-23.5 -78.5
t-41 -96.5t-32 -89.5t3 -56.5h6q21 17 41 37.5t41.5 48t34 45t37 52t31.5 44.5q12 12 20 6q10 -9 22.5 -32t27.5 -30.5t46 1.5q8 0 11 -4t0.5 -10t-11.5 -11q-46 -14 -68.5 0t-39.5 52q-111 -148 -156 -191q-80 -76 -69 20q3 32 16 82zM72 602q0 13 -5.5 19.5t-22.5 12.5
l-17 5q-29 -23 -51 -65.5t-11 -61.5q5 -8 45 6h-4q0 1 6 4.5t8 3.5q18 16 26 24.5t17 23.5t9 28z" />
    <glyph glyph-name="o_w" unicode="ow" horiz-adv-x="618" 
d="M254 819q20 -2 21.5 -24.5t-12 -59.5t-30 -76.5t-33 -86t-20.5 -76.5q31 23 73 85t73 83q13 6 20 -5q8 -24 -21.5 -93.5t-15.5 -94.5q26 12 51 47t47 70t39 45q8 4 41 -3.5t70.5 -4t63.5 36.5q14 14 22 5q6 -6 -4 -18q-25 -29 -54 -41t-48.5 -10.5t-45 7t-34.5 5.5
q-85 -133 -154 -168q-12 0 -14 4q-13 16 -9 49t12 60t19 58q3 7 4 10l-6 -8q-161 -212 -163 -135q0 6 1 14q6 38 55 141t46 151q0 22 -108 -47q-14 -9 -19 -12q-40 -23 -74 -51q7 0 10 -4t0 -8q2 -1 8.5 -3.5t10 -4t8.5 -4.5t8 -6.5t4 -8.5q11 -39 -32.5 -97.5t-94.5 -58.5
q-50 0 -33 59q16 55 67 104q4 5 9 9v2q-2 17 49 58.5t111 74.5t82 31zM72 602q0 13 -5.5 19.5t-22.5 12.5l-17 5q-30 -24 -52.5 -66t-9.5 -61q5 -8 45 6h-4q0 1 6 4.5t8 3.5q18 16 26 24.5t17 23.5t9 28z" />
    <glyph glyph-name="p_p" unicode="pp" horiz-adv-x="634" 
d="M90 905q13 18 24 11q6 -5 3 -15q-88 -226 -137 -340q179 223 251 189q114 109 177 137q6 8 12 10t9.5 -1.5t2.5 -10.5l-2 -4q-94 -208 -143 -312q36 41 84 78q23 23 53 43q141 91 147 43q5 -39 -71 -132q-91 -110 -185 -161q-61 -33 -104 -26h-2q-89 -192 -115 -254
q-6 -15 -18 -43.5t-18 -44t-16.5 -43.5t-14 -42.5t-10 -42t-4.5 -41.5t3 -40q0 -7 -6 -13t-12 -6.5t-10 4.5q-11 65 36.5 205t106 264.5t146.5 302t114 234.5q-64 -36 -147 -127q-2 -55 -70 -150.5t-121 -95.5q-9 5 -10 6q1 39 48.5 105t117.5 135l-10 4q-145 -75 -256 -258
q-7 -17 -43.5 -99.5t-50 -114.5t-41.5 -98.5t-49 -122t-42 -114.5l-8 -20v2q-4 -4 -9 -5t-8.5 1.5t-4.5 7.5h-2l20 55q35 92 53 164l54 141q44 107 102 201q108 246 176 434zM274 522q-12 -12 -16 -8q-19 -34 -35 -74q38 -5 121 50t146 125.5t47 103.5q-56 -3 -131.5 -65.5
t-131.5 -131.5zM74 512q46 29 82.5 78t46.5 96l-64 -78q-51 -64 -65 -96z" />
    <glyph glyph-name="r_r" unicode="rr" horiz-adv-x="450" 
d="M-10 676q2 14 12 19t16 -5q-2 -45 -43 -149q53 77 137 165q161 171 197 93q0 -11 -11 -17.5t-17 2.5q0 6 -9 9h-4q-50 -11 -98.5 -51t-79 -81.5t-72.5 -101.5t-65 -88q-6 -8 -14 -10t-13 4q1 30 31 106.5t33 104.5zM184 692q11 19 22 11q7 -4 3 -15l-64 -203q6 10 18 29
q68 106 108 142q63 56 135 40q14 -2 -2 -25q-11 -17 -23 -20q-19 14 -39 14.5t-39 -11.5t-37 -28.5t-37 -41.5t-33.5 -46t-31 -46t-25.5 -37q-6 -9 -16 -11q-4 0 -8 -2q-9 4 -9 15q8 24 33 102.5t45 132.5z" />
    <glyph glyph-name="s_h" unicode="sh" horiz-adv-x="708" 
d="M178 827q13 0 12 -9q-2 -12 -18 -17q-44 -5 -103 -52t-77 -98q9 -12 23 -21.5t33 -18.5t28 -15q10 10 28.5 30t26.5 29q191 219 377 502q104 200 186 332q1 3 4 9t4 9l11 11l4 4q12 9 17.5 2.5t-3.5 -19.5q-4 -4 -4 -8q-51 -129 -190 -336q-20 -37 -53 -102t-46 -90
q-169 -307 -221 -482q15 2 83 75.5t154 158t138 108.5q11 5 18 -7.5t7 -28.5t-1 -25q-2 -9 -18 -52.5t-30.5 -89t-27 -93.5t-11 -79t21.5 -32q8 0 25 4.5t22 5.5q14 0 13.5 -11t-17.5 -15q-95 -21 -95 54q0 43 44 170q43 124 38 164q-1 3 -1 5q-48 -22 -102 -77t-94.5 -108
t-92 -100t-96.5 -57q-11 2 -11 14q54 186 224 496q4 7 12 22.5t12 22.5q-133 -181 -340 -430q17 -17 19 -33q7 -28 -40 -92.5t-110.5 -114.5t-97.5 -41q-6 1 -6 12q17 67 196 260q-8 5 -33.5 14t-39.5 20.5t-17 29.5q-7 35 32.5 79.5t92.5 75.5t90 35zM82 537q-2 8 -10 20
l-84 -98v1q1 2 4 5q-91 -100 -105 -139q49 15 124 95t71 116z" />
    <glyph glyph-name="s_l" unicode="sl" horiz-adv-x="509" 
d="M178 827q13 0 12 -9q-2 -12 -18 -17q-44 -5 -103 -52t-77 -98q9 -12 23 -21.5t33 -18.5t28 -15q10 10 28.5 30t26.5 29q15 17 75.5 86t76.5 88t62 74.5t64.5 83.5t50 75t51.5 89t38 88q6 9 12.5 11.5t10 -2t1.5 -13.5v-8l-4 -6l-4 -7q0 -2 -2 -4.5t-2 -3.5
q-34 -84 -88 -166q-72 -145 -162 -340q-50 -105 -64 -172.5t6.5 -86t81.5 24t152 146.5q13 13 22 6q8 -6 -3 -18q-45 -52 -84.5 -91t-70.5 -60.5t-56 -31.5t-41 -5t-25.5 19.5t-10 41t6 60.5t22.5 78.5t40 93.5q6 13 114 229q-26 -35 -54.5 -70.5t-63.5 -75.5t-58 -66
t-67 -74.5t-62 -67.5q8 -11 15 -31q7 -28 -40 -92.5t-110.5 -114.5t-97.5 -41q-6 1 -6 12q17 67 196 260q-8 5 -33.5 14t-39.5 20.5t-17 29.5q-7 35 32.5 79.5t92.5 75.5t90 35zM82 537q-5 15 -8 18l-86 -96v1q1 2 4 5q-91 -100 -105 -139q49 15 124 95t71 116z" />
    <glyph glyph-name="s_r" unicode="sr" horiz-adv-x="485" 
d="M285 698q8 12 12 13q7 23 -119 -57q-3 -2 -4 -3q-1 0 -59 -41q36 -9 26 -49q-12 -49 -62 -99.5t-110 -88.5q-11 -6 -24 -12.5t-35.5 -16t-38 -8t-16.5 15.5q-5 91 182 230q-75 0 -89 6q-33 16 46 82l2 2q50 40 78 57q54 34 104 45q8 0 11 -4t0.5 -9.5t-11.5 -10.5
q-37 -8 -121.5 -58.5t-85.5 -79.5q9 -4 26 -4t42.5 2t38.5 2l88 60q1 1 7 5q162 110 155 50v-2q-5 -21 -25 -45q-19 -48 -41 -90q114 140 162 94q7 -10 -2 -19t-21 -6q-27 24 -97 -54t-99 -144v-2v-2q-6 -7 -12 -9t-9.5 0.5t-3.5 8.5h-2v4q17 43 47 106.5t43 96.5q0 8 4 14
l7 6zM113 555q3 22 -39 25q-188 -135 -191 -209q25 -11 80 23.5t100.5 83.5t49.5 77z" />
    <glyph glyph-name="s_s" unicode="ss" horiz-adv-x="520" 
d="M121 717q-2 -11 -13.5 -17.5t-17.5 2.5v5q-27 -3 -52 -30.5t-34 -53.5q6 -13 21.5 -23.5t38.5 -21.5t34 -19l168 94q13 49 80 105q63 53 129 53q9 0 11 -5.5t-5 -14.5q-48 -53 -182 -138q-5 -14 -6 -30t1 -27.5t5 -29.5t4 -29q128 79 207 100q25 8 31 -8q3 -1 0 -13
q-3 -8 -9.5 -12t-12.5 -2t-7 8v2q-75 -14 -207 -98q0 -13 -4 -41q-12 -50 -77.5 -96t-117.5 -43q-55 3 18 72q55 53 152 114q-1 16 -8.5 54t-5.5 59l-145 -86q19 -26 12 -53q-5 -23 -69.5 -71.5t-136.5 -80.5t-93 -12q-1 2 -1 6t-1 6q46 92 235 199q-6 4 -32 16.5t-39 23.5
t-19 27q-16 34 46 82t94 43q5 0 8 -6v-10zM100 492q-8 27 -18 34q-190 -113 -223 -178q39 0 119 47.5t122 96.5zM270 471l6 25q-119 -76 -157 -136q27 -10 86.5 36t64.5 75zM334 717q-18 -21 -27 -39q89 54 137 104q-65 -13 -110 -65z" />
    <glyph glyph-name="t_h" unicode="th" horiz-adv-x="659" 
d="M264 1212q13 19 24 11q6 -4 1 -15q-50 -119 -111 -229q130 33 193 43q34 56 113.5 193.5t123.5 207.5q2 2 4 2q0 3 4 7q21 16 20 5l-5 -10v-12q-63 -96 -115 -188l-94 -197q150 20 213 -24q7 -10 -2 -19t-21 -6q-56 40 -206 20l-17 -32q-169 -307 -221 -482q15 2 83 75.5
t154 158t138 108.5q11 5 18 -7.5t7 -28.5t-1 -25q-2 -9 -18 -52.5t-30.5 -89t-27 -93.5t-11 -79t21.5 -32q8 0 25 4.5t22 5.5q14 0 13.5 -11t-17.5 -15q-96 -22 -95 55q0 43 44 170q43 124 37 164q-1 2 -1 4q-48 -22 -102 -77t-94.5 -108t-92 -100t-96.5 -57q-7 1 -8.5 3.5
t-1.5 10.5q46 162 195 442q-117 -189 -221 -317q-2 -2 -17.5 -22t-22.5 -29t-23.5 -27t-28 -27.5t-27 -19t-29.5 -12.5q-100 -18 87 335q4 7 5 9l76 139q-100 -27 -127 -31q-9 3 -7.5 13t13.5 14q58 11 137 33q78 146 119 241zM354 993q-37 -7 -111 -24t-81 -19l-84 -151
q-77 -143 -125 -279l-1 -6q-1 -6 -1 -11t1.5 -11t6.5 -6t14 3q16 9 34.5 25t27.5 26t30 36t23 28q54 73 90 125q103 137 176 264zM334 918q-4 -3 -4 -5z" />
    <glyph glyph-name="t_l" unicode="tl" horiz-adv-x="421" 
d="M284 1212q13 18 23 11q5 -5 1 -15q-51 -126 -104 -221q67 3 86 -24q-2 -11 -13.5 -17.5t-17.5 2.5q-11 17 -74 8l-88 -157q-116 -215 -157 -332l-1 -13q-1 -12 3.5 -18.5t19.5 0.5q16 9 32.5 23.5t30 29.5t27 32t23.5 30q2 2 123 178q9 11 23 31t20 28q19 38 128.5 242.5
t149.5 292.5q6 9 13 11t10 -3q4 0 4 -8l-2 -4l-2 -6q-145 -348 -305 -582q-1 -6 -6.5 -17.5t-6.5 -13.5q-50 -105 -64 -172.5t6.5 -86t81.5 24t152 146.5q13 13 22 6q8 -6 -3 -18q-159 -186 -239 -189q-53 -3 -49 78q3 58 36 144q-6 -9 -70 -90q-4 -4 -28 -34.5t-38 -46
t-37.5 -34t-43.5 -22.5q-100 -18 117 386q5 9 6 11l82 149q-125 -26 -213 -63q-13 -3 -13 7q2 8 9 15q116 54 233 72q64 113 113 229z" />
    <glyph glyph-name="t_t" unicode="tt" horiz-adv-x="405" 
d="M543 1227q10 10 19.5 3.5t4.5 -18.5l-114 -188q210 13 311 -33q6 -10 -8.5 -23t-26.5 -10q-36 24 -115 33.5t-178 3.5q-48 -82 -84 -147.5t-74 -147.5t-56 -142.5t-16.5 -113.5t30.5 -79q7 -10 -2 -19t-21 -6q-109 99 104 504q-28 -44 -81 -132t-80 -132
q-61 -90 -94 -121q-53 -50 -97 -41q-37 10 -14 119q52 192 166 403q-136 -41 -199 -94q-12 -9 -19 -2.5t5 18.5q78 59 225 105l33 53l49 84q11 20 57 90q12 15 31 18q13 0 12 -9q0 -12 -18 -17q-2 0 -8 -12q-6 -9 -24.5 -36t-27.5 -42l-47 -80l-24 -39q111 31 254 45l24 35z
M397 993q-128 -12 -250 -43q-206 -364 -174 -495q21 -77 200 199q13 19 15 22v2q61 96 209 315z" />
    <glyph glyph-name="e_t_t" unicode="ett" horiz-adv-x="655" 
d="M793 1227q10 10 19.5 3.5t4.5 -18.5l-115 -188q90 6 162 0q213 13 314 -33q6 -10 -8.5 -23t-26.5 -10q-48 28 -142 37q8 -4 13 -4q6 -10 -8.5 -23t-26.5 -10q-44 28 -137 37q-96 -7 -166 -20q-47 -81 -82 -145t-71 -143t-53 -137t-15 -109t30 -76q7 -10 -1.5 -19
t-20.5 -6q-31 28 -35.5 79.5t10 111t47.5 138t69 147t83 151.5q-72 -13 -154 -41q-267 -464 -161 -561q7 -10 -2 -19t-21 -6q-69 61 -10 240q-23 -18 -45.5 -35.5t-53 -38.5t-58 -38t-57 -32t-54.5 -22.5t-47.5 -7.5t-36.5 10q-32 22 -18.5 75t47 109.5t82.5 104.5t89 59
q13 3 17 2q19 -18 15 -41.5t-25.5 -48t-49 -44.5t-56.5 -32.5t-46 -11.5q-81 -147 0 -150q66 -2 190 77q72 46 115 91q43 121 143 301q-69 -27 -108 -61q-12 -9 -19.5 -2.5t4.5 18.5q55 43 140 74l16 31q-211 -42 -305 -121q-12 -9 -19 -2.5t5 18.5q111 84 335 133
q26 44 73.5 122t66.5 110q10 10 19.5 3.5t4.5 -18.5q-16 -27 -60 -100t-67 -111q105 18 142 21zM135 737q-82 -39 -129 -123h2q45 19 102.5 61t24.5 62zM512 975l-14 -23q81 26 143 39q-90 -8 -129 -16z" />
    <glyph glyph-name="i_t_t" unicode="itt" horiz-adv-x="651" 
d="M25 709q13 19 24 11q5 -5 2 -15q-10 -23 -36 -71t-40 -81.5t-10 -54.5q20 -1 42.5 10t48.5 36t40 40t41 48.5t29 35.5l141 170q13 27 58 110q-182 -45 -259 -108q-12 -9 -19 -2.5t5 18.5q95 71 287 119l27 45l49 84q10 20 57 90l14 12l2 8q13 18 24 11q7 -4 3 -15l-2 -2
q7 -11 -8 -20q-58 -134 -103 -199q141 27 217 31q18 27 23 37l104 170q10 10 20 3.5t5 -18.5l-115 -188q219 10 312 -33q6 -10 -8.5 -23t-26.5 -10q-74 47 -293 37q-49 -83 -84.5 -148t-74 -147.5t-56.5 -142.5t-16.5 -113t30.5 -79q7 -10 -1.5 -19t-20.5 -6
q-109 99 104 504l-81 -132l-81 -132q-60 -88 -90 -117q-54 -55 -100 -45q-37 10 -14 119q27 108 84 235q-11 -11 -27 -35q-84 -108 -146 -170q-7 -9 -17 -18.5t-22 -21t-18 -17.5q-10 -9 -25.5 -18.5t-33.5 -18t-32.5 -7.5t-18.5 15q-8 27 9.5 73.5t45.5 95.5t31 59z
M641 991q-105 -6 -215 -28q-32 -44 -92 -121q-145 -283 -117 -387q21 -77 200 199q13 19 15 22v2q34 53 209 313zM199 1049l2 2q15 6 18.5 -3t-8.5 -18q-14 -10 -26.5 -33t-14.5 -39l2 -6q-2 -11 -13.5 -17t-17.5 3q-6 21 14 57t44 54zM430 1016l-20 -33h4q31 48 53 96z
M393 956q0 -6 -4 -10q2 2 6 10h-2z" />
    <glyph glyph-name="o_t_t" unicode="ott" horiz-adv-x="665" 
d="M80 711q-2 -2 0 -2h14q210 150 283 229q-131 -42 -189 -92q-12 -9 -19 -2.5t5 18.5q76 59 225 105l33 53l49 84q7 14 58 90l6 6l8 14q13 18 24 11q7 -4 3 -15l-2 -2q6 -3 3.5 -9t-10.5 -11q-46 -103 -133 -209q126 31 248 43l25 35l102 170q10 10 20 3.5t5 -18.5
l-115 -188q210 13 311 -33q6 -10 -8.5 -23t-26.5 -10q-75 50 -292 37q-49 -83 -84.5 -148t-74 -147.5t-56.5 -142.5t-16.5 -113t30.5 -79q7 -10 -2 -19t-21 -6q-108 98 105 504q-28 -44 -81.5 -132t-80.5 -132q-60 -88 -90 -117q-54 -55 -100 -45q-38 10 -15 119
q46 164 137 352q-114 -117 -245 -187q17 -10 26 -32q4 -62 -58 -132.5t-120 -70.5q-39 0 -15.5 76.5t72.5 134.5q39 47 62 33zM668 993q-128 -12 -250 -43q-208 -367 -174 -495q21 -77 200 199q13 19 15 22v2q61 96 209 315zM57 676q-4 4 -2 6q-34 -21 -68.5 -97t-13.5 -89
q45 4 96 71q45 61 40 96q-3 25 -37 17l8 6z" />
    <glyph glyph-name="line01" unicode="_&#x31;" 
d="M-681 231q-14 -3 -14 8q1 12 14 17q142 45 331.5 78t387.5 32.5t285 -55.5q14 -7 28 -29t17 -26q6 -10 -2.5 -19t-20.5 -6q-6 7 -13 20.5t-14.5 23t-17.5 14.5q-82 52 -274 52t-380.5 -33t-326.5 -77z" />
    <glyph glyph-name="line02" unicode="_&#x32;" 
d="M-723 225q-11 3 -9.5 13t13.5 14q201 42 433 73t417 40h47t46.5 -0.5t40.5 -2.5t39.5 -6t31.5 -11.5t29.5 -18t20.5 -27t15 -37.5q0 -11 -11.5 -17t-16.5 3q2 25 -10.5 43t-32 26.5t-50.5 13.5t-54.5 5.5t-55 0.5t-43.5 1q-320 0 -850 -113z" />
    <glyph glyph-name="line03" unicode="_&#x33;" 
d="M-831 209q-14 -3 -13.5 8t13.5 16q224 69 471.5 108.5t494 33.5t400.5 -70q6 -10 -2.5 -18.5t-22.5 -5.5q-94 43 -226.5 59t-262.5 10.5t-293 -29.5t-286 -50t-273 -62z" />
    <glyph glyph-name="line04" unicode="_&#x34;" 
d="M-757 227q-14 -3 -13 8q2 12 15 17q225 70 451 99t491 36q64 2 119 -4t109 -22t86.5 -51t34.5 -85q-3 -11 -15 -16.5t-18 4.5q-1 7 0.5 25.5t-0.5 31.5t-10 21q-28 33 -130 49.5t-182 19.5q-463 16 -938 -133z" />
    <glyph glyph-name="line05" unicode="_&#x35;" 
d="M-962 172q-14 -3 -14 8q1 12 14 17q661 204 1108 168q152 -12 176.5 -16t155.5 -36q18 -4 34 -11.5t28 -19.5t9.5 -29.5t-22.5 -37.5q-11 -8 -18 -4t0 16q6 6 8.5 11.5t4 9t-1 7.5t-3.5 6.5t-7 5.5l-8 4t-9.5 4t-8.5 4q-4 2 -20 7l-8 3h2q1 0 7 -1t11 -1q-122 30 -180 37
q-67 11 -158 14q-509 17 -1100 -166z" />
    <glyph glyph-name="line06" unicode="_&#x36;" 
d="M-1141 215q-11 3 -9.5 13t13.5 14q595 78 848 98q659 54 1104 -39q14 -2 6 -15q-6 -9 -18 -12q-108 25 -229 39t-227 20t-245.5 2t-238 -9.5t-254.5 -21.5t-244 -26.5t-258 -32t-248 -30.5z" />
    <glyph glyph-name="line07" unicode="_&#x37;" 
d="M-1069 236q-9 3 -7.5 12.5t13.5 13.5q742 134 1479 96q127 -5 281 -32.5t253 -65.5q6 -11 -2 -19t-22 -5q-94 37 -235.5 63.5t-287.5 32.5q-733 38 -1472 -96z" />
    <glyph glyph-name="line08" unicode="_&#x38;" 
d="M-1217 190q-9 3 -7 13t14 14q762 169 1462 139q124 -5 252.5 -31.5t252 -81.5t183.5 -128q6 -10 -2 -19t-20 -6q-25 61 -106 109t-188 74t-202.5 40t-179.5 17q-696 30 -1459 -140z" />
    <glyph glyph-name="line09" unicode="_&#x39;" 
d="M-1473 158q6 -10 -3 -19t-21 -6l-16 17q-6 8 4 18q41 30 112.5 54.5t124 35.5t145 26t111.5 19q201 38 488 49.5t574.5 -4t550.5 -65.5t404 -127q7 -10 -1.5 -19t-20.5 -6q-87 47 -145 67.5t-183 51.5q-159 42 -485 61.5t-662 10t-524 -45.5q-15 -3 -101.5 -18t-143 -26
t-123.5 -30.5t-93 -39.5q4 0 8 -4z" />
    <glyph glyph-name="o_h" unicode="oh" horiz-adv-x="661" 
d="M80 711q-2 -2 0 -2q10 3 16 0q173 114 295 315q23 44 53.5 107t57.5 114t65 111q2 2 4 6t4 6q0 2 7 6v2l2 2q9 4 13.5 2t2.5 -10v-6q-111 -221 -170 -317l-39 -78q-169 -307 -221 -482q15 2 83 75.5t154 158t138 108.5q11 5 18 -7.5t7 -28.5t-1 -25q-2 -9 -18 -52.5
t-30.5 -89t-27 -93.5t-11 -79t21.5 -32q8 0 25 4.5t22 5.5q14 0 13.5 -11t-17.5 -15q-96 -22 -95 55q0 43 44 170q43 124 37 164q-1 2 -1 4q-48 -22 -102 -77t-94.5 -108t-92 -100t-96.5 -57q-7 1 -8.5 3.5t-1.5 10.5q53 180 176 408q-16 -20 -71 -84q-76 -76 -115 -103
q7 -7 12 -22q4 -62 -58 -132.5t-120 -70.5q-39 0 -15.5 76.5t72.5 134.5q39 47 62 33zM57 676q-4 4 -2 6q-34 -21 -68.5 -97t-13.5 -89q21 2 45 19t42.5 41t33 50t15 45t-10.5 27q-27 -10 -41 -2zM465 1163q-1 -2 -3 -5l-1 -3z" />
    <glyph glyph-name="f_f" unicode="ff" horiz-adv-x="587" 
d="M272 1200q11 19 22 11q7 -4 3 -15q-47 -112 -127.5 -292.5t-114.5 -260.5q33 24 89.5 72.5t58.5 50.5q17 15 72.5 64t86 76.5t76.5 72t80 82.5q33 72 51 109.5t58 100.5t69 79q9 4 15 1.5t4 -10.5q-27 -128 -172 -286q-2 -5 -5.5 -10.5t-5.5 -9t-2 -5.5
q-122 -236 -208 -438l14 -17h18q140 4 213 48q15 6 19 -3t-8 -18q-50 -32 -129 -45q-35 -4 -101 -8h-2q1 -3 6 -43q6 -38 -6 -82q-25 -109 -57 -191q-8 -20 -23.5 -65.5t-26 -73t-30 -66t-41.5 -67.5q-7 -7 -16 -10h-9q-9 5 -10 6q-34 169 143 600q-31 11 -19 31
q12 19 38 16h4q78 182 184 387q-71 -71 -266 -241q-1 -1 -20 -17.5l-38 -33t-48 -39t-54 -39.5l6 -13q11 -49 -3.5 -123.5t-33 -126t-51.5 -133.5q0 -1 -11 -29.5t-21 -52t-25 -46t-27 -23.5q-26 -1 -33 22.5t-1 53.5q47 195 147 436q-58 -30 -61 -4q-4 31 25 50t59 13
q43 101 121.5 274t123.5 281zM309 551h-6q-173 -417 -145 -561q22 41 47 95.5t53.5 126t45 134t22 119.5t-14.5 84q-2 0 -2 2zM29 498q1 10 4 33.5t3 33t-3 29.5q-35 -86 -60 -152q-3 -8 -14.5 -38t-15 -40t-13 -37t-13 -40t-10 -36.5t-9 -39t-5 -35.5t-2 -37.5t2.5 -34.5
q51 90 91 215t44 179zM674 1296q-38 -57 -86 -149q63 83 86 149zM-29 600q14 0 43 16l2 5q-7 5 -19.5 1t-21.5 -14z" />
    <glyph glyph-name="f_l" unicode="fl" horiz-adv-x="497" 
d="M283 1239q2 14 12 19t16 -5q15 -43 -98 -246q-3 -5 -5 -8t-3 -6q-33 -67 -98.5 -186.5t-88.5 -163.5q100 55 218.5 158.5t212.5 228.5q116 220 145 283q6 12 18 12q15 0 9 -16q-39 -160 -185 -336q-13 -26 -47 -91.5t-54.5 -106.5t-35.5 -75q-50 -105 -64 -172.5t6.5 -86
t81.5 24t152 146.5q13 13 22 6q8 -6 -3 -18q-45 -52 -84.5 -91t-70.5 -60.5t-56 -31.5t-41 -5t-26 19.5t-10.5 41t6 60.5t22.5 78.5t40 93.5q12 26 28.5 58.5t39 74.5t35.5 67q-91 -99 -193 -178.5t-184 -118.5q-13 -21 -14 -28q3 -6 9 -17t10.5 -21t6.5 -20
q15 -113 -18 -235q-14 -63 -45 -131q-32 -69 -81 -118q-69 -68 -90 7q-2 8 -3 16q-6 41 7 99t26.5 93.5t41.5 102.5q42 100 103 219q-3 12 0 27q0 12 12 16q2 0 12 5q6 14 29 55q13 24 50 91t53.5 96.5t47 88t49 97.5t40.5 89.5t39 96.5q0 -1 -1 0t-1 2zM-20 516l-15 29
q-58 -115 -104 -232q-95 -236 -47 -274q8 -3 14.5 -3t15 6.5t15 12.5t13.5 16.5t11.5 16.5t9 14t5.5 9q81 130 88 288q9 84 -6 117z" />
    <glyph glyph-name="s_t" unicode="st" horiz-adv-x="415" 
d="M92 846q-12 -9 -19 -2.5t5 18.5q110 83 334 133q24 43 51.5 88.5t57.5 95t44 72.5l2 9q13 18 24 10q6 -5 3 -15q-8 -20 -14 -30q0 -2 -1 -7t-1 -6q-13 -19 -13 -20q-46 -100 -108 -188q140 27 275.5 23.5t205.5 -36.5q6 -10 -8.5 -23t-26.5 -10q-53 36 -189.5 40
t-277.5 -23q-47 -80 -82 -144.5t-70.5 -143.5t-52.5 -137t-15 -109t30 -76q7 -10 -2 -19t-21 -6q-107 95 103 494q-96 -112 -228 -254q8 -11 15 -31q7 -28 -40 -92.5t-110.5 -114.5t-97.5 -41q-6 1 -6 12q17 67 196 260q-8 5 -33.5 14t-39.5 20.5t-17 29.5q-7 35 32.5 79.5
t92.5 75.5t90 35q13 0 12 -9q-2 -12 -18 -17q-44 -5 -103 -52t-77 -98q9 -12 23 -21.5t33 -18.5t28 -15q10 10 28.5 30t26.5 29q25 29 68.5 78.5t70 80t60.5 72t61 75.5l4 8q-214 -46 -305 -123zM84 537q-3 13 -8 18l-86 -96v1q1 2 4 5q-91 -100 -105 -139q49 15 124 95
t71 116z" />
    <glyph glyph-name=".notdef" horiz-adv-x="276" 
 />
    <glyph glyph-name=".null" 
 />
    <glyph glyph-name="nonmarkingreturn" horiz-adv-x="682" 
 />
    <glyph glyph-name="space" unicode=" " horiz-adv-x="276" 
 />
    <glyph glyph-name="exclam" unicode="!" horiz-adv-x="315" 
d="M516 1346q10 10 18 6.5t3 -15.5q-213 -328 -420 -735q-9 -10 -18 -8.5t-9 12.5q217 424 426 740zM33 520q14 19 23 10q4 -4 1 -14q-9 -25 -32 -51q-8 -12 -20 -8q-7 5 -1 16q3 5 10 14.5t11.5 17.5t7.5 15z" />
    <glyph glyph-name="quotedbl" unicode="&#x22;" horiz-adv-x="198" 
d="M242 1161q10 10 17.5 7t2.5 -15q-9 -11 -16 -23t-12 -22.5t-4 -18.5t8 -10q7 -10 -2 -18.5t-21 -5.5q-19 5 -14.5 27t16 42.5t25.5 36.5zM291 1116q14 19 23 10q4 -4 1 -14q-5 -15 -21 -44t-22 -44q-5 -17 -19 -14q-8 2 -7 12q6 17 22.5 48t22.5 46z" />
    <glyph glyph-name="numbersign" unicode="#" horiz-adv-x="550" 
d="M-139 715q-14 -3 -13.5 8t13.5 16q208 75 385 115q16 21 56.5 76t60.5 83t50.5 71.5t52 79t38.5 69.5q11 18 21 11q6 -5 3 -15q-15 -30 -35 -63t-49.5 -76t-48 -69.5t-59.5 -83t-55 -75.5q108 21 180 31q115 176 260 358q10 10 17.5 7t2.5 -15q-132 -167 -249 -346
q81 11 184 14q14 0 13.5 -11t-17.5 -15q-85 -2 -199 -17q-19 -27 -74 -116q25 2 76 -2q10 -3 4 -17q-4 -6 -16 -22q-11 -13 -22 -7q-7 4 -1 15q4 4 4 6q-27 3 -61 -2q-104 -172 -113 -252q-1 -7 1.5 -15t6.5 -16.5t5 -13.5q0 -11 -12.5 -17t-16.5 3l-12 45q-8 38 92 219
q8 18 22 43l-80 -19l23 5q-28 -7 -79.5 -20.5t-72.5 -18.5q-85 -139 -90 -213q-2 -11 -13 -17.5t-17 2.5q7 80 84 219q-85 -20 -105 -24q-9 3 -7.5 12.5t13.5 13.5q50 11 119 31q80 119 92 135q-175 -43 -362 -110zM258 831q-14 -22 -44.5 -65.5t-45.5 -65.5q148 41 205 48
q12 20 35.5 59.5t35.5 58.5q-70 -9 -186 -35z" />
    <glyph glyph-name="dollar" unicode="$" horiz-adv-x="442" 
d="M438 1161q13 18 23 11q6 -4 2 -15q-26 -58 -109 -182q21 4 64 0q12 -2 5 -15q-5 -9 -17 -12q-30 6 -68 0l-16 -26q-63 -114 -111 -209q43 4 92 0.5t80 -21.5q3 -3 0 -14q-20 -40 -27 -47q-41 -37 -113.5 -85.5t-133.5 -72.5q-47 -128 -66 -231q-5 -17 -19 -14q-9 1 -8 12
q16 87 62 223q-51 -13 -74 4q-4 9 6 18.5t19 6.5q13 -13 59 0q34 89 84 196q-31 -1 -58.5 -1t-54.5 6t-45 20q-16 16 -15 35t17 40.5t35 39t39 30.5q135 91 234 111q9 15 37.5 58.5t46 73.5t30.5 60zM41 735q41 -28 143 -24q55 113 113 215q1 2 4 7t4 7q-76 -20 -209 -102
q-33 -23 -56 -54t1 -49zM352 672q-40 26 -151 18q-30 -59 -82 -186q66 28 141.5 83.5t91.5 84.5z" />
    <glyph glyph-name="percent" unicode="%" horiz-adv-x="352" 
d="M201 1128l8 7q4 12 16 14q9 3 20.5 5t19.5 2t20.5 -0.5t17.5 -0.5h19q17 0 38 0.5t41 -2.5t38 -7t30 -13.5t17 -23t-1 -35t-24 -48.5q-40 -61 -97.5 -124.5t-108.5 -109.5t-120.5 -110t-114.5 -111q-26 -26 -39 -39.5t-25.5 -31t-15.5 -22.5t-18 -32.5t-24 -42.5
q-7 -10 -17 -8t-8 13q43 74 111.5 149.5t131 129.5t139 127t126.5 136q17 21 31.5 43t28 49t11.5 49t-22 31q-1 1 -35 3.5t-76.5 4t-80.5 -1.5q20 -64 -25 -114q-33 -37 -66 -37q-29 0 -20 36q11 43 74 115zM104 440q-30 -10 -33 17q-4 32 27 62q4 4 8 7q-12 0 -8 12
q4 9 13 13q54 21 62 -14q7 -30 -25 -66q-19 -21 -44 -31zM182 1014q27 15 31 43t-4 49q-69 -84 -58 -99q5 -7 31 7zM104 467q22 9 34.5 27.5t6.5 29.5q-2 -4 -10 -8q-29 -8 -36 -36q-2 -14 5 -13z" />
    <glyph glyph-name="ampersand" unicode="&#x26;" horiz-adv-x="555" 
d="M446 244q6 -11 -2.5 -19.5t-21.5 -5.5q-97 133 -156 248q-182 -110 -313 -119q-13 0 -32.5 12.5t-24.5 14.5v12q80 141 286 330q-8 46 -8 69q0 7 -2 31.5t-2.5 37t3 32t11.5 35.5q7 13 20 40t18 36t16.5 28t20.5 27.5t25 22.5t35.5 25.5t45.5 24.5q76 38 134 35t60 -48
t-78 -134q-62 -72 -119 -129q-45 -45 -155 -143q17 -83 72 -201q102 63 143 104q14 14 22 6q6 -6 -4 -18q-71 -68 -147 -117q43 -83 153 -237zM213 922q-25 -83 -8 -185q86 81 120 113.5t96 102.5t101 132q-1 4 -3 12.5t-3 13.5t-4 12t-6 12q-12 22 -70.5 -4t-110 -61
t-59.5 -44q-29 -32 -53 -104zM-37 377q37 -10 119 24t174 91q-8 16 -10 26q-1 3 -15 37t-18.5 46.5t-12.5 39t-12 47.5q-92 -83 -156 -152t-104 -141q2 -1 15 -8.5t20 -9.5z" />
    <glyph glyph-name="quotesingle" unicode="'" horiz-adv-x="184" 
d="M179 993q2 14 12.5 19.5t18.5 -4.5q4 -27 -13 -56t-48 -67q-3 -2 -4.5 -4t-2.5 -4q-9 -13 -20 -7q-6 5 0 15q6 9 21.5 28.5t22 29.5t11.5 24t2 26z" />
    <glyph glyph-name="parenleft" unicode="(" horiz-adv-x="190" 
d="M451 1202q12 9 18 2.5t-4 -18.5q-93 -85 -155.5 -146.5t-141 -149.5t-132 -174.5t-79.5 -170.5q-14 -44 -15 -87.5t10 -80.5t41 -61t75 -27q12 -2 4 -15q-5 -9 -17 -12q-49 3 -82.5 29.5t-46 67t-11.5 89.5t17 99q22 70 65.5 144.5t90 135.5t117 135t120.5 122t126 118z
" />
    <glyph glyph-name="parenright" unicode=")" horiz-adv-x="225" 
d="M260 1139q2 14 12.5 19t16.5 -5q3 -127 -24.5 -241.5t-90 -225.5t-141.5 -212t-199 -228q-11 -8 -18 -4t0 16q116 123 193 220t138.5 205.5t88.5 220t24 235.5z" />
    <glyph glyph-name="asterisk" unicode="*" horiz-adv-x="299" 
d="M111 891q-6 9 3.5 18t18.5 6q29 -12 80 -16l29 59q11 18 21 11q7 -4 3 -15q-9 -15 -12 -30q8 7 39 22q15 7 16.5 -3.5t-12.5 -18.5q-20 -9 -49 -27q0 -1 30 -1l29 1q13 0 12 -11t-18 -16h-74q-18 -32 -32 -51q-8 -12 -20 -8q-9 4 -1 16q12 24 16 31q-44 -31 -63 -39
q-9 -2 -12.5 2t-1 10t9.5 11q36 18 57 32q-44 7 -69 17z" />
    <glyph glyph-name="plus" unicode="+" horiz-adv-x="532" 
d="M57 608q-13 3 -8 16q5 11 19 11q96 0 145 2q28 44 77 116.5t52 77.5q8 7 14.5 8t8.5 -3.5t0 -12.5q-76 -105 -125 -186q136 4 202 4q13 0 13 -11t-17 -16q-71 0 -215 -4q-78 -132 -73 -188q0 -11 -11.5 -17t-17.5 3q-10 59 76 200h-140z" />
    <glyph glyph-name="comma" unicode="," horiz-adv-x="184" 
d="M-8 483q10 16 23 13q7 -2 5 -11q-21 -122 -151 -192q-15 -7 -18.5 2t8.5 18q118 65 133 170z" />
    <glyph glyph-name="hyphen" unicode="-" horiz-adv-x="487" 
d="M70 596q-13 4 -6 17q6 9 18 10q38 0 114.5 2t114.5 2q13 0 12 -11t-18 -16q-39 0 -117 -2t-118 -2z" />
    <glyph glyph-name="period" unicode="." horiz-adv-x="153" 
d="M10 502q7 10 13 12q-1 6 4 11t14 7l16 -8q7 -11 -3.5 -25.5t-26.5 -23.5h-15l-6 6v13z" />
    <glyph glyph-name="slash" unicode="/" horiz-adv-x="561" 
d="M631 1024q13 9 19 2.5t-3 -18.5q-81 -66 -247.5 -193.5t-293 -233t-231.5 -214.5q-11 -8 -18 -4t0 16q106 109 231.5 214.5t294 235t248.5 195.5z" />
    <glyph glyph-name="zero" unicode="0" horiz-adv-x="536" 
d="M461 1118q14 -2 5 -15q-6 -9 -17 -11q-44 2 -100 -36t-107 -96.5t-99.5 -127.5t-81.5 -127.5t-49 -96.5q-13 -29 -19 -59.5t0.5 -60t29.5 -42.5q53 -27 137.5 21t146.5 113q64 67 107 137q63 98 101 216q59 183 -33 197q-34 6 -89 -14q-14 -3 -14 8q2 12 14 17
q62 21 100.5 16.5t55 -34t15.5 -71.5t-17 -96q-13 -48 -40.5 -108t-66.5 -125.5t-90 -125t-106 -104t-118.5 -65t-123.5 -6.5q-29 7 -35.5 46t1 75.5t18.5 66.5q19 47 66.5 125t109 161.5t131.5 148.5t123 75q10 3 45 -2z" />
    <glyph glyph-name="one" unicode="1" horiz-adv-x="264" 
d="M172 948q-12 -9 -19 -2t5 19q87 67 198 178q51 70 95 108q9 6 18 4l6 -4q3 -4 0 -16q-16 -36 -119 -131q-105 -150 -219 -381.5t-168 -376.5q-9 -10 -17.5 -8.5t-6.5 12.5q46 121 146 328.5t198 365.5q-55 -50 -117 -96z" />
    <glyph glyph-name="two" unicode="2" horiz-adv-x="544" 
d="M256 1018q-9 -8 -16 -4t0 16q17 18 35.5 37.5t20.5 22.5t17 14t23 15.5t41 23.5q49 29 83.5 21.5t53.5 -34.5t18.5 -67.5t-22.5 -77.5q-62 -99 -143 -184t-193 -178q-64 -54 -182 -144l-19 -12q26 12 83 44t79 42q213 92 369 100q13 0 12 -9q-2 -12 -18 -17
q-126 -6 -254 -54q-66 -24 -152 -63q1 -1 -1 -2t-5 -2t-4 -2l-43 -25q-9 -4 -31 -17t-41 -22t-35 -12q-9 5 -10 6q-4 17 24 42.5t84 64.5t66 47q75 58 125 99t112 102.5t101 117.5q84 119 68 186q-12 49 -71 38q-75 -13 -175 -113z" />
    <glyph glyph-name="three" unicode="3" horiz-adv-x="487" 
d="M270 1092q-15 -8 -17 3q-2 9 9 17q8 5 31.5 19.5t34.5 19.5q81 29 114 18.5t24 -52.5t-58 -107q-21 -27 -81.5 -81.5t-80.5 -78.5q-5 -6 -10 -20.5t-7 -18.5q16 -16 51 -24.5t66.5 -11t59.5 -17t34 -43.5q22 -103 -324 -330q-3 -2 -5 -3.5t-4.5 -3t-4.5 -3t-4 -2.5
q-1 -1 -14.5 -9t-26 -15.5t-31.5 -18.5t-35.5 -19.5t-33 -16.5t-29.5 -12t-20 -3l-47 8l-11 4l5 63q3 14 13.5 19.5t16.5 -4.5l-4 -58q3 -1 9.5 -3t12.5 -3t11 0q72 16 263.5 149.5t221.5 194.5q19 45 9.5 63.5t-42 27.5t-67 10.5t-65 12.5t-35.5 34q-3 13 5.5 33t18.5 30
q93 87 101 95q179 180 90 192q-32 5 -86 -21q-18 -10 -58 -34z" />
    <glyph glyph-name="four" unicode="4" horiz-adv-x="407" 
d="M592 1243q13 19 24 11q5 -6 2 -15q-28 -57 -71.5 -125.5t-110 -167t-96.5 -143.5q3 1 15.5 6.5t17.5 9.5q15 6 18.5 -2.5t-10.5 -17.5q-36 -21 -64 -31q-84 -131 -134 -225t-62 -166q-1 -21 -1 -28.5t2 -28.5t3 -29q0 -7 -6 -13t-12.5 -6.5t-10.5 4.5q-1 9 -4 32
t-2.5 31.5t4.5 33.5q49 152 201 387q-149 -55 -209 -31q-47 18 -18 84q17 37 45.5 73t84 92t62.5 64q13 13 22 6q8 -6 -3 -18q-2 -2 -36.5 -37t-54 -56.5t-48 -55t-41.5 -58.5t-11 -41q2 -23 25 -31.5t58.5 -2.5t71 17t72.5 26q11 17 70 106t81 124t60.5 101t65.5 121z" />
    <glyph glyph-name="five" unicode="5" horiz-adv-x="505" 
d="M287 940q11 12 20 6.5t-4 -18.5q-17 -17 -61.5 -54.5t-71.5 -68t-39 -66.5q34 -8 81.5 -0.5t89.5 20.5t80.5 8t55.5 -38q9 -16 -23 -60.5t-53 -62.5q-273 -252 -372 -207q-4 9 5.5 18.5t18.5 6.5q43 -19 132 35t165.5 131.5t96.5 126.5q-13 23 -51.5 24.5t-82.5 -10.5
t-92 -17.5t-80 3.5v12q10 31 36 65.5t46.5 54.5t58 52t44.5 39zM158 913q-14 -3 -14 8q2 12 14 17q29 8 83 25.5t94 30t93 26.5t93.5 20t81.5 5t69 -13q6 -10 -2.5 -18.5t-20.5 -5.5q-30 13 -68.5 12.5t-65 -7t-77.5 -22.5t-73 -22h8q-128 -31 -215 -56zM383 973
q-2 -1 -5.5 -2t-4.5 -2l11 4h-1z" />
    <glyph glyph-name="six" unicode="6" horiz-adv-x="430" 
d="M475 1284q17 7 18 -3.5t-14 -18.5q-71 -36 -148 -116t-138.5 -174t-108.5 -186t-68 -161q-9 -27 -13 -54t-3 -56t16 -48t43 -21q74 -5 169 86q77 74 101 141q22 62 -30 62q-42 1 -125 -43q-23 -12 -115 -69q-17 -8 -18 3q-1 9 10 17q14 8 38.5 25t44.5 29.5t38 19.5
q179 72 195 5q12 -49 -64 -142q-76 -94 -165 -138q-37 -19 -68 -22q-41 -4 -64.5 15t-29 52t-1.5 67.5t15 70.5q22 73 70.5 168.5t112.5 191.5t145 178.5t157 120.5z" />
    <glyph glyph-name="seven" unicode="7" horiz-adv-x="385" 
d="M174 1067q2 14 12.5 19t18.5 -5q7 -22 51.5 -24.5t95.5 7t110 20t81 10.5q17 0 10 -17q-8 -20 -17.5 -39t-25 -40t-25.5 -34.5t-31.5 -37t-30 -32.5t-35 -36t-32.5 -33q-41 -43 -126.5 -128.5t-137 -138.5t-115.5 -131.5t-106 -150.5q-9 -10 -18 -8t-9 13q44 72 109 152
t117 133.5t139 140.5t129 131l40.5 40.5t46 48t36 41.5t38.5 51.5t23 47.5q-12 -2 -64 -13t-89.5 -16.5t-83.5 -9t-75 6t-36 32.5z" />
    <glyph glyph-name="eight" unicode="8" horiz-adv-x="378" 
d="M309 850q9 3 13.5 0.5t3.5 -9t-9 -12.5q-39 -19 -88 -61q44 -32 54 -57q5 -13 14 -47q17 -48 -39.5 -117t-138 -116.5t-135.5 -43.5q-21 1 -31.5 10.5t-9.5 25.5t6 32.5t16.5 37t20.5 35t20 29.5q93 125 178 201q-3 2 -16.5 12.5t-17.5 13.5t-15 12.5t-14.5 14.5t-11 14
t-9 16t-3.5 17t-0.5 20t5.5 21q15 42 85.5 90.5t145.5 77.5t109 25q7 -1 13 -4.5t11.5 -9t8.5 -7.5q4 -7 2 -16q-14 -34 -17.5 -43t-12.5 -23t-15 -19t-28 -29t-48 -54q-11 -8 -18 -4t0 16q89 101 108 152q-25 18 -97 -4.5t-139 -66.5t-79 -81q-7 -24 5 -47.5t28 -36.5
t47 -35q64 53 98 70zM268 651q-2 46 -65 94q-78 -72 -145 -160.5t-87 -150.5q1 -1 8.5 -10.5t14.5 -9.5q52 2 117 37t112 91t45 109z" />
    <glyph glyph-name="nine" unicode="9" horiz-adv-x="423" 
d="M558 1128l4 -8l2 2q10 4 15 -0.5t0 -13.5q-7 -21 -24 -46.5t-46 -62.5t-35 -45q-13 -18 -61 -82t-65 -88t-57 -82t-57 -89t-44.5 -83.5t-39.5 -90.5t-22 -85t-10 -90q0 -11 -11.5 -17t-17.5 3q0 40 5.5 79.5t22 85t27.5 76.5t42 83.5t43.5 75.5t55 82.5t52.5 74
t60.5 81.5t56.5 75q8 11 37 49.5t43 60.5q-15 -11 -40 -31t-45.5 -35.5t-39.5 -29.5q-81 -60 -162 -113q-76 -48 -128 -46q-56 3 -28 77q18 45 105.5 110.5t184 111t140.5 40.5q8 -1 14 -5.5t12.5 -12.5t10.5 -11zM126 846q51 9 110 40t99 60t106.5 82t94.5 74v2
q-3 3 -8.5 9t-11 10t-11.5 5q-42 12 -132.5 -35t-170.5 -115t-97 -114z" />
    <glyph glyph-name="colon" unicode=":" horiz-adv-x="217" 
d="M164 780q26 15 31 -7q5 -23 -16 -41q-7 -6 -15 -9q-27 -9 -34 13t15 37q8 5 19 7zM43 479q-3 3 0 6q-13 0 -10 13q14 38 39 34q18 -3 19 -20q0 -22 -34 -37q-10 0 -14 4z" />
    <glyph glyph-name="semicolon" unicode=";" horiz-adv-x="243" 
d="M47 510q13 19 24 11q6 -4 1 -15q-19 -43 -54 -84.5t-65.5 -68t-85.5 -68.5q-12 -9 -19 -2.5t5 18.5q50 38 80 63.5t63.5 65.5t50.5 80zM156 750q4 4 14 4q6 2 14 -6q9 -19 -16 -37q-3 -3 -12 -6q-18 3 -18 16.5t18 28.5z" />
    <glyph glyph-name="less" unicode="&#x3c;" horiz-adv-x="352" 
d="M326 811q16 8 16 -5q1 -11 -12 -18q-5 -3 -81.5 -36.5t-129.5 -66t-51 -56.5q2 -10 5.5 -16.5t8.5 -12t8 -10.5q35 -57 70 -76q6 -10 -3 -19t-22 -6q-15 9 -26.5 21.5t-26 33t-19.5 27.5q-16 23 -16.5 46t11 41.5t33 36.5t47 32t55 27.5t54 23t47 19t32.5 14.5z" />
    <glyph glyph-name="equal" unicode="=" horiz-adv-x="407" 
d="M98 627q-12 3 -6 16q7 9 19 10q36 0 107 5.5t106 5.5q13 0 13 -11q-1 -11 -18 -16q-36 0 -110 -5t-111 -5zM76 551q-13 4 -6 17q6 9 18 10q31 0 94 4t92 4q13 0 12 -11t-18 -16q-30 0 -95 -4t-97 -4z" />
    <glyph glyph-name="greater" unicode="&#x3e;" horiz-adv-x="423" 
d="M184 713q-12 3 -6 16q7 9 19 10q12 -2 23 -5t24 -9t19 -9t22.5 -12.5t19.5 -11.5q125 -71 -3 -155q-91 -60 -245 -96q-26 -6 -47 -9q-9 3 -7.5 13t13.5 14q217 33 322 143q0 37 -61 73t-93 38z" />
    <glyph glyph-name="question" unicode="?" horiz-adv-x="479" 
d="M275 1110q-10 -4 -15 -2t-4 9t9 13q6 5 23 17.5t24 17t20.5 12.5t25.5 13t26 8q36 9 75 13.5t82.5 2.5t66.5 -24t12 -64q-18 -67 -72.5 -125t-113.5 -93.5t-136 -83t-119 -85.5q-17 -15 -27.5 -25.5t-19 -23t-12.5 -19.5t-14 -25.5t-17 -31.5q-9 -10 -18 -8.5t-9 12.5
q37 67 92.5 120.5t112 89t111.5 68t106 75.5t82 94q63 102 -15 122q-66 17 -179 -26q-58 -23 -97 -51zM26 502q11 18 21 11q7 -4 3 -15l-10 -17q-7 -18 -20 -14q-8 2 -7 12q1 4 6.5 12t6.5 11z" />
    <glyph glyph-name="at" unicode="@" horiz-adv-x="505" 
d="M313 727q6 -11 -2.5 -19.5t-21.5 -5.5q-24 17 -86 -12.5t-80 -62.5q25 -5 50.5 4.5t43.5 22.5t36 21.5t33.5 -1t28.5 -43.5l7 -4q53 0 112 66t61 124q1 54 -59 64q-50 7 -129 -21q-167 -57 -256 -165q-71 -87 -51 -155q22 -72 140 -76q48 -2 108 9q13 0 12 -11t-18 -16
q-7 -1 -28 -5t-30.5 -5t-26 -2.5t-29.5 0t-26 4.5q-143 39 -133 142q8 88 118 184q114 100 246 133q65 16 118 10q78 -9 72 -83q-5 -69 -70 -143q-69 -79 -138 -83q-20 0 -32.5 25.5t-18.5 29.5q-26 -8 -50.5 -23t-35.5 -23t-35 -12t-49 9q-2 4 -2 12q8 32 54 66.5t92.5 47
t74.5 -2.5z" />
    <glyph glyph-name="A" unicode="A" horiz-adv-x="1003" 
d="M-293 254q-15 -7 -18.5 2t8.5 18q304 187 688 275q56 60 86 94q266 301 473 508q17 17 80 82.5t101.5 103t93.5 83.5t94 67q9 4 13.5 2t2.5 -10q0 -4 -97.5 -144.5t-107.5 -154.5q-218 -342 -333 -570q168 14 219 15q13 0 12 -11t-18 -16q-188 -10 -228 -14
q-215 -424 -123 -561q-2 -11 -13 -17.5t-17 2.5q-17 33 -18 84.5t6.5 96.5t23.5 98.5t24 76t17 44.5q53 122 80 174q-175 -15 -359 -56q-147 -166 -209 -274q-7 -10 -16.5 -8.5t-7.5 12.5q66 115 194 260q-362 -83 -651 -262zM489 631l-67 -74q158 33 348 53
q105 203 229 412q2 3 56.5 93t109 175.5t92.5 134.5q-46 -35 -97 -84t-115 -116.5t-82 -85.5q-205 -207 -474 -508zM1305 1475q0 2 -2 2z" />
    <glyph glyph-name="B" unicode="B" horiz-adv-x="636" 
d="M-8 846q-12 -9 -19.5 -2.5t4.5 18.5q237 191 551 295q165 311 224 445q6 8 12.5 10t10.5 -1.5t3 -11.5q-61 -140 -215 -430q135 43 291 72q127 24 216 13q107 -12 65 -83q-16 -27 -42.5 -53t-69.5 -52.5t-66 -39.5t-78 -40.5t-60 -29.5q-44 -23 -222 -100.5t-267 -134.5
l-25 -47q22 0 70.5 3.5t76.5 4.5t59.5 -5t45.5 -22q5 -7 0 -16q-34 -54 -119.5 -86.5t-210.5 -60.5q-34 -86 -43 -173q-1 -15 2 -30t8 -34t7 -30q2 -9 -10 -17t-19 -1q-1 8 -8 34.5t-7 35.5t3 38q11 51 49 172q-93 -17 -119 -28q-20 -9 -43.5 -11t-34.5 9q0 10 7 16t14 4
q-1 4 10 5t23.5 0t21.5 1l102 25l29 6q16 46 55 133q-35 0 -47 4q-4 2 -4 13q4 25 90 73q67 145 199 391q-295 -100 -520 -282zM403 864q-4 -8 -24 -46t-31 -60l37 18q59 30 261 123t308 154l14 8q13 8 23 14t27.5 17.5t30 21t27 22t23.5 23t14 21.5t3 20q-5 25 -63 30
t-110.5 -1t-94.5 -15q-166 -31 -301 -75q-4 -8 -60.5 -114t-83.5 -161zM295 647q-46 -99 -57 -127q260 64 290 117q-12 16 -46 19t-101 -3t-86 -6zM262 674q3 0 11 -1t12 -1q9 21 12 26z" />
    <glyph glyph-name="C" unicode="C" horiz-adv-x="520" 
d="M936 1298q-8 -12 -20 -7q-9 4 -1 16q17 24 25 36.5t14.5 32.5t1.5 35q-8 24 -31.5 31t-56 -1.5t-68 -23t-73.5 -36.5t-65 -39t-50 -33q-181 -128 -325.5 -309.5t-206.5 -364.5q-9 -28 -16.5 -56.5t-14.5 -64.5t-7 -65.5t5.5 -59.5t22 -46t43.5 -24t69 5q26 7 75 29.5
t52 23.5q18 8 18 -5q0 -11 -14 -18q-6 -3 -40 -19t-54.5 -24t-50.5 -17.5t-52 -8.5t-36 12q-45 39 -58.5 95.5t-4 111.5t35.5 133q63 188 213.5 374t339.5 320q130 91 221 121q72 24 115.5 11.5t42.5 -55.5t-49 -110z" />
    <glyph glyph-name="D" unicode="D" horiz-adv-x="745" 
d="M75 680q7 -10 -2 -19t-21 -6q-26 30 -29.5 65t14.5 70.5t45 70t71 70t83 65t89 60t82 49t69 38.5q48 27 123 49q57 89 82 158q13 18 24 11q7 -4 3 -15q-29 -74 -74 -144l24 6q5 1 28.5 7t28.5 7t28.5 6t27.5 4.5t27 2.5t26 0q24 -2 45 -0.5t44.5 -0.5t37.5 -11l70 -49
q39 -29 -1 -111t-85 -121q-20 -18 -58.5 -53.5t-71 -63.5t-63.5 -51q-172 -126 -331 -223q-116 -73 -236 -139q-4 -12 -4 -15q-2 -18 -1 -25.5t5.5 -23.5t5.5 -24q-2 -11 -13 -17.5t-17 2.5q1 5 -4.5 35t-4.5 45v6q-84 -44 -200 -94q-14 -3 -14 8q2 12 14 17q93 38 204 96
q24 94 93 214t187 291.5t159 237.5q-220 -79 -377 -217q-36 -31 -59.5 -52.5t-50 -53t-37 -56.5t-9 -53.5t22.5 -52.5zM617 1176q-45 -76 -154.5 -234t-182 -281t-99.5 -221q155 82 308.5 179.5t244.5 175.5q124 105 166 147q198 203 29 256q-125 37 -312 -22z" />
    <glyph glyph-name="E" unicode="E" horiz-adv-x="569" 
d="M788 1276q-7 -10 -16.5 -8.5t-7.5 12.5l20 41q-64 2 -184.5 -57.5t-224.5 -130t-174 -129.5q-13 -10 -29 -24.5t-39 -37.5t-40 -44.5t-32 -46t-14 -41.5t14 -32q29 -17 67 -16t98.5 16.5t112 32.5t107.5 33.5t86 19.5q16 0 11 -16q-9 -13 -25 -27t-28.5 -22.5t-34 -23
t-31.5 -21.5q-4 -3 -59.5 -41.5t-83.5 -59t-85 -63t-92 -72t-75 -65.5t-62 -65t-28 -50q37 -13 107 8.5t167 74t154.5 86.5t145.5 89q22 14 32 20q15 6 18.5 -2.5t-10.5 -17.5q-87 -54 -137 -84.5t-155 -90t-182.5 -90t-123.5 -30.5q-9 0 -26 6.5t-19 7.5q-2 2 -2 13
q8 31 41.5 73t74 79.5t103.5 86.5t104.5 79t105.5 74.5t79 55.5q6 4 36.5 23.5t45.5 31.5q-34 -7 -90.5 -24.5t-106.5 -32.5t-102.5 -27.5t-95.5 -11.5t-68 19q-16 12 -20 29.5t6.5 40.5t21.5 42t35.5 46t37 40.5t37.5 37.5t27 26q104 103 314 218t319 114q13 -3 6 -17z" />
    <glyph glyph-name="F" unicode="F" horiz-adv-x="548" 
d="M641 1253q13 18 24 11q7 -4 3 -15l-35 -67q124 48 311 96q5 1 16 5q371 104 389 12q3 -15 -3 -35q-5 -17 -19 -15q-9 1 -8 12l10 27q-9 12 -24 19t-35.5 8t-39.5 0.5t-46.5 -5.5t-45 -8.5t-45.5 -10.5t-38 -9q-211 -47 -443 -131q-17 -32 -196 -338q184 46 205 8
q-2 -11 -13.5 -17t-17.5 3q-12 20 -193 -27q-87 -155 -127 -241q19 -57 23.5 -115.5t-14.5 -111.5t-64 -72h-12q-14 14 -23 29t-14 27t-2.5 31.5t4 31t12 36.5t16.5 37.5t22 46t24 49.5v4q-45 148 -205 162q-20 1 -84 -3.5t-114.5 -1.5t-71.5 20v12q8 16 23 33.5t37.5 35
t42.5 32t50 32t47 27t46.5 25t35.5 18.5q275 148 551 251zM248 731q-13 -3 -13 8q1 8 9 15q53 24 145 47q11 20 83.5 143.5t107.5 190.5q-207 -79 -451 -199q-1 -1 -25.5 -13.5t-37.5 -19.5t-42.5 -23t-49 -27t-47 -27t-46.5 -29t-38.5 -26.5t-31 -25t-16.5 -20.5
q29 -10 101 -10h39h40.5t36 -0.5t37.5 -2t33.5 -4.5t34 -7t29.5 -10.5t30.5 -14.5t25 -19t25.5 -24q20 -28 33 -66q52 102 111 201q-71 -17 -123 -37zM258 420l-6 67q-39 -89 -59 -194l28 -31q8 4 12 4q33 57 25 154z" />
    <glyph glyph-name="G" unicode="G" horiz-adv-x="872" 
d="M993 1274q6 -10 -2 -19t-20 -6q-11 7 -28.5 23t-34 26t-36.5 11q-71 6 -169.5 -49t-194 -142t-187.5 -190t-160 -195t-102 -155q-24 -45 -38.5 -78t-24.5 -70t-7.5 -70.5t17.5 -64.5q16 -30 47.5 -34t74.5 18t85 50t94 74t85 77t74.5 72t47.5 46q24 32 96.5 93.5
t81.5 19.5q7 -34 -82 -207q-3 -5 -26 -45q153 82 176 44q5 -9 2 -26q-5 -17 -19 -14q-9 1 -8 12q2 10 -4 12q-61 0 -166 -59q-107 -176 -338 -453l-9 -11q-9 -10 -22 -24.5t-31.5 -34t-37 -38t-39 -36t-38 -28.5t-32.5 -16t-24 2q-22 14 -14 55t23 75.5t30 57.5
q179 260 454 426l56 31q81 137 119 260q-52 -38 -107 -88t-117 -111t-102 -96q-25 -22 -51.5 -43t-65 -48.5t-73 -44.5t-68.5 -26.5t-59.5 0t-38.5 39.5q-1 4 -4.5 21.5t-4.5 28t0.5 36t7.5 52t20 71t36 97.5q28 67 97.5 166.5t166 204.5t199.5 195t208 143.5t181 45.5
q21 -3 39 -13.5t36.5 -26.5t30.5 -23zM410 242q49 66 110 159q-112 -68 -228.5 -168.5t-174.5 -173.5q-43 -54 -85 -148q-46 -100 -13 -96q26 3 96 72q39 36 92 97q127 147 203 258z" />
    <glyph glyph-name="H" unicode="H" horiz-adv-x="1042" 
d="M571 1298q3 14 17 17q11 2 10 -8v-2q-12 -84 -47 -177t-68.5 -156.5t-95 -172.5t-90.5 -166q-2 -2 -4 -7t-4 -8l16 -12q212 82 424 211t395 281l37 51q51 72 163.5 198t154.5 126q16 0 10 -17q-20 -43 -55.5 -88.5t-65.5 -75.5t-82 -78q-68 -65 -139 -127
q-443 -633 -352 -1036q-2 -11 -13.5 -17t-17.5 3q-84 388 315 995q-363 -293 -755 -444q22 -28 28 -56q9 -36 12.5 -53t2.5 -54.5t-15 -62.5q-55 -103 -121 -131q-54 -23 -76 19q-23 41 5 127q26 75 76 178q-40 -15 -76 -25.5t-59 -16t-71 -16.5t-85 -20q-118 -28 -118 3
q0 2 1 5q8 31 68 68t100 51l131 45q74 23 145 -20q22 42 71.5 130t76.5 140.5t62 126.5t56.5 141t32.5 131zM285 573l-23 -10q-59 -117 -74 -184q-24 -116 19 -127q31 -9 73 41q56 68 57 152q0 39 -13 73q-22 45 -33 57zM250 584q4 12 8 16q-18 12 -45 18q-41 12 -92 3
q-49 -8 -152.5 -56t-111.5 -71q60 -22 393 90zM1452 1436q-40 -26 -117.5 -113t-134.5 -160l96 88q44 44 61.5 62t47.5 54.5t47 68.5z" />
    <glyph glyph-name="I" unicode="I" horiz-adv-x="311" 
d="M-20 287q-9 3 -7.5 12.5t13.5 13.5q3 1 67 21q6 54 22.5 116t48 138.5t55.5 132t73 148t69.5 131.5t76.5 138.5t65 116.5q0 5 2 5q-20 -7 -68 -31q-9 -2 -12.5 1.5t-1 9.5t9.5 11q164 82 209 29q6 -10 -2 -19t-20 -6q-27 31 -97 11q8 -4 4 -15q-9 -16 -54 -98
t-63.5 -115.5t-61.5 -115.5t-65 -128t-55 -119t-50.5 -123t-33 -106t-20.5 -100q62 21 98 4q6 -10 -2.5 -18.5t-21.5 -5.5q-10 9 -33.5 5t-42 -11.5t-49 -18t-53.5 -14.5z" />
    <glyph glyph-name="J" unicode="J" horiz-adv-x="811" 
d="M205 1053q-4 10 5.5 18.5t18.5 5.5q30 -24 69 -25.5t87 11.5q73 11 243.5 63t252.5 109q21 30 51 51q12 7 16.5 3t1.5 -15q-19 -31 -53 -55q-16 -28 -27 -50q-39 -91 -103 -261.5t-95 -245.5q-2 -7 -9 -21.5t-8 -17.5q45 -5 97 -37q6 -12 -4 -20t-21 -3q-3 2 -20 16.5
t-29 16.5l-33 6q-55 -106 -113 -182q-25 -31 -42.5 -52t-42.5 -43t-34 -29.5t-48.5 -38t-55.5 -42.5q-130 -99 -251 -85q-86 10 -119 70q-38 68 19 148q53 74 177 131q15 7 50.5 23.5t46 21.5t37 16.5t40 16.5t36.5 13t45.5 14.5t49.5 13.5q120 32 189 29q30 60 56.5 129
t55.5 153.5t47 130.5q41 107 64 150q-60 -31 -127 -51q-198 -75 -284 -95q-175 -42 -236 9zM584 543l34 61q-100 3 -232.5 -40.5t-244.5 -106.5q-117 -64 -167 -148q-50 -82 4 -125q23 -19 67 -26q57 -10 123 10.5t125.5 61t116.5 94.5t100.5 110t73.5 109z" />
    <glyph glyph-name="K" unicode="K" horiz-adv-x="800" 
d="M1327 1341q13 13 22 6q8 -6 -3 -18q-209 -219 -615 -452q-213 -121 -436 -224q-66 -30 -94 -41q60 -7 90 -20q124 -51 211.5 -134t173.5 -210q6 -10 -3.5 -19t-21.5 -6q-43 63 -73.5 103t-81 94t-98 86t-114 56.5t-139.5 27.5l-6 -4q-102 -169 -157 -322q-5 -17 -19 -14
q-9 1 -8 12q43 123 147 309q-67 -26 -98 -36q-94 -36 -143 -52q-78 -34 -111 -26q-19 5 -10 28q8 25 53 50q106 54 252 75q46 4 84 4q63 106 182.5 288.5t159.5 248.5q13 20 36 56t33 52t24 45t26 62q13 19 24 11q5 -6 2 -15q-9 -26 -22.5 -53.5t-32.5 -60t-31.5 -53
t-37.5 -60t-33 -52.5q-45 -73 -148.5 -228t-152.5 -237q794 332 1169 723zM-236 483q43 -11 320 105l-41 -4q-28 0 -142 -32.5t-137 -68.5z" />
    <glyph glyph-name="L" unicode="L" horiz-adv-x="557" 
d="M444 1477q13 18 23 11q6 -4 2 -15q-45 -92 -139.5 -239t-175 -267t-152 -257.5t-88.5 -232.5q-10 -58 0 -99t37 -62.5t64 -31.5t85.5 -6t97 13t103 27t99 34.5t89.5 36.5q15 7 17 -3.5t-12 -18.5q-149 -64 -258 -95q-56 -16 -132 -20q-266 -9 -211 236q39 174 265 518
q20 30 57 87q50 74 68 103q19 30 40.5 62.5t30 46.5t16.5 26t15.5 27.5t12 23t20.5 41t26 54.5z" />
    <glyph glyph-name="M" unicode="M" horiz-adv-x="974" 
d="M-100 301q-10 -4 -15.5 -1.5t-4 9.5t10.5 13q65 47 148 143t169.5 218.5t149.5 217.5t130 200q16 26 24 38l14 22q20 100 35 156q32 152 78 235q54 94 74 59q17 -29 2 -97q-2 -8 -4 -15q-3 -14 -13 -40.5t-12 -33.5q-20 -57 -72 -155q-32 -62 -67 -117q-44 -250 35 -377
q49 56 149 151t137 134q8 8 121.5 134t192.5 205t127 107q10 4 14.5 -0.5t1.5 -13.5q-23 -56 -55 -112t-88 -144t-70 -111q-18 -29 -71 -114t-78.5 -128t-70.5 -122t-69 -132.5t-51 -121t-38.5 -126.5t-10.5 -112q-2 -11 -13.5 -17t-17.5 3q4 76 28 162t57 163t83 168.5
t93 163t100 163.5q25 39 37 59q9 15 59 91.5t84 133.5t51 98q-82 -75 -222 -225.5t-202 -210.5q-22 -21 -83 -78.5t-103.5 -100.5t-77.5 -85l4 -4q7 -10 -1.5 -19t-20.5 -6q-5 3 -9 10q-6 0 -6 9q-82 117 -47 352l-33 -51q-123 -199 -237 -353q-21 -30 -63.5 -90.5
t-62 -86.5t-55.5 -69t-75 -77.5t-90 -71.5zM598 1362q-27 -96 -35 -133q54 102 107 230t28 128q-21 -8 -45 -61.5t-35.5 -92t-19.5 -71.5zM502 1120q7 11 10 19q-8 -16 -10 -19z" />
    <glyph glyph-name="N" unicode="N" horiz-adv-x="749" 
d="M-25 504q28 61 112.5 218t142 284.5t75.5 224.5q-6 -5 -11.5 -2t-4.5 12q16 29 39 37q7 0 12 -8q-4 -81 -65 -222.5t-160 -327t-115 -220.5q-4 -10 -19.5 -43t-22.5 -50t-15.5 -43.5t-10.5 -46.5q55 56 106.5 126t111.5 162.5t90 133.5q140 188 219 273q23 24 38 39.5
t34 32t26.5 23t37 30t42.5 34.5q85 67 141 89q91 38 83 -48q-10 -93 -134 -323l-8 -15l-62 -129q-32 -69 -51 -118q-26 -71 -29 -93.5t1 -82.5q-2 -11 -13.5 -17.5t-17.5 2.5q0 69 24.5 152.5t47 132.5t75.5 158q9 19 30.5 61t31.5 64q5 12 15.5 34.5t18.5 40.5t13 35
q57 142 -9 129t-231 -162q-33 -29 -66 -63t-58 -61t-59.5 -70.5t-52 -65.5t-54.5 -73t-48.5 -67.5t-51.5 -74.5t-48 -69q-92 -138 -135 -190q-57 -68 -78 -64q-9 5 -10 6q2 15 4.5 29.5t8 32.5t8.5 28t12.5 32.5t11.5 28t14.5 33.5t13.5 31z" />
    <glyph glyph-name="O" unicode="O" horiz-adv-x="636" 
d="M61 326q-29 0 -39.5 23.5t-3 62.5t20 77t31.5 80q-42 39 -45 80q-9 49 -9 81t17 89q21 70 75 167t125.5 192.5t161.5 169.5t170 90q77 16 120.5 3t57 -50t15.5 -91t-4 -120q-3 -102 -92 -291.5t-216 -339.5q87 24 168 74q8 0 11 -4t0.5 -10t-11.5 -11q-76 -73 -208 -96
q-65 -69 -127 -113q-38 -24 -70.5 -39t-57 -20t-39 -6t-32 0.5t-19.5 1.5zM338 942q6 -10 -2.5 -18.5t-20.5 -5.5q-31 -22 -97 -123t-114 -205q51 -44 136 -56.5t174 7.5q6 6 15.5 19t14.5 18q84 103 156 236.5t112 274t21 234.5q-11 57 -57 81t-115 7q-87 -18 -190 -112
t-179.5 -211t-118.5 -237t-20 -185q8 -29 33 -58l23 45q15 25 45.5 78.5t46.5 80t39.5 61t43.5 52t40 23.5q8 0 10 -2zM373 498q-82 -9 -158 6.5t-127 50.5q-75 -179 -12 -203q59 -24 138.5 21.5t158.5 124.5z" />
    <glyph glyph-name="P" unicode="P" horiz-adv-x="591" 
d="M72 1161q-11 -13 -22 -7q-7 4 -1 15q67 120 273 222q204 101 414 123q215 24 293 -57q52 -53 28 -148q-19 -81 -90.5 -168t-167.5 -160.5t-210 -141t-215 -115t-186 -77.5q-116 -182 -137 -291q-5 -2 -3 -38l3 -37q0 -11 -11 -17.5t-17 2.5q0 10 -2 27t-2 31t4 28
q40 117 135 285q-76 -24 -99 -21q-9 3 -7 13t14 14q39 3 104 21q16 28 165 266t208 366q14 19 23 10q4 -4 1 -14q-30 -65 -72.5 -141t-73 -127t-88 -142.5t-81.5 -131.5l-49 -76q138 47 297.5 140.5t281.5 186.5q35 25 68.5 55t67 65t58.5 72t41 73.5t15 72.5t-20 66
q-47 72 -173.5 84.5t-269.5 -25.5t-283.5 -120t-213.5 -183z" />
    <glyph glyph-name="Q" unicode="Q" horiz-adv-x="550" 
d="M301 1018q13 9 19 2t-5 -19q-12 -13 -47.5 -45t-52.5 -53q-89 -103 -150.5 -240.5t-41.5 -226.5q3 -9 16 -21t16 -16q7 2 25.5 4.5t30.5 6t22 8.5q41 22 98 69q21 144 100 319t158 290q12 17 41 56t77.5 99t97.5 101.5t77 40.5q17 -1 25.5 -13t7.5 -32t-6 -43.5t-16 -52
t-21.5 -53t-23.5 -50.5t-20.5 -40t-14.5 -26q-193 -379 -426 -575l-25 -21q-32 -245 150 -256q13 -2 4 -15q-7 -8 -17 -11q-191 11 -170 250q-54 -51 -94 -62q-7 -2 -27.5 -8.5t-35 -10t-27.5 -3.5q-35 0 -47 33.5t-4 83t19.5 90t23.5 69.5q14 36 65 135q14 30 30 55
t38.5 50.5t37 40.5t47 45.5t46.5 44.5zM514 1087q-72 -102 -147 -266.5t-99 -302.5q114 102 212 238.5t167 255.5q49 84 109 222t14 132q-26 -3 -66.5 -41t-82 -91.5t-66.5 -88t-41 -58.5z" />
    <glyph glyph-name="R" unicode="R" horiz-adv-x="667" 
d="M73 1069q-4 -13 -18 -15q-9 -1 -9 7v2q13 92 76 167.5t148.5 121t189.5 71.5q86 26 167.5 38t165.5 4.5t136 -42.5q52 -33 69.5 -87t0 -120t-82.5 -146t-170 -159q-82 -62 -103.5 -78t-53.5 -37t-41 -24t-59.5 -29t-114.5 -61q-53 -28 -135 -61q30 -20 74.5 -73t66.5 -71
q67 -52 122 -69.5t163 -20.5q15 -2 5 -16q-7 -8 -16 -11q-108 3 -186.5 32t-142.5 91q-13 13 -36.5 41t-44 48.5t-44.5 33.5l-13 -4q-7 -2 -18 -5.5t-19.5 -6t-15.5 -4.5q-94 -182 -129 -305q-5 -17 -19 -14q-9 1 -8 12q33 116 123 299q-24 -7 -59 -15q-80 -21 -102 6
q-17 21 14 47q37 32 110 37q41 3 78 0q53 99 158.5 278.5t144.5 252.5q13 18 23 11q6 -4 2 -15q-44 -83 -149.5 -262.5t-153.5 -266.5q34 -9 47 -14q60 21 147 63q217 106 377 232q93 75 142 131q128 145 96 250q-16 55 -72 88.5t-134 40t-169 -4t-180.5 -44.5t-164 -79
t-125 -109.5t-58.5 -135.5zM-38 594q70 -5 156 14l10 19q-53 5 -102.5 -2t-63.5 -31zM153 623q0 -1 -2.5 -4t-2.5 -5l19 7q-2 0 -7 1t-7 1z" />
    <glyph glyph-name="S" unicode="S" horiz-adv-x="903" 
d="M1106 1288q0 -11 -11.5 -17t-17.5 3q-11 43 -26.5 70.5t-34 38.5t-32.5 14t-32 2q-100 -1 -250 -58t-294 -142.5t-258 -202t-138 -224.5q-13 -56 21 -92t99 -52.5t134 -27t141 -25.5t107 -38q222 79 379 98q13 0 13 -11t-17 -16q-131 -15 -352 -90q12 -16 16 -26
q13 -44 -2 -85.5t-52.5 -75t-83.5 -59.5t-102 -47q-21 -8 -51 -15.5t-66.5 -14.5t-64 -3.5t-33.5 19.5q-20 61 12.5 99t125.5 93q47 29 126 68q72 35 109 49q-14 7 -30.5 13t-36 10.5t-32 7t-35 6t-28.5 4.5q-9 2 -34 7q-24 4 -37.5 7t-41 9t-45 11.5t-43.5 14t-42.5 17.5
t-36 20t-29.5 24t-18.5 28t-8 33t8.5 38q4 57 45 121t103.5 121.5t122 102.5t120.5 83q194 122 381 188q297 104 344 -40q8 -25 8 -58zM537 426q3 50 -39 78q-147 -54 -250 -116.5t-123 -121.5q-14 -50 49 -50q79 0 201.5 62.5t153.5 121.5q7 14 8 26z" />
    <glyph glyph-name="T" unicode="T" horiz-adv-x="475" 
d="M156 1055q14 -2 5 -15q-7 -9 -18 -12q-40 6 -55 12v13q33 59 291 129q156 47 264 71q47 85 55 142q-8 4 -5.5 13t14.5 13q4 2 8 2q9 0 14 -8q-3 -64 -53 -153q329 76 563 65q116 -5 141 -7q176 -20 166 -90q-4 -28 -39 -63q-11 -8 -18 -3.5t0 16.5q84 87 -92 111
q-61 9 -168 9q-247 0 -572 -71q-5 -9 -29.5 -51.5t-35.5 -63.5q-37 -68 -102.5 -178t-112 -191t-95.5 -179t-77 -191.5t-33 -179.5q0 -7 -6 -13t-12.5 -6.5t-10.5 4.5q4 108 51.5 239t100 225.5t142 246t130.5 227.5q8 16 29.5 52t30.5 53q-141 -34 -250 -66
q-3 -1 -32.5 -9.5t-45 -13t-46.5 -14.5t-51 -18.5t-43 -20t-38 -22.5q5 -3 18.5 -3t16.5 -1z" />
    <glyph glyph-name="U" unicode="U" horiz-adv-x="675" 
d="M260 1235q2 14 12.5 19t18.5 -5q5 -22 -68.5 -186t-95.5 -203q-3 -7 -18.5 -42t-20 -45.5t-17.5 -43t-17 -46t-13.5 -43t-12 -45.5t-6.5 -41t-2.5 -42.5t5 -38t10.5 -37.5q5 0 33 -4t32 2q79 33 247 202l11 11q216 227 359 416l18 39q17 37 39 79t62 95t67 53
q9 0 11 -3.5t-1 -12.5q-61 -102 -159 -232q-25 -51 -74 -142.5t-83.5 -159t-72 -150t-59 -157.5t-25.5 -140q0 -11 -11 -17.5t-17 2.5q2 42 11 87t28.5 99t33.5 91.5t46 103.5t45.5 93t53 103t48.5 93q0 -1 -2 -3t-2 -3q-148 -188 -301 -350q-26 -26 -76.5 -72.5
t-69.5 -64.5q-122 -113 -187.5 -91.5t-47.5 148.5q8 58 76.5 221.5t131 305.5t60.5 157zM858 1268q-29 -41 -45 -70z" />
    <glyph glyph-name="V" unicode="V" horiz-adv-x="417" 
d="M344 1597q9 15 23 13q8 -1 6 -11q-11 -33 -55.5 -175t-75.5 -218q-24 -59 -69.5 -160t-77.5 -176t-64 -165t-45 -172.5t-4 -153.5l47 -6q72 46 157.5 149.5t151.5 207t146 223.5t132 180q13 13 22 6q8 -7 -3 -19q-46 -53 -102 -132t-127.5 -186.5t-92.5 -137.5
q-114 -169 -215 -275q-46 -46 -85.5 -47t-57.5 30t-10 74q3 14 7 39t8 45.5t9 38.5q25 97 63.5 199.5t100 244t84.5 197.5q24 58 45 121.5t45.5 145t36.5 120.5z" />
    <glyph glyph-name="W" unicode="W" horiz-adv-x="954" 
d="M1305 1479q13 19 24 11q5 -6 2 -15q-58 -112 -116 -209t-137.5 -220t-131.5 -208q-13 -23 -67 -112t-75 -126.5t-59.5 -108.5t-63.5 -129t-44 -116q-4 -8 -6 -10q16 0 35 16q12 9 18 2.5t-4 -18.5q-104 -88 -103 70q1 99 35 241l33 125l37 119q5 17 19 58t23 72.5
t13 57.5q-9 0 -34 -28t-49.5 -61.5t-45.5 -63.5l-22 -29q-18 -25 -65.5 -95.5t-86 -123.5t-90 -117t-105.5 -111t-104 -71h-12q-10 14 -17.5 29t-11 34.5t-6 33.5t-0.5 38.5t3 37t6.5 41t7.5 38.5t9 43t9 40q25 126 63 271t87.5 319t74.5 271q8 15 21 13q8 -2 6 -11
q-9 -35 -99.5 -364t-125.5 -499q-3 -13 -11 -51t-12 -57.5t-8 -53.5t-3 -56t7 -46.5t18 -42.5q48 22 116.5 94t116.5 137.5t113.5 159.5t75.5 107l13 19q12 18 23 34t29 40.5t35 42.5t34.5 35t34 24.5t28.5 3.5q10 0 6 -11q-14 -93 -76.5 -281.5t-77.5 -277.5
q-3 -9 -7.5 -42.5t-4 -78t11.5 -63.5q19 58 44.5 116.5t63 127.5t61 109.5t74.5 125.5t67 113q53 88 131 208.5t137 218.5t115 210z" />
    <glyph glyph-name="X" unicode="X" horiz-adv-x="1034" 
d="M18 -18q7 -10 -1.5 -19t-20.5 -6q-66 47 -81 115.5t16 145t88.5 154t138.5 152.5q9 8 68 63.5t89 82.5q0 56 5.5 114t19 150t16.5 115q0 5 4.5 39t7 64t5 67.5t0.5 68t-8 45.5q-13 4 -6 17q5 10 18 10q12 0 19.5 -8.5t11 -25t4.5 -35t-1 -43t-4.5 -45t-6.5 -45.5
t-7 -39.5t-6.5 -31.5t-3.5 -18q-4 -38 -16.5 -115.5t-20 -142.5t-8.5 -121q168 149 335.5 267t300.5 195t400 222q9 3 13.5 1t3.5 -8.5t-9 -12.5q-55 -30 -159 -84.5t-146 -77.5l19 8q-229 -134 -413.5 -260.5t-344.5 -269.5q0 -134 47 -211q38 -66 98 -90.5t126.5 -12
t139.5 51t139 92t124 116.5q14 14 22 6q6 -6 -4 -18q-83 -90 -174.5 -156t-180 -96t-162.5 -23t-126.5 67t-67.5 169q-8 54 -6 82q-62 -54 -141 -137q-52 -56 -91 -102t-79 -110.5t-54 -116.5t1 -106t69 -93z" />
    <glyph glyph-name="Y" unicode="Y" horiz-adv-x="741" 
d="M434 1382q12 9 18.5 2.5t-3.5 -18.5q-12 -11 -29.5 -44t-36.5 -74t-25 -52q-16 -30 -66.5 -120.5t-74 -135t-56.5 -116.5t-52 -132q-57 -168 12 -182q41 -8 85.5 5.5t91 48t76 61t72.5 69.5q39 38 76.5 78t80 92.5t65 80.5t74.5 95t65 84q3 3 76 95.5t96 126.5q2 4 10 8
h10q11 0 15 -6q0 -9 -70 -130t-90 -153q-14 -26 -60 -111t-66 -121.5t-63 -110.5t-73 -120.5t-72.5 -107t-83.5 -111.5q122 3 133 -100q-2 -11 -13 -17.5t-17 2.5q7 50 -27.5 71.5t-97.5 18.5l-45 -51q-3 -3 -10 -11q-264 -291 -345 -208q-27 30 17 101.5t92 97.5
q148 80 274 94q119 149 215.5 308t214.5 380l74 139q-13 -17 -57.5 -75.5t-62 -81.5t-57.5 -74t-65 -81t-61 -72.5t-69 -78t-68 -69.5q-156 -151 -266 -189q-131 -45 -140 105q-3 46 32.5 136t70.5 157t100.5 182t75.5 133q8 15 25.5 57.5t35.5 74.5t39 50zM348 319l31 37
q-66 -9 -135.5 -34t-110.5 -54q-40 -30 -76.5 -81.5t-15.5 -77.5q10 -13 28 -13.5t39.5 10.5t45.5 27.5t49.5 39t47.5 43.5t43 43.5t33.5 36t20.5 23.5z" />
    <glyph glyph-name="Z" unicode="Z" horiz-adv-x="870" 
d="M180 1122q-6 9 4 18.5t19 6.5q91 -29 227.5 -14.5t245.5 44t250 57.5t241 26q5 0 7.5 -3.5t1.5 -7.5q-2 -16 -25.5 -37.5t-60.5 -43.5t-70.5 -40t-71.5 -37t-47 -24q-7 -4 -109 -58.5t-171.5 -94t-164.5 -96.5t-153.5 -105t-73.5 -80q42 -16 106 -17.5t114 2.5t103 -11
t85 -54q6 -12 6 -29l205 88q8 0 11 -4t0.5 -9.5t-11.5 -10.5q-13 -6 -93 -39.5t-122 -52.5q-33 -59 -162 -160q-78 -62 -118 -91.5t-114.5 -80.5t-137.5 -79.5t-121 -39.5q-11 5 -11 6q4 34 21 65.5t51 61.5t58 48t69 48q170 114 436 234q0 5 2.5 14.5t3.5 12.5
q-29 35 -82.5 48t-105.5 10.5t-117 0t-106 18.5l2 13q15 34 60 77t93.5 78t127.5 82t123 71t122 65.5t86 45.5q18 10 107 58t135 74q46 22 84 57q-41 1 -84.5 -5.5t-112 -21t-88.5 -18.5q-32 -7 -114 -25.5t-122 -26.5t-111.5 -19.5t-118 -13.5t-104 2t-104.5 17zM590 473v4
q-256 -120 -412 -223q-34 -22 -53 -35.5t-53 -40.5t-52.5 -53t-21.5 -51q51 10 183 88t256 171t153 140z" />
    <glyph glyph-name="bracketleft" unicode="[" horiz-adv-x="194" 
d="M401 1206q13 -3 4 -16q-8 -10 -18 -8q-17 4 -31.5 11t-18 11t-12 -1t-16.5 -17t-28 -45l-144 -252q-15 -28 -74 -131t-88.5 -157.5t-66.5 -137.5t-53 -144q13 -4 85.5 18.5t86.5 33.5q13 9 19 2t-5 -19q-26 -23 -55 -28l-39 -9q2 -3 -2.5 -4t-12.5 -1.5t-12 -2.5
q-88 -35 -96 -6q-3 18 13.5 61.5t35.5 81t46.5 88t29.5 54.5q110 211 244 446q2 3 26.5 50.5t51.5 90.5t44 52q12 10 28.5 7t26 -7.5t20.5 -12.5z" />
    <glyph glyph-name="backslash" unicode="\" horiz-adv-x="434" 
d="M147 1030q2 14 12.5 19t16.5 -5q11 -146 17.5 -220t25 -190.5t45.5 -207.5q0 -11 -12 -17t-16 3q-12 41 -22 82t-18.5 91t-13.5 82t-11 94.5t-8.5 84.5t-8.5 95.5t-7 88.5z" />
    <glyph glyph-name="bracketright" unicode="]" horiz-adv-x="239" 
d="M231 1128q-9 3 -7 13t14 14q56 9 69 10q10 0 12 -6q-1 -45 -18 -104.5t-34 -100t-52 -116t-45 -99.5q-4 -10 -51.5 -126t-89 -203.5t-72.5 -128.5q-4 -9 -14 -11q-13 0 -32.5 11t-66.5 8q-10 3 -8.5 12.5t14.5 13.5q5 0 20 2t24.5 2.5t21 -0.5t18.5 -4l11 -14
q71 121 207 445.5t139 392.5q-11 -1 -60 -11z" />
    <glyph glyph-name="asciicircum" unicode="^" horiz-adv-x="258" 
d="M72 756q-9 -10 -18 -8.5t-7 12.5q8 15 23.5 30.5t38.5 34.5t30 25q61 61 80 -36q3 -16 7 -47t7 -38q0 -7 -6 -12.5t-12 -6t-10 4.5q-3 7 -10 40.5t-13.5 62t-9.5 28.5q-18 -9 -52.5 -40t-47.5 -50z" />
    <glyph glyph-name="underscore" unicode="_" horiz-adv-x="434" 
d="M-10 451q-11 3 -9.5 12.5t13.5 13.5q42 2 140 10t149 9q12 0 12 -9q-2 -13 -19 -18q-51 -1 -148.5 -8.5t-137.5 -9.5z" />
    <glyph glyph-name="grave" unicode="`" horiz-adv-x="221" 
d="M129 868q-6 9 4 18.5t19 6.5q19 -14 30 -52t17 -48q0 -11 -11.5 -17.5t-17.5 2.5q-6 10 -16 44.5t-25 45.5z" />
    <glyph glyph-name="a" unicode="a" horiz-adv-x="301" 
d="M159 678l-2 -4q20 10 34 10q7 0 10.5 -2t2.5 -8q-4 -18 -17 -48.5t-26.5 -57.5t-25.5 -58.5t-12.5 -50t11.5 -33.5q7 -10 -1.5 -19t-20.5 -6q-17 14 -19 38t9 52t24.5 55.5t27.5 58.5t19 50q-50 -37 -113 -90q-126 -99 -143 -67q-12 23 37 88q61 82 135 115q31 14 59 14
q8 0 11 -8v-29zM-56 522q26 3 58.5 25.5t73 59.5t58.5 50l-6 7l4 24q-43 0 -103 -57.5t-85 -108.5z" />
    <glyph glyph-name="b" unicode="b" horiz-adv-x="296" 
d="M0 612l-2 -2l-8 -22l59 71q34 41 67 62t53 16.5t30 -22t0 -53.5t-39 -78q-47 -69 -195 -154q-11 -5 -14 -2q-4 -44 -2 -63q0 -11 -11.5 -17.5t-17.5 2.5q-5 115 55 262v4q17 35 97 154q-53 -103 -74 -160q-5 -6 -10 -7t-8.5 1.5t-4.5 7.5q15 36 36 78.5t36 72.5t41.5 80
t38.5 72q14 25 54.5 100.5t61 113t55.5 96.5t67 106q13 11 20 6q7 -6 10.5 -12.5t3.5 -15.5t-0.5 -16t-4.5 -19.5t-7 -20t-10 -24t-10 -25.5q-61 -151 -154 -270q-42 -57 -115 -166t-98 -156zM-27 530l-4 -2q-9 -34 -16 -79l4 2q20 11 38 22t42 27t43.5 31.5t40 34
t33.5 36.5t21.5 36.5t7 37t-12.5 35.5q-25 -5 -48 -18t-44.5 -35t-36 -39t-36.5 -46.5t-32 -42.5zM219 1034q-22 -42 -72.5 -130.5t-74.5 -133.5q70 101 127 170q67 87 114 193t41 139q-21 -32 -43 -70.5t-53 -96t-39 -71.5z" />
    <glyph glyph-name="c" unicode="c" horiz-adv-x="256" 
d="M178 702q0 -11 -11 -17t-17 3q-23 27 -61 4t-75 -67.5t-45 -73.5q-18 -65 50 -47q58 15 206 110q3 1 4 2q15 6 19 -2.5t-10 -17.5q-21 -14 -56.5 -33.5t-52.5 -30.5q-70 -42 -84 -47q-86 -35 -102 14q-15 43 29 110q53 81 136 108q11 4 23 6q36 9 47 -21z" />
    <glyph glyph-name="d" unicode="d" horiz-adv-x="442" 
d="M120 707q8 0 11 -4t0.5 -10t-11.5 -11q-54 -12 -121 -76.5t-47 -105.5q62 3 168 114q16 206 211 482q105 145 160 178q21 12 36 10q85 -9 -73 -276q-55 -88 -138 -200t-168 -198q-8 -135 62 -140q75 -6 202 138q5 5 9 10q14 14 23 6q6 -7 -5 -18q-70 -83 -116 -112
q-86 -53 -143 -32.5t-60 101.5l-2 17q-83 -80 -148 -103q-53 -20 -47 25q3 29 27 76q63 107 170 129zM353 1087q-166 -231 -198 -425q-2 -4 -2 -13q78 86 158 195t124 178q64 105 87 178q16 56 -9 57q-39 0 -160 -170z" />
    <glyph glyph-name="e" unicode="e" horiz-adv-x="239" 
d="M-10 590h-4q-18 -50 -9 -64q18 -29 102 9.5t138 78.5q14 11 19.5 1.5t-9.5 -19.5q-61 -45 -166.5 -90.5t-111.5 2.5q-3 48 40 126.5t95 88.5q66 13 63.5 -16t-60.5 -71q-51 -38 -97 -46zM106 700q-25 1 -53.5 -23t-50.5 -59q47 11 95 46q39 31 9 36z" />
    <glyph glyph-name="f" unicode="f" horiz-adv-x="215" 
d="M201 868q-98 -148 -219 -290q6 2 16 2q18 -10 39 -11.5t35 0t42 14t37.5 17t43.5 23.5q18 8 18 -5q0 -11 -14 -18q-59 -33 -95 -43t-106 -10q-13 -103 -63.5 -267.5t-104.5 -203.5q-4 -2 -16 -2q-11 9 -11.5 34.5t6.5 56t18.5 69t22 68t21 58t12.5 33.5l66 162q-6 3 0 16
l14 15q89 212 203 418l63 110q2 2 13.5 21t15 24.5t14 21t17.5 23.5t17 19.5t20 19.5q20 17 33 17.5t17 -12t4 -27t-3 -27.5q-34 -114 -176 -326zM158 936q-71 -131 -140 -281q182 227 285 437q67 107 47 139q-54 -24 -192 -295zM-170 106q59 92 93.5 214.5t45.5 228.5
q-150 -337 -139 -443z" />
    <glyph glyph-name="g" unicode="g" horiz-adv-x="409" 
d="M154 639q0 -12 -11 -16q24 -34 -6 -136q148 117 215 131q12 3 49 -2q14 -2 5 -15q-6 -9 -17 -11q-43 1 -114.5 -37t-149.5 -100q-30 -78 -74.5 -162.5t-73.5 -122.5q-1 -2 -18 -25t-26 -33t-25.5 -27t-32 -24t-29.5 -6q-106 11 97 260q46 57 161 150q30 98 13 139
q-24 -10 -66.5 -37t-77.5 -43t-65 -12q-7 3 -8 5t0 9q24 56 102.5 102t134.5 46q10 0 13 -8zM-133 80q55 37 120 139.5t103 206.5q-96 -79 -165.5 -162t-78.5 -135q-1 -8 2.5 -16.5t9 -18t7.5 -14.5h2zM-72 535q26 -2 101 45.5t94 50.5l-2 14q-31 0 -106.5 -40t-86.5 -70z
" />
    <glyph glyph-name="h" unicode="h" horiz-adv-x="403" 
d="M1 604q-60 -123 -47 -147q2 -3 18 2q49 21 128.5 90t105.5 86q24 15 38.5 17.5t18.5 -5.5t5 -21.5t-2 -29t-2.5 -28.5t3.5 -21q41 -2 113 65q12 9 18 2.5t-4 -18.5q-10 -9 -22.5 -18.5t-30.5 -23t-34.5 -22t-32.5 -13.5t-27 0t-15 20q-2 11 0.5 25t7 31.5t5.5 25.5
q-13 5 -109 -71q-127 -100 -169 -116q-45 -19 -43 22q1 25 20 72q18 40 30 78q5 11 99 199q35 73 125 217q44 67 67.5 101t72.5 85.5t95 75.5q13 5 19 -6q4 -8 4.5 -19t-2.5 -23t-7.5 -24t-11.5 -26t-13 -24.5t-14 -24t-12 -21.5q-106 -198 -395 -512zM44 696l-16 -32
q10 12 25 32.5t29.5 38t31.5 33.5q0 2 -2 0q164 175 260 352q2 4 12.5 22t17.5 31t15.5 30.5t11.5 30.5t0 21q-47 -26 -106.5 -97.5t-115 -164t-94 -163.5t-69.5 -134zM95 750l17 18l-18 -19z" />
    <glyph glyph-name="i" unicode="i" horiz-adv-x="260" 
d="M102 858q12 10 19 7t4 -15q-30 -37 -53 -100q-7 -18 -21 -14q-9 2 -8 12q26 71 59 110zM-14 641q13 19 24 11q5 -5 2 -15q-1 -3 -18 -37.5t-17 -50.5q0 -58 111 -17q84 32 141 77q5 4 9 7q12 9 18 2.5t-4 -18.5q-33 -30 -100.5 -64t-129 -45.5t-73.5 31.5q-3 17 2.5 36
t18 45.5t16.5 37.5z" />
    <glyph glyph-name="j" unicode="j" horiz-adv-x="192" 
d="M2 662q10 15 22 13q7 -2 5 -11q-6 -18 -29 -86t-32 -92.5t-31.5 -86.5t-36.5 -93t-38.5 -85.5t-46 -92t-50.5 -83t-60 -86.5q-2 -2 -13 -17.5t-17.5 -25t-20.5 -27t-24.5 -30t-25.5 -27.5t-27 -24.5t-25.5 -17t-24.5 -9.5q-11 3 -9.5 12.5t13.5 13.5q11 1 28 14.5
t37 35.5t34.5 40.5t33 42.5t21.5 27q40 53 76.5 115t60.5 108t55 124.5t43 111t43.5 124.5t38.5 112zM45 721v2q-8 -10 -16.5 -6.5t-1.5 16.5q9 11 43.5 43t44.5 53q14 19 23 10q4 -4 1 -14q-8 -18 -23 -34.5t-37 -36t-34 -33.5z" />
    <glyph glyph-name="k" unicode="k" horiz-adv-x="372" 
d="M383 866q8 0 11 -4t0.5 -9.5t-11.5 -10.5q-61 -15 -141.5 -50.5t-159 -92.5t-100.5 -111q29 -26 77.5 -28.5t92.5 9t105.5 28t96.5 21.5q14 0 13.5 -11t-17.5 -15q-11 -1 -50 -12t-83.5 -22.5t-92 -21.5t-86 -9.5t-54.5 14.5l-19 10q-47 -135 -41 -254q0 -11 -11 -17
t-17 3q-3 143 55 295q-3 22 20 51q43 102 121 225t167 260t147 252q8 7 14.5 8t8 -3.5t-0.5 -12.5q-59 -123 -206.5 -348t-201.5 -332q73 59 191.5 116.5t171.5 71.5z" />
    <glyph glyph-name="l" unicode="l" horiz-adv-x="200" 
d="M322 1114q-39 -86 -151.5 -269.5t-166.5 -230.5q-19 -43 -22 -57q-15 -89 32 -86q44 3 111 72q37 39 53 71q11 19 22 11q7 -4 3 -15q-44 -82 -127.5 -132t-120.5 -11q-16 18 0 84q25 80 69 174.5t77.5 154t97.5 169.5q3 5 20 36.5t34.5 61.5t39 63t42 52.5t34.5 17.5
q22 -3 -7 -79t-40 -87zM352 1249q-44 -43 -141.5 -219t-169.5 -332q2 2 2 4q112 146 205 300t104 247z" />
    <glyph glyph-name="m" unicode="m" horiz-adv-x="608" 
d="M54 754q13 18 24 11q6 -5 3 -15q-17 -36 -60 -104.5t-73 -126.5t-33 -99q40 17 127.5 109t130.5 116q3 2 15 9t19.5 11.5t19.5 10.5t20 8t16.5 3t13.5 -3.5t7 -13.5q2 -17 -14.5 -60.5t-18.5 -50.5q23 0 62 31.5t81.5 60.5t75.5 25q23 -2 7 -48q-16 -48 -15 -56
q2 -15 26 -7q15 6 54.5 26t44.5 27q14 14 23 6q6 -7 -5 -18q-22 -22 -82.5 -49.5t-77.5 -15.5q-19 11 -2.5 54t9.5 54q-24 0 -55 -19.5t-56 -42t-56 -39.5t-55 -13q-8 4 -8 10q1 7 18.5 53t12.5 61q-65 -27 -109 -61l-15 -15q-254 -258 -245 -173q2 22 23 69l28 58l37 67
q59 102 82 150z" />
    <glyph glyph-name="n" unicode="n" horiz-adv-x="354" 
d="M14 696q13 18 24 11q6 -5 3 -15q-10 -27 -38 -78t-38 -77q18 8 41 26.5t49 42.5t35 31q26 23 55 39q92 59 89 5q-1 -34 -59 -155q-23 -47 -21 -53q-2 -11 -13.5 -17t-17.5 3q-7 21 6.5 51t33.5 55.5t33.5 55.5t6.5 51q-29 4 -64.5 -19.5t-64 -54.5t-66 -59.5t-67.5 -32.5
q-9 2 -9 14q10 31 41 89t41 87z" />
    <glyph glyph-name="o" unicode="o" horiz-adv-x="221" 
d="M10 659q9 9 15 9l2 4q5 7 14 12q35 14 50 -5t9 -58q33 -11 47 -11q1 0 6 -0.5t11.5 -0.5h12.5t10.5 0.5t5.5 2.5q13 9 19 2.5t-5 -18.5q-16 -13 -47 -12.5t-66 12.5q-12 -54 -49.5 -100t-83.5 -47l-10 4q-13 46 1.5 104.5t57.5 101.5zM74 608q-35 15 -45 39
q-37 -37 -49 -87.5t-3 -84.5h9q32 26 58 64t30 69zM59 649l4 -4z" />
    <glyph glyph-name="p" unicode="p" horiz-adv-x="352" 
d="M27 659l-4 -4q-14 -34 -42.5 -99.5t-46 -106.5t-39.5 -97.5t-38 -103.5q-3 -8 -12 -35.5t-12.5 -39t-8.5 -34t-4 -35.5t5.5 -28.5t14.5 -26.5q7 -10 -1.5 -18.5t-20.5 -5.5q-2 2 -15.5 12t-13.5 18q7 106 46 221.5t116.5 284t99.5 223.5q13 18 23 11q6 -4 2 -15l-31 -73
q58 37 121 31q57 -5 58 -45q0 -24 -19 -54q0 -2 -4 -6q101 31 166 0q6 -10 -2.5 -19t-20.5 -6l-16 8t-12 5.5t-14 2.5t-23 -1q-31 -3 -115 -35q-2 -2 -58 -51q-2 -2 -10.5 -8.5t-14.5 -12t-17 -14t-19 -14t-20 -13t-19.5 -11t-18 -7.5t-16 -3t-12.5 3q-7 8 -7.5 16t10 20
t21.5 21.5t27 21t27 18.5t21 13l10 6q54 30 94 45q63 73 15 90q-38 14 -99 -12q-39 -16 -51 -37zM90 551l19 14q-114 -50 -125 -82q8 2 18.5 7t18.5 9.5t20.5 13.5t17 13t17.5 14.5t14 10.5z" />
    <glyph glyph-name="q" unicode="q" horiz-adv-x="360" 
d="M92 680q16 -2 8 -25q-7 -17 -19 -14q-8 2 -7 12q-11 18 -48.5 -18.5t-66 -83.5t-16.5 -55q73 17 166 96q121 223 170 235q12 0 12 -10q-12 -47 -63.5 -119t-116.5 -131q-15 -29 -23 -41l29 -2q119 9 221 92q12 9 18 2.5t-4 -18.5q-127 -102 -250 -102q35 -52 -147 -447
q-39 -88 -76 -151q-47 -80 -62 -27q-12 42 0 100q1 8 3 13q7 19 37 106l45 107q53 128 155 307q0 14 13 20q2 0 2 2q1 1 2.5 5t3.5 6q-90 -76 -148 -70q-33 3 -10 60q26 65 83 115q49 43 89 36zM80 457q3 16 -10 37q-66 -121 -144 -299q-117 -264 -90 -308q60 62 140.5 263
t103.5 307zM242 764q-63 -88 -84 -121q58 65 84 121z" />
    <glyph glyph-name="r" unicode="r" horiz-adv-x="256" 
d="M55 813q13 19 24 11q6 -4 1 -15q-13 -35 -38.5 -101t-45 -120.5t-35.5 -102.5q11 16 30 46.5t29.5 46t28.5 36.5t39 36.5t47 27.5q9 5 15 2l28 -31q6 -10 -2 -18.5t-20 -5.5q-4 5 -25 26q-30 -15 -57.5 -42.5t-43.5 -51t-40 -63t-37 -58.5q-8 -8 -16 -10h-9q-7 3 -8 5
t0 9q17 56 39 117t52.5 140t43.5 116z" />
    <glyph glyph-name="s" unicode="s" horiz-adv-x="266" 
d="M168 723q6 -10 -2.5 -19t-20.5 -6q-14 5 -51.5 -7.5t-68 -33.5t-25.5 -36q4 -16 22.5 -25.5t46.5 -18.5t42 -18q25 13 51 25t52 22t30 12q8 0 11 -4t0.5 -9.5t-11.5 -10.5q-98 -40 -117 -49q8 -8 12 -23q7 -22 -25 -57.5t-73.5 -54.5t-58.5 -2q-48 51 100 135
q-14 8 -47.5 18t-50.5 20t-13 27q5 35 42.5 66.5t82.5 45t72 3.5zM109 510q0 6 -9 20q-83 -44 -104 -88q9 -14 28.5 -10t39 15.5t33.5 29.5t12 33z" />
    <glyph glyph-name="t" unicode="t" horiz-adv-x="217" 
d="M-50 819q-9 3 -7.5 13t13.5 14q38 3 147 28q92 168 201 328q8 7 15 8t10 -3.5t0 -12.5q-26 -47 -72 -149.5t-74 -153.5q143 29 211 4q6 -10 -3 -19t-21 -6q-55 20 -201 -6q-8 -12 -10 -16q-18 -32 -77 -110.5t-81 -127.5l-2 -2q-14 -33 -21.5 -53.5t-17 -54t-5.5 -55
t21 -29.5q14 5 28 12t28.5 18t25.5 19t27 24.5t23.5 23.5t24.5 26.5t21 24t21.5 26t18.5 22.5q11 12 20.5 6.5t-2.5 -18.5q-107 -124 -190 -184q-100 -72 -94 18q2 39 24 107q4 15 9.5 30.5t13.5 35t12 30.5q42 101 102 209q-98 -23 -139 -27zM239 1057q-18 -28 -105 -176
l21 6q21 37 84 170zM120 854q-29 -53 -45 -88q7 11 28.5 42t32.5 50q-8 -4 -16 -4z" />
    <glyph glyph-name="u" unicode="u" horiz-adv-x="331" 
d="M3 657q10 6 16.5 4.5t5.5 -8.5t-10 -14q-15 -40 -19 -63t4 -33t34 2.5t71 46.5q40 28 58 57q0 1 2 3.5t2 4.5q12 16 24 8q4 -4 3 -12l-3 -2q-10 -26 -6 -73q6 -55 109 26l9 6l7 6q12 9 18.5 2.5t-3.5 -18.5q-19 -14 -30 -22.5t-33 -23t-37 -19.5t-31 -8t-25.5 6.5
t-11.5 29.5q-4 25 -2 41l-37 -31q-119 -102 -143 -43q-15 36 9 95q9 24 19 32z" />
    <glyph glyph-name="v" unicode="v" horiz-adv-x="251" 
d="M-4 670q11 18 21 11q7 -4 3 -15q-51 -140 -47 -187q40 12 156 173t111 179q-5 0 -7 -2q-9 3 -7 13t14 14q6 2 14 2q10 0 12 -6q11 -28 -48.5 -121t-138 -179.5t-118.5 -100.5q-7 -2 -16 4q-3 31 6 72.5t17.5 66t27.5 76.5z" />
    <glyph glyph-name="w" unicode="w" horiz-adv-x="403" 
d="M-20 639q2 13 15 17q11 2 11 -9v-2q-4 -34 -30.5 -93.5t-32.5 -82.5q29 16 108.5 119t116.5 129q13 11 22 -2q3 -24 -19.5 -68.5t-38.5 -84.5t-1 -60q49 13 115 89t111.5 162t43.5 128l-14 -4q-12 -3 -12 7q0 12 14 17l27 10q9 0 12 -8q14 -133 -211 -377
q-39 -41 -66 -52.5t-37.5 2.5t-10.5 41t12 58q4 9 20 47t23 58q-34 -26 -70 -74t-72.5 -94.5t-76.5 -71.5q-4 -2 -19 -2q-11 9 2.5 48.5t34.5 87.5t23 65z" />
    <glyph glyph-name="x" unicode="x" horiz-adv-x="276" 
d="M223 754q13 13 23 6q8 -7 -4 -19q-19 -19 -88 -85.5t-103 -102.5q11 -69 74 -66q13 0 12 -9q-2 -12 -18 -17q-77 -5 -94 65q-72 -75 -123 -161q-7 -10 -17 -8.5t-8 12.5q45 79 143 184q-4 43 19 145q10 15 22 13q7 -2 5 -11q-17 -74 -17 -118q27 28 86 85t88 87z" />
    <glyph glyph-name="y" unicode="y" horiz-adv-x="432" 
d="M-2 664q13 18 24 10q7 -4 3 -15q-7 -17 -23 -54.5t-24.5 -61.5t-14.5 -56l10 -4q38 19 104.5 80t120.5 108t76 44q7 -3 7 -13q-9 -61 -50 -151q98 70 177 65q14 -2 5 -15q-7 -9 -18 -11q-42 4 -84 -16.5t-98 -61.5q-73 -152 -187 -310t-208 -231q-15 -11 -23 0
q0 32 21 101q44 128 134.5 232t233.5 212l6 4q51 103 62 164q-18 -13 -64.5 -59t-87 -84t-87.5 -63.5t-76 -12.5q-1 2 -1.5 6t-1.5 6q6 27 13.5 53t12.5 39.5t18.5 47t19.5 47.5zM-174 8q80 73 176.5 206.5t165.5 262.5q-125 -99 -205.5 -192.5t-118.5 -206.5
q-16 -46 -18 -70z" />
    <glyph glyph-name="z" unicode="z" horiz-adv-x="358" 
d="M16 629q-9 3 -7 12.5t14 13.5q21 2 51.5 10.5t51 14t49 7.5t44.5 -7q4 -4 4 -10q-5 -31 -33 -58.5t-60 -45.5t-65 -44t-45 -53q-15 -29 0 -63q163 133 316 212q17 7 18 -3.5t-14 -18.5q-163 -82 -311 -209q24 -38 28 -51q11 -38 -34 -91.5t-110 -91t-108 -36.5l-10 4
q0 97 205 268q-19 45 -8 82q9 27 38.5 52.5t60.5 42t60.5 41t38.5 50.5q-30 6 -94 -10t-80 -18zM2 260q16 20 20 41t0 34.5t-14 35.5l-74 -70q-36 -36 -73.5 -84.5t-36.5 -73.5q73 -2 178 117z" />
    <glyph glyph-name="braceleft" unicode="{" horiz-adv-x="212" 
d="M414 1169q14 0 13.5 -11t-17.5 -15q-71 -11 -114.5 -35.5t-63.5 -63.5t-28.5 -76.5t-18.5 -94.5t-25 -97q-16 -48 -32 -74t-54 -59q-34 -26 -56 -33l-12 -4q3 -3 4 -25.5t-2 -31.5q-4 -12 -17 -48.5t-21 -63.5t-14 -59.5t0.5 -55.5t25.5 -33q6 -11 -2.5 -19.5t-22.5 -5.5
q-16 10 -23.5 24t-5.5 40t3.5 36t9.5 44q6 25 24 78.5t23 80.5q3 9 -3 22.5t-1 24.5v4q6 7 14.5 11t19.5 7t15 5q76 36 102 139q9 28 18 86.5t23 108.5t41 84q47 61 83.5 80t113.5 30z" />
    <glyph glyph-name="bar" unicode="|" horiz-adv-x="270" 
d="M379 1225q13 18 23 11q5 -5 1 -15q-65 -165 -220.5 -485.5t-219.5 -477.5q-7 -10 -15.5 -8.5t-8.5 12.5q64 157 219.5 477.5t220.5 485.5z" />
    <glyph glyph-name="braceright" unicode="}" horiz-adv-x="374" 
d="M317 1108q-9 -13 -19 -7q-7 3 -1 15q33 43 86 48q47 5 57 -29q3 -12 0 -29q-7 -33 -34 -70t-63.5 -79t-51.5 -66q-26 -42 -41.5 -97t0.5 -77q24 17 35 0q8 -8 -2 -21q-29 -34 -47 -12q-28 -28 -63 -148.5t-42 -132.5q-16 -30 -50 -63t-72 -55.5t-73.5 -22t-50.5 32.5
q2 14 12.5 19t16.5 -5q7 -14 22.5 -17t30 0.5t37.5 12.5q45 18 75.5 61t43 86.5t30 103.5t33.5 93q8 16 43 51q-8 21 -9 54.5t3 44.5q16 60 94.5 157t96.5 148q10 30 -24 33q-37 2 -66 -23q-4 -3 -7 -6z" />
    <glyph glyph-name="asciitilde" unicode="~" horiz-adv-x="321" 
d="M23 584q-7 -10 -17 -8.5t-8 12.5q16 28 39 41q30 19 44.5 13.5t15.5 -18t7.5 -31t20.5 -24.5q10 -4 31 8t34 27l9 14q13 19 24 11q5 -5 2 -15q-17 -31 -51 -51q-35 -21 -54 -23.5t-24 8.5t-6 25.5t-6.5 27.5t-20.5 15q-28 -14 -40 -32z" />
    <glyph glyph-name="uni00A0" unicode="&#xa0;" horiz-adv-x="700" 
d="M551 969q-14 -3 -13.5 8t13.5 16q114 41 215 64q85 66 178 149q154 211 199 201q9 0 6 -10q-9 -48 -195 -207q-27 -35 -77 -113q210 31 383 -14q7 -10 -2 -19t-21 -6q-162 46 -379 13q-80 -123 -153.5 -256t-116.5 -226q-71 -149 -91 -210q-35 -109 -8 -160
q4 -9 14.5 -14.5t26 -10.5t21.5 -8q6 -10 -2.5 -19t-20.5 -6q-7 4 -25 9t-28.5 11.5t-11.5 18.5q-7 72 13 162.5t54.5 174t90 185t103 177t110.5 168.5q-34 -6 -72 -15q-158 -125 -346 -264q203 -19 37 -162q-31 -27 -84 -63q-28 -22 -109 -72q-73 -46 -233 -133
q-173 -92 -289 -127q-8 -3 -14 4q-3 19 30.5 58.5t89 86t105.5 85.5t99 75t50 37q189 142 248 184q-31 -1 -96 -7t-103 -8t-84 8t-73 36v12q45 77 150.5 164t224.5 145t196 56q5 0 8 -6l4 -47q-2 -11 -13 -17.5t-17 2.5l-2 41q-63 2 -174.5 -54.5t-212 -136.5t-136.5 -143
q29 -22 88 -26q8 -1 111 5.5t168 4.5q201 146 338 252q-81 -20 -172 -53zM496 709q-41 29 -117 32q-39 -29 -129 -96.5t-156.5 -118.5t-126.5 -100q-4 -4 -37.5 -30.5t-59 -47.5t-57.5 -48.5t-49 -45.5q-11 -11 -12 -14q67 25 176.5 76.5t234.5 119.5t221 143.5t112 129.5z
M852 1106l-49 -41l51 10q2 2 6 10q11 17 41 60q-46 -36 -49 -39zM1092 1350q-45 -45 -58 -60q21 19 58 60z" />
    <glyph glyph-name="exclamdown" unicode="&#xa1;" horiz-adv-x="315" 
d="M-66 -164q-10 -10 -17.5 -7t-2.5 15q211 325 420 736q9 10 17.5 8t8.5 -13q-215 -419 -426 -739zM418 662q-13 -18 -23 -11q-6 4 -2 15q9 23 33 51q9 13 20 7q6 -5 0 -15q-26 -41 -28 -47z" />
    <glyph glyph-name="cent" unicode="&#xa2;" horiz-adv-x="253" 
d="M202 899q13 19 24 11q5 -5 2 -15q-7 -17 -67 -145q10 2 30 2l9 -9l2 -32q-2 -11 -13.5 -17.5t-17.5 2.5l-2 29q-17 0 -23 -2q-66 -128 -100 -205l45 10q8 0 11 -4t0.5 -9.5t-11.5 -10.5q-38 -10 -57 -10q-28 -72 -45 -140q-5 -17 -19 -14q-9 1 -8 12q12 55 45 142
q-69 3 -70 56q-2 54 59 116q59 61 134 79q44 80 72 154zM116 719q-71 -22 -119 -87q-45 -60 -24 -93q12 -19 46 -21q50 110 97 201z" />
    <glyph glyph-name="sterling" unicode="&#xa3;" horiz-adv-x="546" 
d="M55 694q-9 3 -7.5 13t13.5 14q20 0 70 8q39 61 68 103t74 97.5t91.5 89.5t90.5 44q26 2 31 3t28 -3.5t27 -5.5q15 -2 5 -16q-7 -8 -16 -11q-2 0 -31 5t-46 1q-38 -7 -78 -36.5t-80.5 -79t-68.5 -89t-64 -96.5q28 5 75 15.5t85 17t71 8.5q14 0 13.5 -11t-17.5 -15
q-36 -2 -75.5 -9t-92 -19t-76.5 -17l-36 -54q-20 -33 -66 -90q55 7 80 -10q24 -14 52 -37.5t45.5 -36t44 -20.5t62 2t83.5 39q9 3 13.5 0.5t3.5 -9t-9 -12.5q-41 -25 -76 -37t-59.5 -12.5t-46.5 6t-37 19t-31 26t-29 27t-30 21.5t-35 11t-43 -6q-8 -4 -17 -4
q-77 -88 -118 -88q-15 0 -19.5 12.5t2 28.5t19.5 25q59 35 114 49q34 41 76 104l25 41q-30 -6 -58 -6zM-31 512l11 8q-59 -15 -76 -43l2 -10q2 0 4 2q10 4 20 11t22.5 18t16.5 14z" />
    <glyph glyph-name="yen" unicode="&#xa5;" horiz-adv-x="468" 
d="M9 565q-14 -3 -14 8q2 12 14 17q57 24 129 49q-28 48 -29.5 117t13 129.5t41.5 140.5q10 16 22 13q6 -2 4 -11q-27 -81 -40.5 -139t-10.5 -126.5t35 -113.5l29 8q115 171 248 332q8 7 14.5 8t8 -3.5t-0.5 -12.5q-119 -144 -238 -315q114 27 189 24q14 -2 5 -15
q-6 -9 -17 -11q-78 3 -199 -29l-49 -76l59 4q13 0 12 -9q-2 -12 -18 -17q-59 -5 -72 -7q-27 -40 -135 -213q-12 -14 -22 -6q-6 5 0 15q68 110 123 194q-16 -4 -39 -20q-11 -6 -16 1.5t5 16.5q29 23 70 33q8 12 25.5 37.5t25.5 38.5q-60 -17 -172 -62z" />
    <glyph glyph-name="dieresis" unicode="&#xa8;" horiz-adv-x="161" 
d="M126 799q17 24 33 16q10 -5 4 -22l-10 -19q-5 -12 -15.5 -16.5t-18.5 0.5t-7 16q2 5 7.5 13t6.5 12zM48 786q15 23 32 17q12 -5 7 -21l-4 -6q-6 -20 -25 -20q-15 3 -14 18z" />
    <glyph glyph-name="acute" unicode="&#xb4;" horiz-adv-x="145" 
d="M86 768q-17 -8 -19 3q-1 9 11 17q11 7 25 15.5t21.5 13.5t15.5 12t12 15q8 7 14.5 8t8 -3.5t-0.5 -12.5q-5 -8 -12.5 -16t-18.5 -16t-18 -12.5t-21 -13t-18 -10.5z" />
    <glyph glyph-name="cedilla" unicode="&#xb8;" horiz-adv-x="167" 
d="M9 498q9 3 13.5 0.5t3.5 -9t-9 -12.5q-25 -16 -28 -33q7 -4 24.5 -4t24.5 -4q10 -5 6 -26q-7 -62 -119 -62q-13 4 -5 17q5 10 18 10t45 4q36 9 36 35q0 1 -5.5 2t-15 -1t-18 0t-14 6t-3.5 16t13 30q16 23 33 31z" />
    <glyph glyph-name="questiondown" unicode="&#xbf;" horiz-adv-x="479" 
d="M348 31q10 4 15 1.5t4 -9.5t-9 -13q-6 -4 -23 -17t-23.5 -17t-20 -12.5t-25.5 -13t-26 -7.5q-36 -9 -75 -14t-83 -3t-66.5 24t-11.5 64q18 67 72.5 125t113 93.5t135.5 83t119 85.5q17 15 27.5 25.5t19.5 23t13 19t14.5 26t16.5 31.5q9 10 17.5 8.5t8.5 -12.5
q-37 -67 -92.5 -120.5t-112 -89t-111.5 -67.5t-106 -75t-82 -94q-63 -102 15 -122q66 -17 179 26q58 23 97 51zM598 639q-11 -19 -22 -11q-7 4 -3 15l11 16q7 17 19 15q8 -2 7 -12q-1 -4 -6 -12.5t-6 -10.5z" />
    <glyph glyph-name="Agrave" unicode="&#xc0;" horiz-adv-x="1003" 
d="M-539 254q-15 -7 -18.5 2t8.5 18q304 187 688 275q56 60 86 94q266 301 473 508q17 17 80 82.5t101.5 103t93.5 83.5t94 67q9 4 13.5 2t2.5 -10q0 -4 -97 -145t-107 -154q-223 -350 -334 -570q168 14 219 15q13 0 12 -11t-18 -16q-188 -10 -228 -14q-215 -424 -122 -561
q-2 -11 -13.5 -17.5t-17.5 2.5q-17 33 -18 84.5t6.5 96.5t23.5 98.5t24 76t17 44.5q53 122 80 174q-173 -15 -358 -56q-147 -166 -209 -274q-7 -10 -17 -8.5t-8 12.5q64 112 195 260q-363 -84 -652 -262zM244 631l-68 -74q158 33 348 53q98 190 230 412q2 3 56.5 93
t109 175.5t92.5 134.5q-46 -35 -97 -83.5t-116 -117t-82 -85.5q-194 -196 -473 -508zM1059 1475q0 2 -2 2zM926 1675q-6 9 3.5 18.5t18.5 6.5q19 -14 30 -52t17 -49q0 -11 -11 -17t-17 3q-6 10 -16 44.5t-25 45.5z" />
    <glyph glyph-name="Aacute" unicode="&#xc1;" horiz-adv-x="1003" 
d="M-539 254q-15 -7 -18.5 2t8.5 18q304 187 688 275q56 60 86 94q266 301 473 508q17 17 80 82.5t101.5 103t93.5 83.5t94 67q9 4 13.5 2t2.5 -10q0 -4 -97 -145t-107 -154q-223 -350 -334 -570q168 14 219 15q13 0 12 -11t-18 -16q-188 -10 -228 -14q-215 -424 -122 -561
q-2 -11 -13.5 -17.5t-17.5 2.5q-17 33 -18 84.5t6.5 96.5t23.5 98.5t24 76t17 44.5q53 122 80 174q-173 -15 -358 -56q-147 -166 -209 -274q-7 -10 -17 -8.5t-8 12.5q64 112 195 260q-363 -84 -652 -262zM244 631l-68 -74q158 33 348 53q98 190 230 412q2 3 56.5 93
t109 175.5t92.5 134.5q-46 -35 -97 -83.5t-116 -117t-82 -85.5q-194 -196 -473 -508zM1059 1475q0 2 -2 2zM942 1585q-16 -8 -18 3q-3 9 10 18q12 8 31.5 19t28.5 18.5t14 17.5q8 7 14.5 8t8 -3.5t-0.5 -12.5q-5 -8 -12.5 -16t-18.5 -16t-18 -12.5t-21 -13t-18 -10.5z" />
    <glyph glyph-name="Acircumflex" unicode="&#xc2;" horiz-adv-x="1003" 
d="M-539 254q-15 -7 -18.5 2t8.5 18q304 187 688 275q56 60 86 94q266 301 473 508q17 17 80 82.5t101.5 103t93.5 83.5t94 67q9 4 13.5 2t2.5 -10q0 -4 -97 -145t-107 -154q-223 -350 -334 -570q168 14 219 15q13 0 12 -11t-18 -16q-188 -10 -228 -14q-215 -424 -122 -561
q-2 -11 -13.5 -17.5t-17.5 2.5q-17 33 -18 84.5t6.5 96.5t23.5 98.5t24 76t17 44.5q53 122 80 174q-173 -15 -358 -56q-147 -166 -209 -274q-7 -10 -17 -8.5t-8 12.5q64 112 195 260q-363 -84 -652 -262zM244 631l-68 -74q158 33 348 53q98 190 230 412q2 3 56.5 93
t109 175.5t92.5 134.5q-46 -35 -97 -83.5t-116 -117t-82 -85.5q-194 -196 -473 -508zM1059 1475q0 2 -2 2zM958 1593q-7 -10 -16.5 -8.5t-7.5 12.5q12 19 39 44.5t28 27.5q11 17 21 11q6 -4 4 -13q5 -5 2 -12q-4 -8 -4 -19l2 -28q1 0 2 -1t2 -1q7 -10 -1.5 -19t-20.5 -6
q-21 8 -13 49q-27 -23 -37 -37z" />
    <glyph glyph-name="Atilde" unicode="&#xc3;" horiz-adv-x="1003" 
d="M-539 254q-15 -7 -18.5 2t8.5 18q304 187 688 275q56 60 86 94q266 301 473 508q17 17 80 82.5t101.5 103t93.5 83.5t94 67q9 4 13.5 2t2.5 -10q0 -4 -97 -145t-107 -154q-223 -350 -334 -570q168 14 219 15q13 0 12 -11t-18 -16q-188 -10 -228 -14q-215 -424 -122 -561
q-2 -11 -13.5 -17.5t-17.5 2.5q-17 33 -18 84.5t6.5 96.5t23.5 98.5t24 76t17 44.5q53 122 80 174q-173 -15 -358 -56q-147 -166 -209 -274q-7 -10 -17 -8.5t-8 12.5q64 112 195 260q-363 -84 -652 -262zM244 631l-68 -74q158 33 348 53q98 190 230 412q2 3 56.5 93
t109 175.5t92.5 134.5q-46 -35 -97 -83.5t-116 -117t-82 -85.5q-194 -196 -473 -508zM1059 1475q0 2 -2 2zM918 1620q-11 -13 -22 -7q-7 4 -1 15q8 8 10 12q9 9 17 9q12 -1 35 -20.5t38 -14.5q1 4 5 9.5t4 6.5q11 18 21 11q6 -5 3 -15q-14 -25 -30 -34.5t-29 -5.5t-24 11
t-18.5 15t-8.5 8z" />
    <glyph glyph-name="Adieresis" unicode="&#xc4;" horiz-adv-x="1003" 
d="M-539 254q-15 -7 -18.5 2t8.5 18q304 187 688 275q56 60 86 94q266 301 473 508q17 17 80 82.5t101.5 103t93.5 83.5t94 67q9 4 13.5 2t2.5 -10q0 -4 -97 -145t-107 -154q-223 -350 -334 -570q168 14 219 15q13 0 12 -11t-18 -16q-188 -10 -228 -14q-215 -424 -122 -561
q-2 -11 -13.5 -17.5t-17.5 2.5q-17 33 -18 84.5t6.5 96.5t23.5 98.5t24 76t17 44.5q53 122 80 174q-173 -15 -358 -56q-147 -166 -209 -274q-7 -10 -17 -8.5t-8 12.5q64 112 195 260q-363 -84 -652 -262zM244 631l-68 -74q158 33 348 53q98 190 230 412q2 3 56.5 93
t109 175.5t92.5 134.5q-46 -35 -97 -83.5t-116 -117t-82 -85.5q-194 -196 -473 -508zM1059 1475q0 2 -2 2zM985 1608q17 24 33 16q10 -5 4 -22l-10 -19q-5 -12 -15.5 -16.5t-18.5 0.5t-7 16q2 5 7.5 13t6.5 12zM907 1595q15 23 32 17q11 -6 7 -21l-4 -6q-6 -20 -25 -20
q-15 3 -14 18z" />
    <glyph glyph-name="Aring" unicode="&#xc5;" horiz-adv-x="1003" 
d="M-539 254q-15 -7 -18.5 2t8.5 18q304 187 688 275q56 60 86 94q266 301 473 508q17 17 80 82.5t101.5 103t93.5 83.5t94 67q9 4 13.5 2t2.5 -10q0 -4 -97 -145t-107 -154q-223 -350 -334 -570q168 14 219 15q13 0 12 -11t-18 -16q-188 -10 -228 -14q-215 -424 -122 -561
q-2 -11 -13.5 -17.5t-17.5 2.5q-17 33 -18 84.5t6.5 96.5t23.5 98.5t24 76t17 44.5q53 122 80 174q-173 -15 -358 -56q-147 -166 -209 -274q-7 -10 -17 -8.5t-8 12.5q64 112 195 260q-363 -84 -652 -262zM244 631l-68 -74q158 33 348 53q98 190 230 412q2 3 56.5 93
t109 175.5t92.5 134.5q-46 -35 -97 -83.5t-116 -117t-82 -85.5q-194 -196 -473 -508zM1059 1475q0 2 -2 2zM948 1636q2 2 8 2q8 4 15 4q47 0 45 -35q-1 -33 -38 -64q-25 -20 -48 -21q-34 -1 -35 33q-1 38 31 67q10 9 22 14zM958 1616h-2q-1 0 -2 -1t-2 -1q-20 -10 -28 -44
q-5 -24 6 -23q2 0 4 1q40 17 51 43q7 24 -27 25z" />
    <glyph glyph-name="AE" unicode="&#xc6;" horiz-adv-x="1392" 
d="M1202 1255l-31 -22q3 11 13.5 45.5t19 64.5t8.5 43q2 48 -35 76.5t-92 3.5q-103 -46 -290 -260q-189 -220 -328 -450q245 109 514 170l-10 -27l-6 -2q-312 -85 -519 -176q-8 -15 -34 -65t-32 -62t-24.5 -51t-23.5 -53t-16.5 -46t-15.5 -52.5t-8.5 -49.5t-6.5 -59
q-2 -11 -13.5 -17.5t-17.5 2.5q-5 49 12 110.5t37.5 105.5t60 118.5t54.5 106.5q-296 -133 -498 -324q-12 -9 -19 -2.5t5 18.5q210 199 534 342q139 248 334 474q14 17 28.5 32.5t39.5 42.5t48.5 49.5t53.5 49.5t56.5 47.5t56 38.5t54.5 27t48.5 8.5t40.5 -13.5
q23 -16 27 -62t-3.5 -90.5t-21.5 -91.5zM1083 1276q-7 -10 -16.5 -8.5t-7.5 12.5l20 41q-64 2 -184.5 -57.5t-224.5 -130t-174 -129.5q-13 -10 -29 -24.5t-39 -37.5t-40 -44.5t-32 -46t-14 -41.5t14 -32q29 -17 67 -16t98.5 16.5t112 32.5t107.5 33.5t86 19.5q16 0 11 -16
q-9 -13 -25 -27t-28.5 -22.5t-34 -23t-31.5 -21.5q-6 -4 -59.5 -41.5t-83 -59t-86 -63t-92 -71.5t-75.5 -66t-62 -65t-28 -50q105 -36 576 259q8 4 11.5 6.5t9.5 6t10 6.5q15 6 18.5 -2.5t-10.5 -17.5q-87 -54 -137 -84.5t-155 -90t-182.5 -90t-123.5 -30.5q-10 0 -26.5 6.5
t-18.5 7.5q-2 2 -2 13q8 31 41.5 73t74 79.5t103.5 86.5t104.5 79t105.5 74.5t79 55.5q6 4 36.5 23.5t45.5 31.5q-34 -7 -90.5 -24.5t-106.5 -32.5t-102.5 -27.5t-95.5 -11.5t-68 19q-16 12 -20 29.5t6.5 40.5t21.5 42t35.5 46t37 40.5t37.5 37.5t27 26q104 103 314 218
t319 114q13 -3 6 -17z" />
    <glyph glyph-name="Ccedilla" unicode="&#xc7;" horiz-adv-x="593" 
d="M690 1298q-9 -13 -20 -7q-6 6 0 16q17 24 25 36.5t14.5 32.5t1.5 35q-8 24 -31.5 31t-56 -1.5t-68 -23t-73.5 -36.5t-65 -39t-50 -33q-181 -128 -326 -309.5t-207 -364.5q-14 -40 -23.5 -82t-12.5 -91.5t7 -84t43 -51.5t89 -2q26 7 74 29t52 24q18 8 19 -5q0 -11 -14 -18
q-5 -2 -39.5 -18.5t-55 -24.5t-51 -17.5t-52.5 -8.5t-36 12q-45 39 -58.5 95.5t-4 111.5t35.5 133q63 188 213.5 374t339.5 320q129 91 222 121q111 37 146.5 -9t-38.5 -145zM-182 344q9 3 13.5 1t3.5 -8.5t-9 -12.5q-26 -17 -29 -33q7 -4 24.5 -4t24.5 -4q11 -6 7 -27
q-7 -61 -119 -61q-12 3 -6 16q5 10 18 10t45 4q37 10 37 35q0 1 -5.5 2t-15 -1t-18 0t-14 6t-3.5 16t13 30q16 23 33 31z" />
    <glyph glyph-name="Egrave" unicode="&#xc8;" horiz-adv-x="851" 
d="M543 1276q-7 -10 -17 -8.5t-8 12.5l21 41q-93 3 -279 -107t-305 -210q-13 -10 -29 -24.5t-39 -37.5t-40 -44.5t-31.5 -45.5t-13.5 -41.5t14 -32.5q29 -17 67 -16t98.5 16.5t112 32.5t107.5 33.5t86 19.5q9 0 11 -3.5t-1 -12.5q-9 -13 -25 -27t-28.5 -22.5t-34 -23
t-31.5 -21.5q-4 -3 -59.5 -41.5t-83.5 -59t-85 -63t-92 -72t-75 -65.5t-62 -65t-28 -50q37 -13 107 8.5t167 74t154.5 86.5t145.5 89q22 14 32 20q15 6 18.5 -2.5t-10.5 -17.5q-87 -54 -137 -84.5t-155 -90t-182.5 -90t-123.5 -30.5q-9 0 -26 6.5t-19 7.5q-2 2 -2 13
q8 31 41.5 73t74 79.5t103.5 86.5t104.5 79t105.5 74.5t79 55.5q6 4 36.5 23.5t45.5 31.5q-34 -7 -90.5 -24.5t-106.5 -32.5t-102.5 -27.5t-95.5 -11.5t-68 19q-16 12 -20 29.5t6.5 40.5t21.5 42t35.5 46t37 40.5t37.5 37.5t27 26q104 103 314 218t319 114q13 -3 6 -17z
M434 1450q-6 9 4 18.5t19 6.5q19 -14 30 -52t17 -49q0 -11 -11.5 -17t-17.5 3q-6 10 -16 44.5t-25 45.5z" />
    <glyph glyph-name="Eacute" unicode="&#xc9;" horiz-adv-x="851" 
d="M543 1276q-7 -10 -17 -8.5t-8 12.5l21 41q-93 3 -279 -107t-305 -210q-13 -10 -29 -24.5t-39 -37.5t-40 -44.5t-31.5 -45.5t-13.5 -41.5t14 -32.5q29 -17 67 -16t98.5 16.5t112 32.5t107.5 33.5t86 19.5q9 0 11 -3.5t-1 -12.5q-9 -13 -25 -27t-28.5 -22.5t-34 -23
t-31.5 -21.5q-4 -3 -59.5 -41.5t-83.5 -59t-85 -63t-92 -72t-75 -65.5t-62 -65t-28 -50q37 -13 107 8.5t167 74t154.5 86.5t145.5 89q22 14 32 20q15 6 18.5 -2.5t-10.5 -17.5q-87 -54 -137 -84.5t-155 -90t-182.5 -90t-123.5 -30.5q-9 0 -26 6.5t-19 7.5q-2 2 -2 13
q8 31 41.5 73t74 79.5t103.5 86.5t104.5 79t105.5 74.5t79 55.5q6 4 36.5 23.5t45.5 31.5q-34 -7 -90.5 -24.5t-106.5 -32.5t-102.5 -27.5t-95.5 -11.5t-68 19q-16 12 -20 29.5t6.5 40.5t21.5 42t35.5 46t37 40.5t37.5 37.5t27 26q104 103 314 218t319 114q13 -3 6 -17z
M465 1339q-16 -8 -18 3q-3 9 10 18q11 8 30.5 19t28.5 18.5t14 17.5q8 7 14.5 8t8.5 -3.5t0 -12.5q-5 -8 -12.5 -16t-18.5 -16t-18 -12.5t-21 -13t-18 -10.5z" />
    <glyph glyph-name="Ecircumflex" unicode="&#xca;" horiz-adv-x="851" 
d="M543 1276q-7 -10 -17 -8.5t-8 12.5l21 41q-93 3 -279 -107t-305 -210q-13 -10 -29 -24.5t-39 -37.5t-40 -44.5t-31.5 -45.5t-13.5 -41.5t14 -32.5q29 -17 67 -16t98.5 16.5t112 32.5t107.5 33.5t86 19.5q9 0 11 -3.5t-1 -12.5q-9 -13 -25 -27t-28.5 -22.5t-34 -23
t-31.5 -21.5q-4 -3 -59.5 -41.5t-83.5 -59t-85 -63t-92 -72t-75 -65.5t-62 -65t-28 -50q37 -13 107 8.5t167 74t154.5 86.5t145.5 89q22 14 32 20q15 6 18.5 -2.5t-10.5 -17.5q-87 -54 -137 -84.5t-155 -90t-182.5 -90t-123.5 -30.5q-9 0 -26 6.5t-19 7.5q-2 2 -2 13
q8 31 41.5 73t74 79.5t103.5 86.5t104.5 79t105.5 74.5t79 55.5q6 4 36.5 23.5t45.5 31.5q-34 -7 -90.5 -24.5t-106.5 -32.5t-102.5 -27.5t-95.5 -11.5t-68 19q-16 12 -20 29.5t6.5 40.5t21.5 42t35.5 46t37 40.5t37.5 37.5t27 26q104 103 314 218t319 114q13 -3 6 -17z
M469 1350q-7 -10 -17 -8.5t-8 12.5q12 19 39.5 44t28.5 27q11 17 21 11q6 -4 4 -13q5 -5 2 -12q-4 -8 -4 -18l2 -29q1 0 2 -1t2 -1q7 -10 -2 -19t-21 -6q-20 8 -12 49q-29 -25 -37 -36z" />
    <glyph glyph-name="Edieresis" unicode="&#xcb;" horiz-adv-x="851" 
d="M543 1276q-7 -10 -17 -8.5t-8 12.5l21 41q-93 3 -279 -107t-305 -210q-13 -10 -29 -24.5t-39 -37.5t-40 -44.5t-31.5 -45.5t-13.5 -41.5t14 -32.5q29 -17 67 -16t98.5 16.5t112 32.5t107.5 33.5t86 19.5q9 0 11 -3.5t-1 -12.5q-9 -13 -25 -27t-28.5 -22.5t-34 -23
t-31.5 -21.5q-4 -3 -59.5 -41.5t-83.5 -59t-85 -63t-92 -72t-75 -65.5t-62 -65t-28 -50q37 -13 107 8.5t167 74t154.5 86.5t145.5 89q22 14 32 20q15 6 18.5 -2.5t-10.5 -17.5q-87 -54 -137 -84.5t-155 -90t-182.5 -90t-123.5 -30.5q-9 0 -26 6.5t-19 7.5q-2 2 -2 13
q8 31 41.5 73t74 79.5t103.5 86.5t104.5 79t105.5 74.5t79 55.5q6 4 36.5 23.5t45.5 31.5q-34 -7 -90.5 -24.5t-106.5 -32.5t-102.5 -27.5t-95.5 -11.5t-68 19q-16 12 -20 29.5t6.5 40.5t21.5 42t35.5 46t37 40.5t37.5 37.5t27 26q104 103 314 218t319 114q13 -3 6 -17z
M532 1380q17 24 33 16q10 -5 4 -22l-10 -18q-5 -12 -15.5 -16.5t-18.5 0.5t-7 16q2 5 7.5 12.5t6.5 11.5zM455 1368q15 23 32 17q11 -6 7 -21l-5 -6q-6 -21 -25 -20q-16 1 -13 18z" />
    <glyph glyph-name="Igrave" unicode="&#xcc;" horiz-adv-x="311" 
d="M-266 287q-9 3 -7.5 12.5t13.5 13.5q3 1 67 21q6 54 22.5 116t48 138.5t55.5 132t73 148t69.5 131.5t76.5 138.5t65 116.5q0 5 2 5q-16 -6 -67 -31q-13 -3 -14.5 5.5t9.5 16.5q164 82 209 29q6 -10 -2 -19t-20 -6q-27 31 -96 11q8 -4 4 -15q-5 -8 -61.5 -111t-75 -138
t-69 -131t-73.5 -149.5t-55.5 -130.5t-48.5 -136t-21 -109q63 22 99 4q6 -10 -2.5 -18.5t-22.5 -5.5q-10 9 -33.5 5t-42 -11.5t-49 -18t-53.5 -14.5zM393 1556q-6 9 4 18.5t19 6.5q19 -14 30 -52t17 -48q0 -11 -11.5 -17.5t-17.5 2.5q-6 10 -16 44.5t-25 45.5z" />
    <glyph glyph-name="Iacute" unicode="&#xcd;" horiz-adv-x="311" 
d="M-266 287q-9 3 -7.5 12.5t13.5 13.5q3 1 67 21q6 54 22.5 116t48 138.5t55.5 132t73 148t69.5 131.5t76.5 138.5t65 116.5q0 5 2 5q-16 -6 -67 -31q-13 -3 -14.5 5.5t9.5 16.5q164 82 209 29q6 -10 -2 -19t-20 -6q-27 31 -96 11q8 -4 4 -15q-5 -8 -61.5 -111t-75 -138
t-69 -131t-73.5 -149.5t-55.5 -130.5t-48.5 -136t-21 -109q63 22 99 4q6 -10 -2.5 -18.5t-22.5 -5.5q-10 9 -33.5 5t-42 -11.5t-49 -18t-53.5 -14.5zM416 1501q-16 -8 -18 3q-3 9 10 18q11 8 30.5 19t28.5 18.5t14 17.5q8 7 14.5 8t8.5 -3.5t0 -12.5q-5 -8 -12.5 -16
t-18.5 -16t-18 -12.5t-21 -13t-18 -10.5z" />
    <glyph glyph-name="Icircumflex" unicode="&#xce;" horiz-adv-x="311" 
d="M-266 287q-9 3 -7.5 12.5t13.5 13.5q3 1 67 21q6 54 22.5 116t48 138.5t55.5 132t73 148t69.5 131.5t76.5 138.5t65 116.5q0 5 2 5q-16 -6 -67 -31q-13 -3 -14.5 5.5t9.5 16.5q164 82 209 29q6 -10 -2 -19t-20 -6q-27 31 -96 11q8 -4 4 -15q-5 -8 -61.5 -111t-75 -138
t-69 -131t-73.5 -149.5t-55.5 -130.5t-48.5 -136t-21 -109q63 22 99 4q6 -10 -2.5 -18.5t-22.5 -5.5q-10 9 -33.5 5t-42 -11.5t-49 -18t-53.5 -14.5zM408 1487q-7 -10 -17 -8.5t-8 12.5q12 19 39.5 44.5t28.5 27.5q12 17 21 10q5 -3 3 -12q6 -6 2 -13q-4 -8 -4 -18l2 -29
q1 0 2 -1t2 -1q7 -10 -1.5 -18.5t-20.5 -5.5q-21 8 -13 49q-25 -21 -36 -37z" />
    <glyph glyph-name="Idieresis" unicode="&#xcf;" horiz-adv-x="311" 
d="M-266 287q-9 3 -7.5 12.5t13.5 13.5q3 1 67 21q6 54 22.5 116t48 138.5t55.5 132t73 148t69.5 131.5t76.5 138.5t65 116.5q0 5 2 5q-16 -6 -67 -31q-13 -3 -14.5 5.5t9.5 16.5q164 82 209 29q6 -10 -2 -19t-20 -6q-27 31 -96 11q8 -4 4 -15q-5 -8 -61.5 -111t-75 -138
t-69 -131t-73.5 -149.5t-55.5 -130.5t-48.5 -136t-21 -109q63 22 99 4q6 -10 -2.5 -18.5t-22.5 -5.5q-10 9 -33.5 5t-42 -11.5t-49 -18t-53.5 -14.5zM399 1491q17 24 33 16q10 -5 4 -22l-10 -19q-5 -12 -15.5 -16.5t-18.5 0.5t-7 16q2 5 7.5 13t6.5 12zM322 1479
q15 23 31 17q11 -6 7 -21l-4 -7q-6 -20 -25 -20q-15 3 -14 18z" />
    <glyph glyph-name="Ntilde" unicode="&#xd1;" horiz-adv-x="733" 
d="M-270 504q28 60 112 217.5t141.5 285t75.5 224.5q-6 -5 -11.5 -2t-4.5 12q16 29 39 37q7 0 12 -8q-4 -81 -65 -222.5t-160 -327t-115 -220.5q-3 -6 -19 -42t-22.5 -51.5t-15 -42.5t-10.5 -47q55 56 106.5 126t111 162t89.5 134q140 188 219 273q23 24 38 39.5t34 32
t26.5 23t37 30t42.5 34.5q85 67 141 89q91 38 83 -48q-10 -93 -134 -323l-8 -15l-61 -129q-39 -83 -52 -118q-26 -71 -29 -93.5t1 -82.5q-2 -11 -13.5 -17.5t-17.5 2.5q0 53 10 104t38 119.5t42.5 99.5t57.5 120q9 18 30 60.5t31 64.5q5 12 15.5 34.5t18.5 40.5t13 35
q57 142 -9 129t-231 -162q-33 -29 -66 -63t-58 -61t-59.5 -70.5t-52 -65.5t-54.5 -73t-48.5 -67.5t-51.5 -74.5t-48 -69q-92 -138 -135 -190q-57 -68 -78 -64q-9 5 -10 6q2 17 6.5 36.5t8.5 33t13.5 37.5t13 33.5t16.5 38.5t16 36zM309 1200q-12 -14 -22 -7q-5 6 0 15
q7 7 10 13q8 8 16 8q12 -1 35.5 -20.5t38.5 -14.5q1 3 2.5 6l3 6t2.5 4q11 19 22 11q7 -4 3 -15q-14 -25 -30 -34.5t-29.5 -5.5t-24.5 11t-18.5 15t-8.5 8z" />
    <glyph glyph-name="Ograve" unicode="&#xd2;" horiz-adv-x="575" 
d="M-184 326q-29 0 -39.5 23.5t-3.5 62.5t20 77t31 80q-42 39 -45 80q-9 49 -9 81t17 89q21 70 75 167t125.5 192.5t161.5 169.5t170 90q77 16 120.5 3t57 -50t15.5 -91t-4 -120q-3 -102 -91.5 -291.5t-215.5 -339.5q87 24 168 74q8 0 11 -4t0.5 -10t-11.5 -11
q-75 -73 -209 -96q-65 -69 -127 -113q-38 -24 -70 -39t-57 -20t-39.5 -6t-31.5 0.5t-19 1.5zM92 942q6 -10 -2 -18.5t-20 -5.5q-31 -22 -97 -123t-114 -205q51 -45 135.5 -57t173.5 8q6 6 16 19t15 18q84 103 156 236.5t111.5 274t20.5 234.5q-11 57 -57 81t-115 7
q-87 -18 -190 -112t-179.5 -211t-118.5 -237t-20 -185q8 -29 33 -58l23 45q15 25 45.5 78.5t46.5 80t39.5 61t43.5 52t40 23.5q8 0 10 -2zM127 498q-82 -9 -158 6.5t-127 50.5q-75 -179 -12 -203q59 -24 138.5 21.5t158.5 124.5zM297 1507q-6 9 3.5 18.5t18.5 6.5
q19 -14 30.5 -52t17.5 -48q0 -11 -11.5 -17.5t-17.5 2.5q-6 10 -16 44.5t-25 45.5z" />
    <glyph glyph-name="Oacute" unicode="&#xd3;" horiz-adv-x="575" 
d="M-184 326q-29 0 -39.5 23.5t-3.5 62.5t20 77t31 80q-42 39 -45 80q-9 49 -9 81t17 89q21 70 75 167t125.5 192.5t161.5 169.5t170 90q77 16 120.5 3t57 -50t15.5 -91t-4 -120q-3 -102 -91.5 -291.5t-215.5 -339.5q87 24 168 74q8 0 11 -4t0.5 -10t-11.5 -11
q-75 -73 -209 -96q-65 -69 -127 -113q-38 -24 -70 -39t-57 -20t-39.5 -6t-31.5 0.5t-19 1.5zM92 942q6 -10 -2 -18.5t-20 -5.5q-31 -22 -97 -123t-114 -205q51 -45 135.5 -57t173.5 8q6 6 16 19t15 18q84 103 156 236.5t111.5 274t20.5 234.5q-11 57 -57 81t-115 7
q-87 -18 -190 -112t-179.5 -211t-118.5 -237t-20 -185q8 -29 33 -58l23 45q15 25 45.5 78.5t46.5 80t39.5 61t43.5 52t40 23.5q8 0 10 -2zM127 498q-82 -9 -158 6.5t-127 50.5q-75 -179 -12 -203q59 -24 138.5 21.5t158.5 124.5zM324 1430q-10 -4 -15.5 -2t-4 9t10.5 13
q12 8 31.5 19t28.5 18.5t14 17.5q8 7 14.5 8t8.5 -3.5t0 -12.5q-6 -10 -18.5 -21t-20.5 -16t-27 -16.5t-22 -13.5z" />
    <glyph glyph-name="Ocircumflex" unicode="&#xd4;" horiz-adv-x="575" 
d="M-184 326q-29 0 -39.5 23.5t-3.5 62.5t20 77t31 80q-42 39 -45 80q-9 49 -9 81t17 89q21 70 75 167t125.5 192.5t161.5 169.5t170 90q77 16 120.5 3t57 -50t15.5 -91t-4 -120q-3 -102 -91.5 -291.5t-215.5 -339.5q87 24 168 74q8 0 11 -4t0.5 -10t-11.5 -11
q-75 -73 -209 -96q-65 -69 -127 -113q-38 -24 -70 -39t-57 -20t-39.5 -6t-31.5 0.5t-19 1.5zM92 942q6 -10 -2 -18.5t-20 -5.5q-31 -22 -97 -123t-114 -205q51 -45 135.5 -57t173.5 8q6 6 16 19t15 18q84 103 156 236.5t111.5 274t20.5 234.5q-11 57 -57 81t-115 7
q-87 -18 -190 -112t-179.5 -211t-118.5 -237t-20 -185q8 -29 33 -58l23 45q15 25 45.5 78.5t46.5 80t39.5 61t43.5 52t40 23.5q8 0 10 -2zM127 498q-82 -9 -158 6.5t-127 50.5q-75 -179 -12 -203q59 -24 138.5 21.5t158.5 124.5zM326 1458q-7 -10 -17 -8.5t-8 12.5
q12 19 39.5 44.5t28.5 27.5q12 17 21 10q5 -3 3 -12q5 -5 2 -12q-4 -8 -4 -19l2 -28q1 0 2 -1.5t2 -1.5q7 -10 -1.5 -18.5t-20.5 -5.5q-21 8 -13 49q-25 -21 -36 -37z" />
    <glyph glyph-name="Otilde" unicode="&#xd5;" horiz-adv-x="575" 
d="M-184 326q-29 0 -39.5 23.5t-3.5 62.5t20 77t31 80q-42 39 -45 80q-9 49 -9 81t17 89q21 70 75 167t125.5 192.5t161.5 169.5t170 90q77 16 120.5 3t57 -50t15.5 -91t-4 -120q-3 -102 -91.5 -291.5t-215.5 -339.5q87 24 168 74q8 0 11 -4t0.5 -10t-11.5 -11
q-75 -73 -209 -96q-65 -69 -127 -113q-38 -24 -70 -39t-57 -20t-39.5 -6t-31.5 0.5t-19 1.5zM92 942q6 -10 -2 -18.5t-20 -5.5q-31 -22 -97 -123t-114 -205q51 -45 135.5 -57t173.5 8q6 6 16 19t15 18q84 103 156 236.5t111.5 274t20.5 234.5q-11 57 -57 81t-115 7
q-87 -18 -190 -112t-179.5 -211t-118.5 -237t-20 -185q8 -29 33 -58l23 45q15 25 45.5 78.5t46.5 80t39.5 61t43.5 52t40 23.5q8 0 10 -2zM127 498q-82 -9 -158 6.5t-127 50.5q-75 -179 -12 -203q59 -24 138.5 21.5t158.5 124.5zM332 1468q-11 -13 -22 -7q-7 5 -1 16
q8 8 10 12q8 8 17 8q12 -1 35.5 -20.5t38.5 -14.5q1 3 8 17q11 18 21 11q6 -5 3 -15q-14 -25 -30 -34.5t-29 -6t-24 10.5t-18.5 15t-8.5 8z" />
    <glyph glyph-name="Odieresis" unicode="&#xd6;" horiz-adv-x="575" 
d="M-184 326q-29 0 -39.5 23.5t-3.5 62.5t20 77t31 80q-42 39 -45 80q-9 49 -9 81t17 89q21 70 75 167t125.5 192.5t161.5 169.5t170 90q77 16 120.5 3t57 -50t15.5 -91t-4 -120q-3 -102 -91.5 -291.5t-215.5 -339.5q87 24 168 74q8 0 11 -4t0.5 -10t-11.5 -11
q-75 -73 -209 -96q-65 -69 -127 -113q-38 -24 -70 -39t-57 -20t-39.5 -6t-31.5 0.5t-19 1.5zM92 942q6 -10 -2 -18.5t-20 -5.5q-31 -22 -97 -123t-114 -205q51 -45 135.5 -57t173.5 8q6 6 16 19t15 18q84 103 156 236.5t111.5 274t20.5 234.5q-11 57 -57 81t-115 7
q-87 -18 -190 -112t-179.5 -211t-118.5 -237t-20 -185q8 -29 33 -58l23 45q15 25 45.5 78.5t46.5 80t39.5 61t43.5 52t40 23.5q8 0 10 -2zM127 498q-82 -9 -158 6.5t-127 50.5q-75 -179 -12 -203q59 -24 138.5 21.5t158.5 124.5zM379 1477q17 24 33 16q9 -7 4 -23l-10 -18
q-5 -12 -15.5 -16.5t-18.5 0.5t-7 16q2 5 7.5 13t6.5 12zM301 1464q15 23 32 17q11 -6 7 -21l-4 -6q-6 -20 -25 -20q-15 3 -14 18z" />
    <glyph glyph-name="Oslash" unicode="&#xd8;" horiz-adv-x="575" 
d="M-184 326q-29 0 -39.5 23.5t-3.5 62.5t20 77t31 80q-42 39 -45 80q-9 49 -9 81t17 89q21 70 75 167t125.5 192.5t161.5 169.5t170 90q77 16 120.5 3t57 -50t15.5 -91t-4 -120q-3 -102 -91.5 -291.5t-215.5 -339.5q87 24 168 74q8 0 11 -4t0.5 -10t-11.5 -11
q-75 -73 -209 -96q-65 -69 -127 -113q-38 -24 -70 -39t-57 -20t-39.5 -6t-31.5 0.5t-19 1.5zM92 942q6 -10 -2 -18.5t-20 -5.5q-31 -22 -97 -123t-114 -205q51 -45 135.5 -57t173.5 8q6 6 16 19t15 18q84 103 156 236.5t111.5 274t20.5 234.5q-11 57 -57 81t-115 7
q-87 -18 -190 -112t-179.5 -211t-118.5 -237t-20 -185q8 -29 33 -58l23 45q15 25 45.5 78.5t46.5 80t39.5 61t43.5 52t40 23.5q8 0 10 -2zM127 498q-82 -9 -158 6.5t-127 50.5q-75 -179 -12 -203q59 -24 138.5 21.5t158.5 124.5zM451 1098q13 9 19 2t-3 -19
q-81 -66 -247.5 -193.5t-293 -233t-231.5 -214.5q-11 -8 -18.5 -3.5t-0.5 16.5q105 109 231.5 214.5t294.5 235t249 195.5z" />
    <glyph glyph-name="Ugrave" unicode="&#xd9;" horiz-adv-x="675" 
d="M14 1235q2 14 12.5 19t18.5 -5q5 -22 -68.5 -186t-95.5 -203q-3 -7 -18.5 -42t-20 -45.5t-17.5 -43t-17 -46t-13.5 -43t-12 -45.5t-6.5 -41t-2.5 -42.5t5 -38t10.5 -37.5q4 0 33 -4t33 2q79 33 247 202l11 11q212 222 358 416l18 39q17 37 39 79t62 95t67 53q16 0 11 -16
q-57 -95 -160 -232q-25 -50 -92.5 -178t-105 -204t-74 -182t-41.5 -185q0 -11 -11.5 -17.5t-17.5 2.5q2 42 11 87t28.5 99t33.5 91.5t46 103.5t45.5 93t53 103t48.5 93q0 -1 -2 -3t-2 -3q-148 -188 -301 -350q-27 -27 -77.5 -74t-67.5 -63q-122 -113 -188 -91.5t-48 148.5
q8 58 76.5 221.5t131 305.5t60.5 157zM612 1268q-29 -41 -45 -70zM307 1348q-6 9 4 18t19 6q19 -14 30 -52t17 -48q0 -11 -11.5 -17.5t-17.5 2.5q-6 10 -16 45t-25 46z" />
    <glyph glyph-name="Uacute" unicode="&#xda;" horiz-adv-x="675" 
d="M14 1235q2 14 12.5 19t18.5 -5q5 -22 -68.5 -186t-95.5 -203q-3 -7 -18.5 -42t-20 -45.5t-17.5 -43t-17 -46t-13.5 -43t-12 -45.5t-6.5 -41t-2.5 -42.5t5 -38t10.5 -37.5q4 0 33 -4t33 2q79 33 247 202l11 11q212 222 358 416l18 39q17 37 39 79t62 95t67 53q16 0 11 -16
q-57 -95 -160 -232q-25 -50 -92.5 -178t-105 -204t-74 -182t-41.5 -185q0 -11 -11.5 -17.5t-17.5 2.5q2 42 11 87t28.5 99t33.5 91.5t46 103.5t45.5 93t53 103t48.5 93q0 -1 -2 -3t-2 -3q-148 -188 -301 -350q-27 -27 -77.5 -74t-67.5 -63q-122 -113 -188 -91.5t-48 148.5
q8 58 76.5 221.5t131 305.5t60.5 157zM612 1268q-29 -41 -45 -70zM319 1257q-16 -8 -18 3q-3 9 10 18q12 8 31.5 19t28.5 18.5t14 17.5q8 7 14.5 8t8.5 -3.5t0 -12.5q-6 -10 -18.5 -21t-20.5 -16.5t-28 -17.5t-22 -13z" />
    <glyph glyph-name="Ucircumflex" unicode="&#xdb;" horiz-adv-x="675" 
d="M14 1235q2 14 12.5 19t18.5 -5q5 -22 -68.5 -186t-95.5 -203q-3 -7 -18.5 -42t-20 -45.5t-17.5 -43t-17 -46t-13.5 -43t-12 -45.5t-6.5 -41t-2.5 -42.5t5 -38t10.5 -37.5q4 0 33 -4t33 2q79 33 247 202l11 11q212 222 358 416l18 39q17 37 39 79t62 95t67 53q16 0 11 -16
q-57 -95 -160 -232q-25 -50 -92.5 -178t-105 -204t-74 -182t-41.5 -185q0 -11 -11.5 -17.5t-17.5 2.5q2 42 11 87t28.5 99t33.5 91.5t46 103.5t45.5 93t53 103t48.5 93q0 -1 -2 -3t-2 -3q-148 -188 -301 -350q-27 -27 -77.5 -74t-67.5 -63q-122 -113 -188 -91.5t-48 148.5
q8 58 76.5 221.5t131 305.5t60.5 157zM612 1268q-29 -41 -45 -70zM299 1255q-7 -10 -17 -8t-8 13q12 19 39.5 44t28.5 27q11 17 21 11q6 -4 4 -13q5 -5 2 -12q-4 -8 -4 -19l2 -28q1 0 2 -1t2 -1q7 -10 -2 -19t-21 -6q-20 8 -12 49q-27 -23 -37 -37z" />
    <glyph glyph-name="Udieresis" unicode="&#xdc;" horiz-adv-x="675" 
d="M14 1235q2 14 12.5 19t18.5 -5q5 -22 -68.5 -186t-95.5 -203q-3 -7 -18.5 -42t-20 -45.5t-17.5 -43t-17 -46t-13.5 -43t-12 -45.5t-6.5 -41t-2.5 -42.5t5 -38t10.5 -37.5q4 0 33 -4t33 2q79 33 247 202l11 11q212 222 358 416l18 39q17 37 39 79t62 95t67 53q16 0 11 -16
q-57 -95 -160 -232q-25 -50 -92.5 -178t-105 -204t-74 -182t-41.5 -185q0 -11 -11.5 -17.5t-17.5 2.5q2 42 11 87t28.5 99t33.5 91.5t46 103.5t45.5 93t53 103t48.5 93q0 -1 -2 -3t-2 -3q-148 -188 -301 -350q-27 -27 -77.5 -74t-67.5 -63q-122 -113 -188 -91.5t-48 148.5
q8 58 76.5 221.5t131 305.5t60.5 157zM612 1268q-29 -41 -45 -70zM340 1274q17 24 33 16q10 -5 4 -22l-10 -19q-5 -12 -15.5 -16.5t-18.5 0.5t-7 16q2 5 7.5 13t6.5 12zM262 1262q15 23 32 16q12 -5 7 -21l-4 -6q-6 -20 -25 -20q-15 3 -14 18z" />
    <glyph glyph-name="Yacute" unicode="&#xdd;" horiz-adv-x="626" 
d="M188 1382q12 9 18.5 2.5t-3.5 -18.5q-12 -11 -29.5 -44t-36 -74t-24.5 -52q-18 -33 -67 -120.5t-73.5 -134t-57.5 -118t-52 -131.5q-57 -168 12 -182q41 -8 85.5 5.5t91 48t77 61.5t72.5 69q39 38 77 79t79 91t65.5 81.5t73 94t65.5 84.5q3 3 76 95.5t96 126.5q2 4 10 8
h11q10 0 14 -6q0 -9 -70 -130t-90 -153q-14 -26 -60 -111t-66 -121.5t-63 -110.5t-73 -120.5t-72.5 -107t-83.5 -111.5q123 3 134 -100q-2 -11 -13.5 -17.5t-17.5 2.5q7 50 -27.5 71.5t-97.5 18.5l-45 -51q-3 -3 -11 -12q-262 -289 -343 -207q-27 30 16.5 101.5t91.5 97.5
q148 80 275 94q119 149 215.5 308t214.5 380l73 139q-13 -17 -57.5 -75.5t-62 -81.5t-57.5 -74t-65 -81t-61 -72.5t-69 -78t-68 -69.5q-158 -154 -269 -190q-127 -43 -136 106q-2 38 17 97.5t56 134.5t69 134t77 137.5t59 104.5q8 15 25.5 57.5t35.5 74.5t39 50zM102 319
l31 37q-66 -9 -135.5 -34t-110.5 -54q-40 -30 -76.5 -81.5t-15.5 -77.5q10 -13 28 -13.5t39.5 10.5t45.5 27.5t49.5 39t47.5 43.5t43 43.5t33.5 36t20.5 23.5zM309 1221q-17 -8 -19 3q-1 9 11 17t31.5 19t28.5 18.5t14 17.5q8 7 14.5 8t8 -3.5t-0.5 -12.5q-6 -10 -18.5 -21
t-20.5 -16t-27 -16.5t-22 -13.5z" />
    <glyph glyph-name="Thorn" unicode="&#xde;" horiz-adv-x="718" 
d="M145 858q-9 -2 -12.5 2t-1 10t9.5 11q40 20 140 63q174 247 268 426q13 18 23 11q5 -5 1 -15q-76 -143 -262 -410q233 85 387 68q14 -2 24.5 -9.5t22 -20t17.5 -17.5q4 -4 2 -14q-5 -8 -14 -24.5t-15 -26.5t-16 -23.5t-21 -22.5q-420 -349 -708 -411q-65 -125 -68 -179
q-1 -17 11.5 -42t13.5 -29q-2 -11 -13.5 -17.5t-17.5 2.5q-23 76 -14 129.5t51 129.5q-2 0 -19.5 -3.5t-25.5 -3.5q-9 3 -7.5 13t13.5 14q8 1 25.5 1t25.5 1q10 18 64 98q25 39 229 340q-52 -21 -113 -51zM49 561q-4 -9 -21.5 -38t-27.5 -48q6 0 8 2q148 43 352 165t322 239
q13 14 29 41.5t22 35.5q-5 4 -14 14.5t-17.5 16.5t-19.5 6q-181 9 -393 -73q-144 -204 -240 -361z" />
    <glyph glyph-name="germandbls" unicode="&#xdf;" horiz-adv-x="499" 
d="M-147 164q-7 -18 -21 -14q-9 2 -8 12q39 229 153.5 461.5t290.5 449.5q48 59 76.5 90t71.5 68.5t88 55t98 20.5q21 2 30 -11.5t6.5 -34.5t-8 -40t-12.5 -33q-38 -65 -93.5 -140t-91 -118t-111.5 -133l-99 -127q19 -9 56.5 5.5t64.5 25.5t55 -7q60 -53 -79 -168.5
t-236 -136.5q-11 3 -9.5 13t13.5 14q80 15 179 85.5t110 139.5q7 37 -24 37q-20 1 -94 -27q-63 -22 -67 -4q-2 8 3 21q12 37 106 137q18 22 70 82.5t77 92.5t63 83t62 96.5t39 91.5l-22 29q-37 -2 -73 -16t-62 -31t-60 -51t-52.5 -56t-53.5 -65q-174 -214 -287 -443.5
t-149 -453.5z" />
    <glyph glyph-name="agrave" unicode="&#xe0;" horiz-adv-x="389" 
d="M-85 678l-2 -4q20 10 35 10q7 0 10 -2t2 -8q-4 -18 -17 -48.5t-26.5 -57.5t-25.5 -58.5t-12.5 -50t11.5 -33.5q7 -10 -1.5 -19t-20.5 -6q-17 14 -19 38t9 52t24.5 55.5t27.5 58.5t19 50q-41 -30 -112 -90q-126 -99 -143 -67q-12 23 37 88q61 82 135 115q31 14 59 14
q7 0 10 -8v-29zM-300 522q26 3 58.5 25.5t73 59.5t58.5 50l-6 7l4 24q-43 0 -103 -57.5t-85 -108.5zM-99 852q-6 9 3.5 18.5t18.5 6.5q19 -14 30 -52t17 -49q0 -11 -11 -17t-17 3q-6 10 -16 44.5t-25 45.5z" />
    <glyph glyph-name="aacute" unicode="&#xe1;" horiz-adv-x="389" 
d="M-85 678l-2 -4q20 10 35 10q7 0 10 -2t2 -8q-4 -18 -17 -48.5t-26.5 -57.5t-25.5 -58.5t-12.5 -50t11.5 -33.5q7 -10 -1.5 -19t-20.5 -6q-17 14 -19 38t9 52t24.5 55.5t27.5 58.5t19 50q-41 -30 -112 -90q-126 -99 -143 -67q-12 23 37 88q61 82 135 115q31 14 59 14
q7 0 10 -8v-29zM-300 522q26 3 58.5 25.5t73 59.5t58.5 50l-6 7l4 24q-43 0 -103 -57.5t-85 -108.5zM-105 752q-10 -4 -15.5 -2t-4 9t10.5 13q12 8 31.5 19t28.5 18.5t14 17.5q8 7 14.5 8t8.5 -3.5t0 -12.5q-6 -10 -18.5 -21t-20.5 -16t-27 -16.5t-22 -13.5z" />
    <glyph glyph-name="acircumflex" unicode="&#xe2;" horiz-adv-x="389" 
d="M-85 678l-2 -4q20 10 35 10q7 0 10 -2t2 -8q-4 -18 -17 -48.5t-26.5 -57.5t-25.5 -58.5t-12.5 -50t11.5 -33.5q7 -10 -1.5 -19t-20.5 -6q-17 14 -19 38t9 52t24.5 55.5t27.5 58.5t19 50q-41 -30 -112 -90q-126 -99 -143 -67q-12 23 37 88q61 82 135 115q31 14 59 14
q7 0 10 -8v-29zM-300 522q26 3 58.5 25.5t73 59.5t58.5 50l-6 7l4 24q-43 0 -103 -57.5t-85 -108.5zM-116 743q-7 -10 -16.5 -8t-7.5 13q12 19 39 44t28 27q11 17 21 11q6 -4 4 -13q5 -5 2 -12q-4 -8 -4 -19l2 -28q1 0 2 -1t2 -1q7 -10 -2 -19t-21 -6q-20 8 -12 49
q-27 -23 -37 -37z" />
    <glyph glyph-name="atilde" unicode="&#xe3;" horiz-adv-x="389" 
d="M-85 678l-2 -4q20 10 35 10q7 0 10 -2t2 -8q-4 -18 -17 -48.5t-26.5 -57.5t-25.5 -58.5t-12.5 -50t11.5 -33.5q7 -10 -1.5 -19t-20.5 -6q-17 14 -19 38t9 52t24.5 55.5t27.5 58.5t19 50q-41 -30 -112 -90q-126 -99 -143 -67q-12 23 37 88q61 82 135 115q31 14 59 14
q7 0 10 -8v-29zM-300 522q26 3 58.5 25.5t73 59.5t58.5 50l-6 7l4 24q-43 0 -103 -57.5t-85 -108.5zM-114 791q-12 -14 -22 -7q-6 5 0 15q8 8 10 12q8 8 16 8q12 -1 35.5 -20.5t38.5 -14.5q1 3 8 17q11 19 22 11q7 -4 3 -15q-14 -25 -30 -34.5t-29.5 -5.5t-24.5 11t-18.5 15
t-8.5 8z" />
    <glyph glyph-name="adieresis" unicode="&#xe4;" horiz-adv-x="389" 
d="M-85 678l-2 -4q20 10 35 10q7 0 10 -2t2 -8q-4 -18 -17 -48.5t-26.5 -57.5t-25.5 -58.5t-12.5 -50t11.5 -33.5q7 -10 -1.5 -19t-20.5 -6q-17 14 -19 38t9 52t24.5 55.5t27.5 58.5t19 50q-41 -30 -112 -90q-126 -99 -143 -67q-12 23 37 88q61 82 135 115q31 14 59 14
q7 0 10 -8v-29zM-300 522q26 3 58.5 25.5t73 59.5t58.5 50l-6 7l4 24q-43 0 -103 -57.5t-85 -108.5zM-58 782q17 23 32 17q11 -5 4 -23l-10 -18q-5 -12 -15.5 -16.5t-18.5 0.5t-7 16q2 5 8 12.5t7 11.5zM-136 770q15 23 32 17q12 -5 7 -21l-4 -6q-6 -20 -25 -20
q-15 3 -14 18z" />
    <glyph glyph-name="aring" unicode="&#xe5;" horiz-adv-x="389" 
d="M-85 678l-2 -4q20 10 35 10q7 0 10 -2t2 -8q-4 -18 -17 -48.5t-26.5 -57.5t-25.5 -58.5t-12.5 -50t11.5 -33.5q7 -10 -1.5 -19t-20.5 -6q-17 14 -19 38t9 52t24.5 55.5t27.5 58.5t19 50q-41 -30 -112 -90q-126 -99 -143 -67q-12 23 37 88q61 82 135 115q31 14 59 14
q7 0 10 -8v-29zM-300 522q26 3 58.5 25.5t73 59.5t58.5 50l-6 7l4 24q-43 0 -103 -57.5t-85 -108.5zM-108 848q2 2 9 2q8 4 14 4q47 0 45 -36q-2 -35 -40 -65q-23 -19 -46 -20q-34 -1 -35 33q-1 37 30 67q11 10 23 15zM-97 827h-2q-1 0 -2 -1t-2 -1q-20 -9 -28 -43
q-6 -24 5 -23q2 0 4 1q39 17 51 42q9 24 -26 25z" />
    <glyph glyph-name="ae" unicode="&#xe6;" horiz-adv-x="468" 
d="M190 678l-40 -55l4 10q-56 -60 -97 -94q-97 -84 -135 -65q-26 13 -5 63q28 66 106 114q53 33 118 45q14 0 13.5 -11t-17.5 -15q-31 -4 -89 -37.5t-96.5 -77t-12.5 -68.5q43 10 82 41t84.5 82t64.5 68q11 9 20 0zM-115 590h-4q-18 -49 -8 -64q18 -29 102 9.5t138 78.5
q14 11 19.5 1.5t-9.5 -19.5q-60 -45 -166.5 -90.5t-112.5 2.5q-3 48 40.5 126.5t95.5 88.5q66 13 63 -16t-61 -71q-51 -38 -97 -46zM2 700q-25 1 -53.5 -23t-50.5 -59q47 11 95 46q39 31 9 36z" />
    <glyph glyph-name="ccedilla" unicode="&#xe7;" horiz-adv-x="253" 
d="M-68 702q0 -11 -11 -17t-17 3q-26 41 -95.5 -22.5t-84.5 -114.5q-18 -65 50 -47q58 15 206 110q3 1 4 2q15 6 18.5 -2.5t-10.5 -17.5q-21 -14 -56.5 -33.5t-52.5 -30.5q-70 -42 -84 -47q-86 -35 -102 14q-15 43 29 110q53 81 136 108q11 4 23 6q36 9 47 -21zM-203 498
q9 3 13.5 0.5t3.5 -9t-9 -12.5q-25 -16 -28 -33q7 -4 24.5 -4t24.5 -4q10 -5 6 -26q-7 -62 -119 -62q-13 4 -5 17q5 10 18 10t45 4q36 9 36 35q0 1 -5.5 2t-15 -1t-18 0t-14 6t-3.5 16t13 30q16 23 33 31z" />
    <glyph glyph-name="egrave" unicode="&#xe8;" horiz-adv-x="327" 
d="M-256 590h-4q-18 -49 -8 -64q18 -29 101 9.5t138 78.5q14 11 20 1.5t-9 -19.5q-60 -45 -166.5 -90.5t-112.5 2.5q-3 48 40 126.5t95 88.5q66 13 63.5 -16t-60.5 -71q-51 -38 -97 -46zM-139 700q-25 1 -54 -23t-51 -59q46 11 94 46q45 32 11 36zM-117 924q-6 9 4 18t19 6
q19 -14 30 -52t17 -48q0 -11 -11.5 -17t-17.5 3q-6 10 -16 44.5t-25 45.5z" />
    <glyph glyph-name="eacute" unicode="&#xe9;" horiz-adv-x="327" 
d="M-256 590h-4q-18 -49 -8 -64q18 -29 101 9.5t138 78.5q14 11 20 1.5t-9 -19.5q-60 -45 -166.5 -90.5t-112.5 2.5q-3 48 40 126.5t95 88.5q66 13 63.5 -16t-60.5 -71q-51 -38 -97 -46zM-139 700q-25 1 -54 -23t-51 -59q46 11 94 46q45 32 11 36zM-92 821q-16 -8 -18 3
q-3 9 10 18q11 8 30.5 19t28.5 18.5t14 17.5q8 7 14.5 8t8.5 -3.5t0 -12.5q-5 -8 -12.5 -16t-18.5 -16t-18 -12.5t-21 -13t-18 -10.5z" />
    <glyph glyph-name="ecircumflex" unicode="&#xea;" horiz-adv-x="327" 
d="M-256 590h-4q-18 -49 -8 -64q18 -29 101 9.5t138 78.5q14 11 20 1.5t-9 -19.5q-60 -45 -166.5 -90.5t-112.5 2.5q-3 48 40 126.5t95 88.5q66 13 63.5 -16t-60.5 -71q-51 -38 -97 -46zM-139 700q-25 1 -54 -23t-51 -59q46 11 94 46q45 32 11 36zM-119 805
q-7 -10 -16.5 -8.5t-7.5 12.5q12 19 39 44.5t28 27.5q11 17 21 11q6 -4 4 -13q6 -6 2 -13q-4 -8 -4 -18l2 -29q1 0 2 -1t2 -1q7 -10 -2 -18.5t-21 -5.5q-20 8 -12 49q-27 -23 -37 -37z" />
    <glyph glyph-name="edieresis" unicode="&#xeb;" horiz-adv-x="327" 
d="M-256 590h-4q-18 -49 -8 -64q18 -29 101 9.5t138 78.5q14 11 20 1.5t-9 -19.5q-60 -45 -166.5 -90.5t-112.5 2.5q-3 48 40 126.5t95 88.5q66 13 63.5 -16t-60.5 -71q-51 -38 -97 -46zM-139 700q-25 1 -54 -23t-51 -59q46 11 94 46q45 32 11 36zM-55 844q17 24 33 16
q10 -5 4 -22l-11 -19q-5 -12 -15.5 -16.5t-18.5 0.5t-7 16q2 5 8 13t7 12zM-133 831q15 23 32 17q12 -5 7 -21l-4 -6q-6 -20 -25 -20q-15 3 -14 18z" />
    <glyph glyph-name="igrave" unicode="&#xec;" horiz-adv-x="280" 
d="M-228 682q10 10 17.5 7t2.5 -15q-145 -225 -66 -222q64 2 285 160q15 6 18.5 -2.5t-8.5 -17.5q-19 -14 -50 -37t-53 -38.5t-38 -24.5q-63 -33 -107 -49t-67.5 -16t-31.5 15t-4 37.5t19.5 57t35 68.5t47.5 77zM-204 825q-6 9 4 18.5t19 6.5q19 -14 30 -52t17 -48
q0 -11 -11.5 -17.5t-17.5 2.5q-6 10 -16 44.5t-25 45.5z" />
    <glyph glyph-name="iacute" unicode="&#xed;" horiz-adv-x="280" 
d="M-228 682q10 10 17.5 7t2.5 -15q-145 -225 -66 -222q64 2 285 160q15 6 18.5 -2.5t-8.5 -17.5q-19 -14 -50 -37t-53 -38.5t-38 -24.5q-63 -33 -107 -49t-67.5 -16t-31.5 15t-4 37.5t19.5 57t35 68.5t47.5 77zM-196 760q-17 -8 -19 3q-1 9 11 17q11 7 25 15.5t21.5 13.5
t15.5 12t12 15q12 10 19.5 6.5t2.5 -15.5q-6 -10 -18.5 -21t-20.5 -16t-27 -16.5t-22 -13.5z" />
    <glyph glyph-name="icircumflex" unicode="&#xee;" horiz-adv-x="280" 
d="M-228 682q10 10 17.5 7t2.5 -15q-145 -225 -66 -222q64 2 285 160q15 6 18.5 -2.5t-8.5 -17.5q-19 -14 -50 -37t-53 -38.5t-38 -24.5q-63 -33 -107 -49t-67.5 -16t-31.5 15t-4 37.5t19.5 57t35 68.5t47.5 77zM-210 750q-7 -10 -17 -8.5t-8 12.5q12 19 39.5 44t28.5 27
q11 17 21 11q6 -4 4 -13q5 -5 2 -12q-4 -8 -4 -18l2 -29q1 0 2 -1t2 -1q7 -10 -2 -19t-21 -6q-20 8 -12 49q-29 -25 -37 -36z" />
    <glyph glyph-name="idieresis" unicode="&#xef;" horiz-adv-x="280" 
d="M-228 682q10 10 17.5 7t2.5 -15q-145 -225 -66 -222q64 2 285 160q15 6 18.5 -2.5t-8.5 -17.5q-19 -14 -50 -37t-53 -38.5t-38 -24.5q-63 -33 -107 -49t-67.5 -16t-31.5 15t-4 37.5t19.5 57t35 68.5t47.5 77zM-155 786q17 24 33 16q10 -5 4 -22l-10 -18
q-5 -12 -15.5 -16.5t-18.5 0.5t-7 16q2 5 7.5 12.5t6.5 11.5zM-232 774q15 23 31 17q12 -4 7 -21l-4 -6q-6 -20 -25 -20q-15 3 -14 18z" />
    <glyph glyph-name="ntilde" unicode="&#xf1;" horiz-adv-x="395" 
d="M-227 696q13 19 24 11q5 -5 2 -15q-10 -27 -37.5 -77.5t-37.5 -77.5q18 8 41 26.5t48.5 42.5t34.5 31q25 22 56 39q90 57 89 7q0 -33 -59 -155q-24 -49 -22 -55q-2 -11 -13.5 -17t-17.5 3q-7 21 6.5 51t33.5 55.5t33.5 55.5t6.5 51q-29 4 -64.5 -19.5t-64 -54.5
t-66 -59.5t-67.5 -32.5q-8 2 -8 14q10 31 41 89t41 87zM-102 756q-11 -13 -22 -7q-7 4 -1 15q8 8 10 12q8 8 17 8q12 -1 35 -20t38 -14q1 4 5 9.5t4 6.5q11 18 21 11q7 -4 3 -15q-14 -25 -30 -34.5t-29 -5.5t-24 11t-18.5 15t-8.5 8z" />
    <glyph glyph-name="ograve" unicode="&#xf2;" horiz-adv-x="268" 
d="M-246 659q9 9 15 9l2 4q5 7 14 12q35 14 50 -5t9 -58q33 -11 47 -11q1 0 6 -0.5t11.5 -0.5h12.5t10.5 0.5t5.5 2.5q13 9 19 2.5t-5 -18.5q-16 -13 -47 -12.5t-66 12.5q-12 -54 -49.5 -100t-83.5 -47l-10 4q-13 46 1.5 104.5t57.5 101.5zM-182 608q-35 15 -45 39
q-37 -37 -49 -87.5t-3 -84.5h9q32 26 58 64t30 69zM-197 649l4 -4zM-150 831q-6 9 4 18.5t19 6.5q19 -14 30 -52t17 -48q0 -11 -11.5 -17.5t-17.5 2.5q-6 10 -16 44.5t-25 45.5z" />
    <glyph glyph-name="oacute" unicode="&#xf3;" horiz-adv-x="268" 
d="M-246 659q9 9 15 9l2 4q5 7 14 12q35 14 50 -5t9 -58q33 -11 47 -11q1 0 6 -0.5t11.5 -0.5h12.5t10.5 0.5t5.5 2.5q13 9 19 2.5t-5 -18.5q-16 -13 -47 -12.5t-66 12.5q-12 -54 -49.5 -100t-83.5 -47l-10 4q-13 46 1.5 104.5t57.5 101.5zM-182 608q-35 15 -45 39
q-37 -37 -49 -87.5t-3 -84.5h9q32 26 58 64t30 69zM-197 649l4 -4zM-166 741q-16 -8 -18 3q-3 9 10 18q12 8 31.5 19t28.5 18.5t14 17.5q8 7 14.5 8t8 -3.5t-0.5 -12.5q-5 -8 -12.5 -16t-18.5 -16t-18 -12.5t-21 -13t-18 -10.5z" />
    <glyph glyph-name="ocircumflex" unicode="&#xf4;" horiz-adv-x="268" 
d="M-246 659q9 9 15 9l2 4q5 7 14 12q35 14 50 -5t9 -58q33 -11 47 -11q1 0 6 -0.5t11.5 -0.5h12.5t10.5 0.5t5.5 2.5q13 9 19 2.5t-5 -18.5q-16 -13 -47 -12.5t-66 12.5q-12 -54 -49.5 -100t-83.5 -47l-10 4q-13 46 1.5 104.5t57.5 101.5zM-182 608q-35 15 -45 39
q-37 -37 -49 -87.5t-3 -84.5h9q32 26 58 64t30 69zM-197 649l4 -4zM-164 743q-7 -10 -16.5 -8t-7.5 13q12 19 39 44t28 27q11 17 21 11q6 -4 4 -13q5 -5 2 -12q-4 -8 -4 -19l2 -28q1 0 2 -1t2 -1q7 -10 -2 -19t-21 -6q-20 8 -12 49q-27 -23 -37 -37z" />
    <glyph glyph-name="otilde" unicode="&#xf5;" horiz-adv-x="268" 
d="M-246 659q9 9 15 9l2 4q5 7 14 12q35 14 50 -5t9 -58q33 -11 47 -11q1 0 6 -0.5t11.5 -0.5h12.5t10.5 0.5t5.5 2.5q13 9 19 2.5t-5 -18.5q-16 -13 -47 -12.5t-66 12.5q-12 -54 -49.5 -100t-83.5 -47l-10 4q-13 46 1.5 104.5t57.5 101.5zM-182 608q-35 15 -45 39
q-37 -37 -49 -87.5t-3 -84.5h9q32 26 58 64t30 69zM-197 649l4 -4zM-162 768q-12 -14 -22 -7q-6 5 0 15q8 8 10 12q9 9 16 9q12 -1 35.5 -20.5t38.5 -14.5q1 3 2.5 6l3 6t2.5 4q11 19 22 11q7 -4 3 -15q-14 -25 -30 -34.5t-29.5 -5.5t-24.5 11t-18.5 15t-8.5 8z" />
    <glyph glyph-name="odieresis" unicode="&#xf6;" horiz-adv-x="268" 
d="M-246 659q9 9 15 9l2 4q5 7 14 12q35 14 50 -5t9 -58q33 -11 47 -11q1 0 6 -0.5t11.5 -0.5h12.5t10.5 0.5t5.5 2.5q13 9 19 2.5t-5 -18.5q-16 -13 -47 -12.5t-66 12.5q-12 -54 -49.5 -100t-83.5 -47l-10 4q-13 46 1.5 104.5t57.5 101.5zM-182 608q-35 15 -45 39
q-37 -37 -49 -87.5t-3 -84.5h9q32 26 58 64t30 69zM-197 649l4 -4zM-123 756q17 24 33 16q10 -5 4 -22l-10 -19q-5 -12 -15.5 -16.5t-18.5 0.5t-7 16q2 5 7.5 13t6.5 12zM-201 743q15 23 32 17q12 -5 7 -21l-4 -6q-6 -20 -25 -20q-15 3 -14 18z" />
    <glyph glyph-name="oslash" unicode="&#xf8;" horiz-adv-x="268" 
d="M-246 659q9 9 15 9l2 4q5 7 14 12q35 14 50 -5t9 -58q33 -11 47 -11q1 0 6 -0.5t11.5 -0.5h12.5t10.5 0.5t5.5 2.5q13 9 19 2.5t-5 -18.5q-16 -13 -47 -12.5t-66 12.5q-12 -54 -49.5 -100t-83.5 -47l-10 4q-13 46 1.5 104.5t57.5 101.5zM-182 608q-35 15 -45 39
q-37 -37 -49 -87.5t-3 -84.5h9q32 26 58 64t30 69zM-197 649l4 -4zM272 1024q13 9 19.5 2.5t-2.5 -18.5q-81 -66 -247.5 -193.5t-293 -233t-231.5 -214.5q-11 -8 -18.5 -4t-0.5 16q106 109 231.5 214.5t294 235t248.5 195.5z" />
    <glyph glyph-name="ugrave" unicode="&#xf9;" horiz-adv-x="331" 
d="M-243 657q10 6 16.5 4.5t6 -8.5t-9.5 -14q-15 -40 -19 -63t4 -33t34 2.5t71 46.5q39 27 57 57q0 1 2 3.5t2 4.5q12 16 24 8q4 -4 3 -12l-2 -2q-10 -26 -6 -73q5 -54 106 24q3 3 10 7q5 5 8 7q12 9 18.5 2.5t-3.5 -18.5q-19 -14 -30 -22.5t-33 -23t-37 -19.5t-31 -8
t-25.5 6.5t-11.5 29.5q-4 25 -2 41l-37 -31q-119 -102 -143 -43q-15 36 9 95q9 24 19 32zM-54 868q-6 9 3.5 18.5t18.5 6.5q19 -14 30 -52t17 -48q0 -11 -11 -17.5t-17 2.5q-6 10 -16 44.5t-25 45.5z" />
    <glyph glyph-name="uacute" unicode="&#xfa;" horiz-adv-x="331" 
d="M-243 657q10 6 16.5 4.5t6 -8.5t-9.5 -14q-15 -40 -19 -63t4 -33t34 2.5t71 46.5q39 27 57 57q0 1 2 3.5t2 4.5q12 16 24 8q4 -4 3 -12l-2 -2q-10 -26 -6 -73q5 -54 106 24q3 3 10 7q5 5 8 7q12 9 18.5 2.5t-3.5 -18.5q-19 -14 -30 -22.5t-33 -23t-37 -19.5t-31 -8
t-25.5 6.5t-11.5 29.5q-4 25 -2 41l-37 -31q-119 -102 -143 -43q-15 36 9 95q9 24 19 32zM-65 768q-17 -8 -19 3q-1 9 11 17q11 7 25 15.5t21.5 13.5t15.5 12t12 15q8 7 14.5 8t8.5 -3.5t0 -12.5q-6 -10 -18.5 -21t-20.5 -16.5t-28 -17.5t-22 -13z" />
    <glyph glyph-name="ucircumflex" unicode="&#xfb;" horiz-adv-x="331" 
d="M-243 657q10 6 16.5 4.5t6 -8.5t-9.5 -14q-15 -40 -19 -63t4 -33t34 2.5t71 46.5q39 27 57 57q0 1 2 3.5t2 4.5q12 16 24 8q4 -4 3 -12l-2 -2q-10 -26 -6 -73q5 -54 106 24q3 3 10 7q5 5 8 7q12 9 18.5 2.5t-3.5 -18.5q-19 -14 -30 -22.5t-33 -23t-37 -19.5t-31 -8
t-25.5 6.5t-11.5 29.5q-4 25 -2 41l-37 -31q-119 -102 -143 -43q-15 36 9 95q9 24 19 32zM-77 764q-7 -10 -16.5 -8.5t-7.5 12.5q12 19 39 44.5t28 27.5q11 17 21 11q6 -4 4 -13q6 -6 2 -13q-4 -8 -4 -18l2 -29q1 0 2 -1t2 -1q7 -10 -2 -18.5t-21 -5.5q-20 8 -12 49
q-27 -23 -37 -37z" />
    <glyph glyph-name="udieresis" unicode="&#xfc;" horiz-adv-x="331" 
d="M-243 657q10 6 16.5 4.5t6 -8.5t-9.5 -14q-15 -40 -19 -63t4 -33t34 2.5t71 46.5q39 27 57 57q0 1 2 3.5t2 4.5q12 16 24 8q4 -4 3 -12l-2 -2q-10 -26 -6 -73q5 -54 106 24q3 3 10 7q5 5 8 7q12 9 18.5 2.5t-3.5 -18.5q-19 -14 -30 -22.5t-33 -23t-37 -19.5t-31 -8
t-25.5 6.5t-11.5 29.5q-4 25 -2 41l-37 -31q-119 -102 -143 -43q-15 36 9 95q9 24 19 32zM-30 799q17 24 33 16q10 -5 4 -22l-10 -19q-5 -12 -15.5 -16.5t-18.5 0.5t-7 16q2 5 7.5 13t6.5 12zM-108 786q15 23 32 17q12 -5 7 -21l-4 -6q-6 -20 -25 -20q-15 3 -14 18z" />
    <glyph glyph-name="yacute" unicode="&#xfd;" horiz-adv-x="567" 
d="M-248 664q13 18 24 10q7 -4 3 -15q-7 -17 -23 -54.5t-24.5 -61.5t-14.5 -56l11 -4q38 19 104.5 80t120.5 108t76 44q6 -3 6 -13q-9 -65 -49 -151q98 70 176 65q14 -2 5 -15q-6 -9 -17 -11q-42 4 -84.5 -16.5t-98.5 -61.5q-73 -152 -187 -310t-208 -231q-15 -11 -23 0
q0 32 21 101q44 128 135 231.5t234 212.5l6 4q49 100 61 164q-18 -13 -64.5 -59t-87 -84t-87.5 -63.5t-76 -12.5q-1 2 -1 6t-1 6q5 22 9.5 40.5t11.5 38.5t11.5 31t15 37.5t15.5 39.5zM-420 8q80 73 176.5 206.5t165.5 262.5q-124 -99 -204.5 -192t-118.5 -207
q-17 -50 -19 -70zM53 768q-17 -8 -19 3q-1 9 11 17q11 7 25 15.5t21.5 13.5t15.5 12t12 15q8 7 14.5 8t8 -3.5t-0.5 -12.5q-5 -8 -12.5 -16t-18.5 -16t-18 -12.5t-21 -13t-18 -10.5z" />
    <glyph glyph-name="thorn" unicode="&#xfe;" horiz-adv-x="241" 
d="M215 1047q13 18 24 10q6 -5 3 -15q-59 -131 -203 -389q45 43 52 48.5t65 35.5q6 3 12 0q24 -20 11 -60t-42.5 -81t-69.5 -75t-71 -42l-64 -16l-45 -88q-5 -9 -20 -38t-25.5 -49t-23 -50t-18 -51.5t-5.5 -43t10 -34.5q6 -11 -2.5 -19.5t-21.5 -5.5q-14 20 -15 47.5
t11.5 63.5t24 61.5t33 67t28.5 55.5q9 20 45 84q-3 5 -0.5 11t8.5 9q25 46 96.5 173.5t118 216.5t84.5 174zM16 604q-4 -4 -10 -4l-57 -106q82 27 134.5 76.5t76.5 129.5q-3 5 -10 9q-42 -21 -134 -105z" />
    <glyph glyph-name="ydieresis" unicode="&#xff;" horiz-adv-x="567" 
d="M-248 664q13 18 24 10q7 -4 3 -15q-7 -17 -23 -54.5t-24.5 -61.5t-14.5 -56l11 -4q38 19 104.5 80t120.5 108t76 44q6 -3 6 -13q-9 -65 -49 -151q98 70 176 65q14 -2 5 -15q-6 -9 -17 -11q-42 4 -84.5 -16.5t-98.5 -61.5q-73 -152 -187 -310t-208 -231q-15 -11 -23 0
q0 32 21 101q44 128 135 231.5t234 212.5l6 4q49 100 61 164q-18 -13 -64.5 -59t-87 -84t-87.5 -63.5t-76 -12.5q-1 2 -1 6t-1 6q5 22 9.5 40.5t11.5 38.5t11.5 31t15 37.5t15.5 39.5zM-420 8q80 73 176.5 206.5t165.5 262.5q-124 -99 -204.5 -192t-118.5 -207
q-17 -50 -19 -70zM-8 829q17 24 33 16q10 -5 4 -22l-11 -18q-5 -12 -15.5 -16.5t-18.5 0.5t-7 16q2 5 8 12.5t7 11.5zM-86 817q15 23 32 17q12 -5 7 -21l-4 -6q-6 -20 -25 -20q-15 3 -14 18z" />
    <glyph glyph-name="dotlessi" unicode="&#x131;" horiz-adv-x="280" 
d="M17 682q10 10 18 7t3 -15q-145 -225 -66 -222q64 2 285 160q15 6 18.5 -2.5t-8.5 -17.5q-19 -14 -50 -37t-53 -38.5t-38 -24.5q-63 -33 -107 -49t-67.5 -16t-32 15t-4.5 37.5t19.5 57t35.5 68.5t47 77z" />
    <glyph glyph-name="OE" unicode="&#x152;" horiz-adv-x="942" 
d="M315 481l7 -18q-21 -22 -42.5 -43t-51.5 -49t-57.5 -50t-58 -43t-57 -32.5t-49.5 -15.5t-40.5 6.5t-26.5 35.5q-17 49 33.5 195.5t125.5 269.5q-17 46 -18 101t20.5 115t53 119t80.5 111.5t103 92.5t120.5 63.5t132.5 22.5q130 0 137 -143l-31 -23q-6 53 -30 86
q-35 53 -102 56t-137.5 -32.5t-136 -93t-102.5 -118.5q-40 -67 -56.5 -120.5t-15.5 -97t5 -100.5q34 47 62.5 72t74.5 41q12 0 13.5 -8t-11.5 -17q-44 -20 -72 -45t-61 -74v-40q2 -9 -10 -16.5t-19 -0.5v10q-57 -101 -97 -226t-38 -185q2 -22 21 -28.5t44 0.5t50 22
q108 64 237 200zM633 1276q-7 -10 -17 -8.5t-8 12.5l21 41q-93 3 -279 -107t-305 -210q-13 -10 -29 -24.5t-39 -37.5t-40 -44.5t-31.5 -45.5t-13.5 -41.5t14 -32.5q29 -17 67 -16t98.5 16.5t112 32.5t107.5 33.5t86 19.5q9 0 11 -3.5t-1 -12.5q-9 -13 -25 -27t-28.5 -22.5
t-34 -23t-31.5 -21.5q-4 -3 -59.5 -41.5t-83.5 -59t-85 -63t-92 -72t-75 -65.5t-62 -65t-28 -50q37 -13 107 8.5t167 74t154.5 86.5t145.5 89q22 14 32 20q15 6 18.5 -2.5t-10.5 -17.5q-87 -54 -137 -84.5t-155 -90t-182.5 -90t-123.5 -30.5q-9 0 -26 6.5t-19 7.5
q-2 2 -2 13q8 31 41.5 73t74 79.5t103.5 86.5t104.5 79t105.5 74.5t79 55.5q6 4 36.5 23.5t45.5 31.5q-34 -7 -90.5 -24.5t-106.5 -32.5t-102.5 -27.5t-95.5 -11.5t-68 19q-16 12 -19.5 29.5t6.5 40t21.5 42t35.5 46t37.5 40.5t38 38t26.5 26q104 103 314 218t318 114
q14 -3 7 -17z" />
    <glyph glyph-name="oe" unicode="&#x153;" horiz-adv-x="446" 
d="M133 643l-35 -27q0 7 2 9q-22 3 -41 16q-2 4 2 16q9 11 13.5 15t19.5 10q8 2 15 0q14 -14 14 -37q2 0 5 -1t5 -1zM51 502l8 -33q-35 -42 -73 -56.5t-58 9.5t-4 82q28 115 115 153q8 0 11 -4t0.5 -9.5t-11.5 -10.5q-18 -8 -37.5 -29t-34 -47t-23.5 -52t-5.5 -46t20.5 -27
q38 -10 92 70zM-137 590h-4q-18 -50 -9 -64q18 -29 102 9.5t138 78.5q14 11 19.5 1.5t-9.5 -19.5q-61 -45 -166.5 -90.5t-111.5 2.5q-3 48 40 126.5t95 88.5q66 13 63.5 -16t-60.5 -71q-51 -38 -97 -46zM-20 700q-25 1 -54 -23t-51 -59q46 11 94 46q45 32 11 36z" />
    <glyph glyph-name="Scaron" unicode="&#x160;" horiz-adv-x="985" 
d="M860 1288q0 -11 -11.5 -17t-17.5 3q-11 43 -26.5 70.5t-33.5 38.5t-32 14t-32 2q-100 -1 -250 -58t-294 -142.5t-258 -202t-138 -224.5q-13 -56 21 -92t98.5 -52.5t134 -27t141 -25.5t106.5 -38q222 79 379 98q13 0 13 -11t-17 -16q-131 -15 -352 -90q12 -16 16 -26
q13 -44 -2 -85.5t-52.5 -75t-83 -59.5t-101.5 -47q-21 -8 -51 -15.5t-66.5 -14.5t-64 -3.5t-33.5 19.5q-7 22 -7.5 40.5t7 35t18 29.5t31 29t39 28t49.5 30q43 27 127 68q75 37 108 49q-14 7 -30.5 13t-36 10.5t-32 7t-35 6t-28.5 4.5q-9 2 -34 7q-24 4 -37.5 7t-41 9
t-45 11.5t-43.5 14t-42.5 17.5t-36 20t-29.5 24t-18.5 28t-8 33t8.5 38q4 57 45 121t103.5 121.5t122 102.5t120.5 83q194 122 381 188q297 104 344 -40q8 -25 8 -58zM291 426q3 50 -39 78q-147 -54 -250 -116.5t-123 -121.5q-14 -50 49 -50q79 0 201.5 62.5t153.5 121.5
q7 14 8 26zM569 1391q10 6 16.5 4.5t6 -9t-9.5 -14.5q-3 -2 -12 -8.5t-12 -9t-10.5 -8t-11 -8.5t-9.5 -8.5t-9 -9.5t-7.5 -9.5t-8 -11t-6.5 -11.5q-6 -7 -11.5 -9t-9 0.5t-4.5 8.5q-28 18 -12 98q10 16 23 13q7 -1 5 -10q-11 -55 0 -72q17 25 82 74z" />
    <glyph glyph-name="scaron" unicode="&#x161;" horiz-adv-x="294" 
d="M-78 723q6 -10 -2 -19t-20 -6q-14 5 -51.5 -7.5t-68.5 -33.5t-26 -36q4 -16 22.5 -25.5t46.5 -18.5t42 -18q25 13 51 25t52 22t30 12q8 0 11 -4t0.5 -9.5t-11.5 -10.5q-98 -40 -117 -49q10 -10 13 -23q7 -22 -25.5 -57.5t-74 -54.5t-58.5 -2q-48 51 100 135
q-14 7 -47 17.5t-50 20.5t-13 27q5 35 42 66.5t82 45t72 3.5zM-137 510q0 8 -8 20q-84 -45 -105 -88q9 -14 28.5 -10t39 15.5t33.5 29.5t12 33zM12 918q10 6 16.5 4.5t6 -9t-9.5 -14.5q-3 -2 -12 -8.5t-12 -9t-10.5 -8t-11 -8.5t-9.5 -8.5t-9 -9.5t-7.5 -9.5t-8 -11
t-6.5 -11.5q-6 -7 -11.5 -9t-9 0.5t-4.5 8.5q-28 18 -12 98q10 16 23 13q7 -2 5 -11q-11 -54 0 -71q17 25 82 74z" />
    <glyph glyph-name="Ydieresis" unicode="&#x178;" horiz-adv-x="626" 
d="M188 1382q12 9 18.5 2.5t-3.5 -18.5q-12 -11 -29.5 -44t-36 -74t-24.5 -52q-18 -33 -67 -120.5t-73.5 -134t-57.5 -118t-52 -131.5q-57 -168 12 -182q41 -8 85.5 5.5t91 48t77 61.5t72.5 69q39 38 77 79t79 91t65.5 81.5t73 94t65.5 84.5q3 3 76 95.5t96 126.5q2 4 10 8
h11q10 0 14 -6q0 -9 -70 -130t-90 -153q-14 -26 -60 -111t-66 -121.5t-63 -110.5t-73 -120.5t-72.5 -107t-83.5 -111.5q123 3 134 -100q-2 -11 -13.5 -17.5t-17.5 2.5q7 50 -27.5 71.5t-97.5 18.5l-45 -51q-3 -3 -11 -12q-262 -289 -343 -207q-27 30 16.5 101.5t91.5 97.5
q148 80 275 94q119 149 215.5 308t214.5 380l73 139q-13 -17 -57.5 -75.5t-62 -81.5t-57.5 -74t-65 -81t-61 -72.5t-69 -78t-68 -69.5q-158 -154 -269 -190q-127 -43 -136 106q-2 38 17 97.5t56 134.5t69 134t77 137.5t59 104.5q8 15 25.5 57.5t35.5 74.5t39 50zM102 319
l31 37q-66 -9 -135.5 -34t-110.5 -54q-40 -30 -76.5 -81.5t-15.5 -77.5q10 -13 28 -13.5t39.5 10.5t45.5 27.5t49.5 39t47.5 43.5t43 43.5t33.5 36t20.5 23.5zM313 1231q17 24 33 16q10 -5 4 -22l-10 -19q-5 -12 -15.5 -16.5t-18.5 0.5t-7 16q2 5 7.5 13t6.5 12zM236 1219
q15 22 31 16q11 -6 7 -21l-4 -6q-6 -20 -25 -20q-15 3 -14 18z" />
    <glyph glyph-name="Zcaron" unicode="&#x17d;" horiz-adv-x="870" 
d="M-66 1122q-6 9 4 18.5t19 6.5q91 -29 227.5 -14.5t246 44t250.5 57.5t241 26q5 0 7 -3.5t1 -7.5q-2 -16 -25.5 -37.5t-60.5 -43.5t-70.5 -40t-71.5 -37t-47 -24q-6 -3 -109 -58.5t-171.5 -94.5t-163.5 -96.5t-153.5 -105t-73.5 -79.5q42 -16 106 -17.5t114 2.5t102.5 -11
t84.5 -54q6 -12 6 -29l205 88q8 0 11 -4t0.5 -9.5t-11.5 -10.5q-13 -6 -93 -39.5t-122 -52.5q-33 -59 -162 -160q-78 -62 -118 -91.5t-114.5 -80.5t-137.5 -79.5t-121 -39.5q-9 5 -10 6q4 34 21 65.5t50.5 61.5t58 48.5t68.5 47.5q170 114 436 234q0 4 3 13.5t4 13.5
q-29 35 -82.5 48t-106 10.5t-117.5 0t-106 18.5l2 13q15 34 60 77t93.5 78t127.5 82t123 71t122 65.5t86 45.5q18 10 107 58t135 74q46 22 84 57q-41 1 -84.5 -5.5t-112 -21t-88.5 -18.5q-32 -7 -114 -25.5t-122 -26.5t-111.5 -19.5t-118 -13.5t-104 2t-104.5 17zM344 473v4
q-256 -120 -412 -223q-34 -22 -53 -35.5t-53 -40.5t-52.5 -53t-21.5 -51q51 10 183 88t256 171t153 140zM659 1581q15 10 21 1.5t-8 -19.5q-3 -2 -12 -8.5t-12 -9t-10.5 -8t-11 -8.5t-9.5 -8.5t-9 -9.5t-7.5 -9.5t-8 -11t-6.5 -11.5q-6 -7 -11.5 -9t-9 0.5t-4.5 8.5
q-28 18 -12 98q9 15 23 13q8 -1 6 -11q-11 -55 0 -72q18 26 81 74z" />
    <glyph glyph-name="zcaron" unicode="&#x17e;" horiz-adv-x="335" 
d="M-229 629q-9 3 -7.5 12.5t13.5 13.5q21 2 51.5 10.5t51 14t49 7.5t44.5 -7q4 -4 4 -10q-5 -31 -32.5 -58.5t-59.5 -45.5t-65 -44t-45 -53q-15 -29 0 -63q80 65 168.5 123.5t146.5 88.5q17 7 18 -3.5t-14 -18.5q-163 -82 -311 -209q26 -41 29 -51q11 -38 -34 -91.5
t-110 -91t-108 -36.5l-11 4q0 97 205 268q-19 45 -8 82q9 27 38.5 52.5t61 42t61 41t38.5 50.5q-30 6 -94 -10t-80 -18zM-244 260q16 20 20 41t0 34.5t-14 35.5l-73 -70q-37 -37 -74.5 -85t-36.5 -73q73 -2 178 117zM16 887q10 6 16.5 4.5t6 -9t-9.5 -14.5q-3 -2 -12 -8.5
t-12 -9t-10.5 -8t-11 -8.5t-9.5 -8.5t-9 -9.5t-7.5 -9.5t-8 -11t-6.5 -11.5q-6 -7 -11.5 -9t-9 0.5t-4.5 8.5q-28 18 -12 99q10 16 23 13q7 -2 5 -11q-11 -55 0 -72q17 25 82 74z" />
    <glyph glyph-name="circumflex" unicode="&#x2c6;" horiz-adv-x="157" 
d="M74 764q-7 -10 -17 -8.5t-8 12.5q12 19 39.5 44.5t28.5 27.5q12 17 21 10q5 -3 3 -12q6 -6 2 -13q-4 -8 -4 -18l2 -29q1 0 2 -1t2 -1q7 -10 -1.5 -18.5t-20.5 -5.5q-20 8 -12 49q-27 -23 -37 -37z" />
    <glyph glyph-name="caron" unicode="&#x2c7;" horiz-adv-x="194" 
d="M205 858q10 6 16 4.5t5.5 -8.5t-9.5 -14q-3 -2 -12 -8.5t-12 -9t-10.5 -8t-11 -8.5t-9.5 -8.5t-9 -9.5t-7.5 -9.5t-8 -11t-6.5 -11.5q-6 -7 -11.5 -9t-9 0.5t-4.5 8.5q-28 18 -12 98q9 15 23 13q8 -1 6 -11q-11 -55 0 -72q17 25 82 74z" />
    <glyph glyph-name="ring" unicode="&#x2da;" horiz-adv-x="161" 
d="M128 868q2 2 8 2q8 4 15 4q47 0 45 -35q-1 -33 -38 -64q-25 -20 -48 -21q-34 -1 -35 33q-1 38 31 67q10 9 22 14zM138 848h-2q-1 0 -2 -1t-2 -1q-20 -10 -28 -44q-5 -24 6 -23q2 0 4 1q40 17 51 43q7 24 -27 25z" />
    <glyph glyph-name="tilde" unicode="&#x2dc;" horiz-adv-x="190" 
d="M83 791q-11 -13 -22 -7q-7 4 -1 15q10 10 11 12q8 8 16 8q12 -1 35.5 -20.5t38.5 -14.5q1 3 8 17q11 19 22 11q7 -4 3 -15q-14 -25 -30 -34.5t-29.5 -5.5t-24.5 11t-18.5 15t-8.5 8z" />
    <glyph glyph-name="quoteleft" unicode="&#x2018;" horiz-adv-x="120" 
d="M152 952q10 10 17.5 7t2.5 -15q-4 -5 -14 -18.5t-17.5 -24t-15.5 -24.5t-8 -21.5t6 -15.5q6 -10 -2.5 -19t-22.5 -6q-7 7 -9.5 15.5t0 19.5t6.5 20.5t12.5 22t14.5 20.5t16 21t14 18z" />
    <glyph glyph-name="quoteright" unicode="&#x2019;" horiz-adv-x="122" 
d="M133 922q-6 9 4 18t21 6q26 -17 -4 -66.5t-66 -72.5q-17 -8 -19 3q-1 9 11 17q24 17 40 43t19 50q-1 0 -3 1t-3 1z" />
    <glyph glyph-name="quotesinglbase" unicode="&#x201a;" horiz-adv-x="129" 
d="M-14 492q11 18 21 11q6 -6 3 -16q-22 -60 -65 -86q-15 -7 -19 2.5t8 18.5q31 18 52 70z" />
    <glyph glyph-name="quotedblleft" unicode="&#x201c;" horiz-adv-x="155" 
d="M137 918q10 10 18 6.5t3 -15.5q-5 -7 -20.5 -26t-24 -30.5t-17.5 -28t-10 -29.5q1 0 2 -1t2 -1q7 -10 -1.5 -19t-20.5 -6q-8 5 -10.5 13.5t2 20.5t10.5 24t16.5 26.5t18.5 25t18.5 23t13.5 17.5zM166 856q12 9 18 2.5t-4 -18.5q-13 -11 -20 -31v-6q0 -7 -6 -13
t-12.5 -6.5t-10.5 4.5q3 43 35 68z" />
    <glyph glyph-name="quotedblright" unicode="&#x201d;" horiz-adv-x="153" 
d="M111 899q3 14 12.5 19t17.5 -5q8 -27 -13.5 -60t-55.5 -58q-12 -6 -17 1.5t4 16.5q67 51 52 86zM172 889q13 18 24 11q6 -5 3 -15q-18 -50 -34 -66q-10 -11 -24 -18q-15 -7 -18.5 2t8.5 18q11 6 18.5 15t10.5 15.5t7 20.5t5 17z" />
    <glyph glyph-name="quotedblbase" unicode="&#x201e;" horiz-adv-x="206" 
d="M-25 496q2 14 12.5 19t16.5 -5q13 -30 -24 -74t-86 -82q-12 -9 -19.5 -2t4.5 19q26 19 65.5 61t30.5 64zM51 496q2 14 16 17q11 2 11 -9v-2q-2 -17 -12.5 -34.5t-27.5 -35.5t-18 -20q-12 -14 -22 -7q-6 5 0 15q6 8 20 23.5t22 27.5t11 25z" />
    <glyph glyph-name="Euro" unicode="&#x20ac;" horiz-adv-x="385" 
d="M-154 596q-9 3 -7 13t14 14q70 4 190 36q96 173 209 238q13 7 88 29q12 0 12 -9t-12 -16q-6 -2 -24.5 -6.5t-31 -9t-24.5 -11.5q-94 -52 -186 -206q176 53 266 59q13 0 12 -11t-18 -16q-89 -6 -277 -61q-33 -64 -43 -88q145 54 246 61q14 0 13.5 -11t-17.5 -15
q-109 -8 -252 -64q-21 -57 -14 -102q1 -9 12.5 -21t13.5 -14l72 12q13 0 12 -9q-2 -12 -18 -17q-38 -6 -78 -15q-22 -4 -33.5 9t-11.5 38t5.5 52.5t15.5 58.5q-102 -42 -117 -47q-13 -3 -12 8q1 12 14 17l125 49q11 39 24 61q2 7 15 29q-112 -30 -183 -35z" />
    <glyph glyph-name="a.calt" unicode="&#xe034;" horiz-adv-x="528" 
d="M123 647l2 -10q2 0 2 -8q-1 -12 -12 -44t-15.5 -50.5t2.5 -38.5q18 -22 62.5 -18t107 31t122 62t108 74t63.5 66q-7 19 -14 32q2 14 12.5 19.5t16.5 -4.5q1 -3 7 -11t8.5 -15t0.5 -15q-15 -60 -125 -132.5t-230.5 -107t-160.5 1.5q-10 6 -8.5 26t6 35.5t11.5 37t9 30.5
q-5 -3 -36.5 -25t-50.5 -34t-46 -24.5t-43 -12.5q-8 27 14.5 60t57.5 54.5t72 31t57 -10.5zM-55 547q-3 -14 9 -11q12 4 83 58q32 25 49 35q-30 16 -82.5 -20.5t-58.5 -61.5z" />
    <glyph glyph-name="b.calt" unicode="&#xe035;" horiz-adv-x="610" 
d="M-20 502l-11 -8q-5 -20 -11 -55t-7 -40q-4 -13 -18 -15q-9 -1 -9 7v2q53 351 363 828q12 10 19.5 6.5t2.5 -15.5q-224 -344 -315 -637q4 8 8 13.5t7 9.5t10.5 11.5t13 12.5t20.5 19t27 25q42 39 119 63q97 30 115 -12q7 -16 1 -41q-9 -27 -18 -51q91 56 160 80
q160 49 159 -3q0 -5 -2 -12q-5 -17 -19 -14q-8 2 -7 12q-136 12 -305 -90q-36 -62 -144 -178l-7 -8l-14.5 -14.5t-19.5 -19t-23 -21t-23.5 -20t-23 -17.5t-20.5 -11.5t-16.5 -3.5t-9.5 8q-20 48 59 125.5t203 155.5q33 47 41 76q1 6 -1 12.5t-5.5 13.5t-4.5 11
q-154 28 -294 -205zM8 336q23 0 87 69t122 150q-124 -88 -213 -209z" />
    <glyph glyph-name="c.calt" unicode="&#xe036;" horiz-adv-x="505" 
d="M86 686q13 0 13 -11t-17 -16q-25 -2 -52 -21.5t-43 -44.5t-19 -50.5t20 -40.5q44 -26 146 4.5t198 83.5t151 100l9 31q10 16 22 13q6 -2 4 -11q-5 -32 -10 -39q-29 -51 -148.5 -110.5t-240.5 -89.5t-156 -5q-29 20 -25.5 53t24 65.5t55.5 58.5t69 30z" />
    <glyph glyph-name="d.calt" unicode="&#xe037;" horiz-adv-x="647" 
d="M100 684q7 0 9 -2q49 148 124 260q1 1 23.5 35.5t44.5 67t56 76.5t63.5 75.5t61 53t53.5 18.5q31 -3 -11 -99.5t-61 -121.5q-57 -103 -140.5 -199.5t-205.5 -216.5q-23 -89 -15 -144q21 -143 200 -73q125 49 264 166q20 17 36 32q13 9 19 2.5t-5 -18.5q-38 -36 -84 -72
t-104.5 -73.5t-112 -58t-106 -26t-86.5 22.5q-71 48 -39 211l-27 -27q-100 -106 -151 -102q-10 5 -10 8q9 65 72.5 127.5t131.5 77.5zM449 1194q-91 -88 -183 -236t-135 -282q221 221 311 381q63 105 76 176v8q-58 -37 -69 -47zM43 590l51 51l6 18q-57 -13 -107 -60
t-67 -101q32 7 117 92z" />
    <glyph glyph-name="e.calt" unicode="&#xe038;" horiz-adv-x="507" 
d="M145 702q-28 -35 -73 -63t-88 -35q-20 -34 -21.5 -61.5t26.5 -43t87 -7.5q11 2 23.5 5t27 7t23.5 6q63 21 157 72q106 58 185 131q12 9 18 2t-4 -19q-95 -85 -197 -139q-98 -51 -159 -72q-63 -19 -80 -20q-23 -1 -43.5 1t-43.5 7.5t-34.5 17t-17 30.5t9.5 46q2 4 8 16.5
t9 18.5t9 17.5t11 18.5t12.5 15.5t15.5 14.5q18 15 37 28.5t42 25.5t41 10.5t24 -19.5zM119 705q-56 0 -115 -70q72 18 115 70z" />
    <glyph glyph-name="f.calt" unicode="&#xe039;" horiz-adv-x="538" 
d="M143 926q2 14 12.5 19t18.5 -5q4 -11 -3.5 -34.5t-17.5 -43t-26 -48t-18 -32.5q-17 -31 -48.5 -85.5t-40.5 -69.5q38 -1 240.5 38.5t267.5 26.5q13 -2 5 -15q-6 -9 -17 -11q-38 5 -72.5 5t-87 -8.5t-91 -16.5t-85.5 -18t-71 -14q-84 -14 -103 -14q0 -64 -46.5 -197
t-74.5 -178q-21 -31 -52.5 -57t-53.5 -10q-6 6 -6.5 18.5t4 30t11 36t16 39.5t16.5 35.5t15 30t9 17.5q29 59 136 237q-19 8 -19 19q3 20 21 20q10 0 14 -8q39 64 86 153q11 16 38.5 74t22.5 66zM-35 518q0 1 1 5l3 12t4 14q-55 -95 -102 -189q-83 -165 -68 -178
q91 39 159 323q2 9 3 13z" />
    <glyph glyph-name="g.calt" unicode="&#xe03a;" horiz-adv-x="872" 
d="M143 690q7 -10 -1.5 -18.5t-20.5 -5.5q-35 10 -104 -44.5t-93 -101.5q43 12 158 86t159 84q63 13 72 -59v-2q5 -31 -16 -88l119 51q21 8 74.5 30.5t83 34t78 26t81 17t69.5 -3.5t64 -26q6 -10 -3 -19t-21 -6q-24 19 -60 24t-82.5 -4.5t-80.5 -20t-82 -28.5
q-189 -74 -254 -106q-50 -98 -153.5 -216t-190.5 -196q-3 -2 -17.5 -14.5t-29 -24.5t-34 -27.5t-37 -25.5t-33.5 -17t-27 -5t-15 14q-9 36 27 119q118 225 477 401q35 80 29 141q-40 10 -92 -13.5t-94.5 -57.5t-97.5 -65t-97 -34q-9 2 -9 15q10 38 56.5 87t104 79.5
t93.5 19.5zM-215 12q105 51 243.5 195t207.5 280q-163 -82 -275 -180q-64 -55 -141.5 -165t-34.5 -130z" />
    <glyph glyph-name="h.calt" unicode="&#xe03b;" horiz-adv-x="624" 
d="M-8 596q-5 -7 -10.5 -9t-9.5 0.5t-5 8.5q7 10 10 20q40 71 111 152l-18 -33q-5 -9 -21.5 -36.5t-27.5 -48.5t-23.5 -47t-17 -48t-0.5 -37q43 0 130 57.5t119 67.5q28 9 41 -4t14 -35t7.5 -43t21.5 -24q41 -9 125.5 32.5t151.5 89.5q12 9 18 2.5t-4 -18.5
q-71 -53 -174.5 -103.5t-138.5 -27.5q-18 12 -24.5 54t-22.5 50q-11 5 -44 -10.5t-71 -38.5t-78 -45t-65 -30.5t-33 6.5q-10 28 14 98v4l10 16q16 38 39.5 82.5t55 95t52.5 83t55 82.5t38 57l51 71l45 60q35 39 56 51q40 20 20 -32q-26 -69 -115 -199q-26 -36 -100 -129
q-16 -21 -60.5 -73t-73 -90.5t-48.5 -78.5zM362 1165q-107 -95 -274 -397l66 78q54 68 85.5 115.5t65.5 107t57 96.5z" />
    <glyph glyph-name="i.calt" unicode="&#xe03c;" horiz-adv-x="559" 
d="M15 670q12 9 18.5 2t-3.5 -19q-33 -30 -51.5 -73.5t-10 -80t48.5 -44.5q58 -11 165.5 27.5t208.5 101t147 118.5l-17 13q-6 9 4 18t19 6l26 -18q5 -5 0 -14q-96 -118 -260 -194.5t-307 -86.5q-64 -3 -66 65q-2 64 43 136q17 28 35 43zM99 842q8 7 14.5 8t8.5 -3.5
t0 -12.5q-14 -20 -23 -46q-7 -17 -20 -14q-9 2 -8 12q10 29 28 56z" />
    <glyph glyph-name="j.calt" unicode="&#xe03d;" horiz-adv-x="575" 
d="M-18 676q2 14 12 19t16 -5q-15 -146 -90 -287q184 127 381 226q59 31 142 45q112 18 108 -40q-1 -9 -4 -20q-7 -18 -21 -14q-9 2 -8 12q18 56 -62 42q-105 -19 -315 -132l-4 -2q-113 -63 -231 -145q-76 -143 -221 -305q-20 -31 -119 -122t-109 -48q-8 46 42 121t100 120
q130 119 276 230q35 55 53 96q40 84 54 209zM-512 -84q68 30 175.5 158t193.5 264q-244 -181 -340 -334q-9 -17 -18.5 -50.5t-10.5 -37.5zM55 844q13 18 24 11q6 -5 3 -15q-3 -7 -15.5 -27t-15.5 -31q-7 -17 -20 -14q-9 2 -8 12q7 21 17 36t15 28z" />
    <glyph glyph-name="k.calt" unicode="&#xe03e;" horiz-adv-x="638" 
d="M295 1257q13 18 23 11q5 -5 1 -15q-44 -102 -159.5 -306.5t-159.5 -305.5q158 113 330 125q13 0 12 -11t-18 -16q-182 -13 -336 -137h6q20 -83 133.5 -85t252 63t230.5 161q3 14 13 19.5t18 -4.5q2 -21 -8 -39t-19 -26t-30 -21l-21 -13q-54 -41 -142 -81.5t-181 -67
t-170 -14.5t-99 73q-40 -109 -45 -192q0 -7 -6 -13t-12 -6.5t-10 4.5q13 119 57 228q-5 9 6 20l4 4q46 112 165.5 326.5t164.5 318.5z" />
    <glyph glyph-name="l.calt" unicode="&#xe03f;" horiz-adv-x="563" 
d="M211 817q-27 -29 -104 -96t-109 -103q-19 -51 -19.5 -87.5t18.5 -59t71 -19t133 36.5q55 20 123 62q79 44 157 114q111 99 43 113q-20 4 -55 0q-8 4 -5 15t15 12q96 -3 91 -54q-6 -59 -135 -156q-137 -103 -276 -152q-135 -48 -173 -1q-3 4 -19 19.5t-16 27.5
q7 111 65 222.5t164 259.5q10 14 70 84q117 133 139 95q17 -29 -25 -121q-25 -55 -57 -97q-47 -63 -96 -115zM203 963q-122 -162 -185 -297q35 38 145 147t140 152q6 9 13 20t17.5 29t18 34.5t13.5 32.5t5.5 27t-8.5 14q-10 -3 -21.5 -10t-22 -15t-23.5 -21t-21.5 -23
t-21.5 -26t-18.5 -23.5t-17 -23t-13.5 -17.5z" />
    <glyph glyph-name="m.calt" unicode="&#xe040;" horiz-adv-x="802" 
d="M-7 651q13 19 24 11q5 -5 2 -15q-8 -21 -29.5 -58t-27.5 -50q41 14 98 59t110 81t99 36q11 0 13 -6q-1 -12 0.5 -17t-4.5 -18t-8.5 -18.5t-12 -19.5t-13.5 -20t-14 -19.5t-14 -18.5q17 8 45.5 28.5t52 33t43.5 9.5q25 -3 31.5 -22t2.5 -40.5t7 -39.5q15 -25 66.5 -20.5
t109.5 22.5t112 49t73 59q0 14 -6 29q3 14 13.5 19t16.5 -5q10 -47 -29.5 -86.5t-103 -62t-122 -34.5t-97.5 -13q-35 -1 -50 17t-14 41t-2.5 42t-17.5 19q-26 0 -80 -38t-82 -42q-8 4 -10 14q6 10 28.5 39t38 53.5t13.5 38.5q-31 0 -74 -25.5t-79.5 -57t-82 -61t-79.5 -36.5
q-11 5 -12 9q0 2 1 5q9 26 30.5 60t33.5 69z" />
    <glyph glyph-name="n.calt" unicode="&#xe041;" horiz-adv-x="520" 
d="M0 659q5 9 12 11.5t11 -2t2 -13.5q-8 -19 -35.5 -64t-36.5 -69q35 17 114 86t126 80q10 0 14 -6q11 -14 0.5 -43.5t-21.5 -52.5t2 -47q27 -31 140 8t139 82l-8 16q0 14 9.5 19t18.5 -5l11 -22l-2 -8q-21 -34 -66 -64.5t-94 -46t-96 -18.5t-72 18q-12 9 -13 29t4.5 39.5
t13 43.5t9.5 32q-42 -19 -117 -84t-122 -84q-11 0 -11 4q-11 16 2 46t37 66.5t29 48.5z" />
    <glyph glyph-name="o.calt" unicode="&#xe042;" horiz-adv-x="528" 
d="M-20 633q5 7 14 12q7 7 16 10v2q38 -13 92.5 -9t96 14.5t97.5 21t97 10.5q74 0 95 -7q36 -11 14 -42q-8 -12 -20 -8q-9 4 -1 16q-4 0 -6 2q-28 11 -41.5 13t-50.5 0q-46 -3 -159 -26.5t-169 -20.5q10 -36 -25.5 -93.5t-78.5 -87.5q-4 -2 -19 -2q-14 5 -15 23.5t7.5 44
t19 49t22.5 47.5t14 31zM-53 465q36 24 66.5 83.5t6.5 76.5l-16 4q-5 -14 -22 -50t-26.5 -64t-8.5 -50z" />
    <glyph glyph-name="p.calt" unicode="&#xe043;" horiz-adv-x="499" 
d="M-35 508q-8 -8 -18 -8q-45 -89 -68 -139.5t-47 -127t-27 -139.5q0 -11 -11 -17t-17 3q5 93 43.5 194.5t105.5 233.5t94 197q10 17 21 11q8 -4 4 -16q-29 -69 -61 -129l18 15q6 5 20.5 17.5t25 20t20.5 11.5q122 50 125 -3q1 -17 -11 -42q79 37 150.5 56.5t113.5 15.5
q8 -1 15 -5.5t13.5 -11.5t10.5 -10q7 -10 -1.5 -19t-20.5 -6q-3 2 -8.5 8.5t-11 10t-11.5 4.5q-32 7 -107.5 -17t-164.5 -67q-51 -79 -133 -145t-115 -44q-2 2 -2 13q22 52 90.5 107t157.5 98q23 44 -8 51q-39 9 -109 -46q-39 -31 -76 -75zM31 436q10 10 29.5 28.5t35 33.5
t27.5 30l4 4q-160 -85 -184 -149q60 27 88 53z" />
    <glyph glyph-name="q.calt" unicode="&#xe044;" horiz-adv-x="673" 
d="M96 662q13 0 12 -11t-18 -16q-40 0 -83 -24.5t-64 -65.5l2 -2q26 4 53.5 18.5t66 41t52.5 34.5l2 6v-2q2 0 6 2q10 4 13.5 0t0.5 -14l-22 -49q54 23 126 41t139 27.5t126 14t96 3t41 -6.5q-2 -11 -15.5 -21t-19.5 -1q-321 -9 -504 -78l-30 -55q-1 -47 -17 -103.5
t-47 -123t-52 -107t-58 -107.5q-1 -2 -14.5 -25.5t-20.5 -35.5t-22.5 -33.5t-27.5 -33t-28 -20.5t-31 -9q-8 4 -8 14q9 46 32 96.5t68.5 130.5t53.5 95q23 42 69.5 125t69.5 125q-4 24 -4 34q0 12 10 19q13 9 29 16l18 39l-53 -37q-103 -69 -122 -42q-13 19 23 62
q51 61 122 76zM-223 -68q64 47 142 208.5t116 285.5q-18 -33 -54 -96t-64 -113.5t-52 -95.5q-5 -9 -18.5 -34.5t-21.5 -40.5t-19 -37.5t-18 -41.5t-11 -35z" />
    <glyph glyph-name="r.calt" unicode="&#xe045;" horiz-adv-x="235" 
d="M18 721q11 19 22 11q7 -4 3 -15q-55 -144 -80 -195q6 9 19 19q65 60 129 90q76 35 72 -25q0 -9 -3 -20q-7 -17 -20 -14q-9 2 -8 12q7 18 4.5 27.5t-23.5 4.5q-46 -13 -81.5 -44t-70.5 -72.5t-63 -61.5q-16 -7 -16 13q56 110 116 270z" />
    <glyph glyph-name="s.calt" unicode="&#xe046;" horiz-adv-x="632" 
d="M107 731q14 0 13.5 -11t-17.5 -15q-27 -5 -61.5 -27t-48.5 -47q12 -12 83 -5.5t95 -7.5q97 43 190.5 70t168.5 30.5t106 -26.5q6 -10 -3.5 -18.5t-21.5 -5.5q-25 29 -93 26.5t-156 -27.5t-177 -65l2 -12q8 -94 -96 -161q-76 -49 -151 -52q-57 -3 -54 28q1 12 13 29
q54 77 223 160q-19 4 -57.5 6t-60.5 5t-37 11.5t3 29.5t70 56q45 25 67 29zM157 573l-9 13q-210 -101 -239 -180q26 -13 91.5 15t117 74t39.5 78z" />
    <glyph glyph-name="t.calt" unicode="&#xe047;" horiz-adv-x="407" 
d="M-45 766q-14 -3 -14 8q1 11 12 17q12 3 58.5 17.5t74.5 22.5l10 15q0 1 37 65.5t66 108t45 47.5q8 0 10.5 -2.5t1.5 -9.5q-10 -59 -102 -209q122 18 139 -25q2 -11 -9.5 -17t-17.5 3q-15 29 -133 6q-93 -145 -156 -188q-14 -7 -18 2t6 18q12 6 37 27q13 28 66 127
q-27 -7 -66 -19t-47 -14zM-84 377q3 128 86 295q28 28 57 67q-140 -258 -114 -348q19 -40 59.5 -39t99.5 36.5t104 70.5t73 63q60 60 90 125q11 18 21 11q7 -4 3 -15q-47 -88 -130 -168.5t-175 -122.5q-22 -10 -48.5 -16.5t-55.5 -8.5t-49 10.5t-21 39.5zM96 805l-37 -66
q33 47 43 68q-4 0 -6 -2zM160 915l-45 -77q4 2 8 2z" />
    <glyph glyph-name="u.calt" unicode="&#xe048;" horiz-adv-x="575" 
d="M-8 643q11 18 21 11q7 -4 3 -15q-40 -66 -47 -107q-8 -62 101 37q33 30 102 103q19 16 25 0q3 -22 -32 -91t-18 -94q24 -34 125 5.5t194 115t95 131.5q2 14 12.5 19.5t16.5 -4.5q0 -4 1.5 -15t0.5 -19t-6 -15q-28 -46 -89.5 -99.5t-131.5 -93.5t-137 -57t-107 10
q-11 8 -12.5 21.5t4.5 32t13.5 35t18 38.5t15.5 35q-57 -65 -101 -99q-100 -77 -111 -23q-9 42 34 121z" />
    <glyph glyph-name="v.calt" unicode="&#xe049;" horiz-adv-x="460" 
d="M-12 664q13 19 24 10q5 -5 2 -15q-17 -47 -33.5 -109t-13.5 -79q9 0 40 42.5t66.5 94.5t47.5 64v2l4 2q14 14 21 7q3 -3 1 -9q-1 -9 -7.5 -34t-4.5 -38q4 -17 25 -21t57 5.5t66.5 19t72.5 28t54.5 24.5t33.5 16q18 8 19 -5q0 -11 -14 -18q-318 -156 -343 -63l-2 20
q-23 -35 -37 -55.5t-37 -50.5t-42 -45t-33 -15q-13 0 -17 11.5t-1 29.5t8.5 36t11 35.5t6.5 23.5q5 14 12.5 42.5t12.5 43.5z" />
    <glyph glyph-name="w.calt" unicode="&#xe04a;" horiz-adv-x="524" 
d="M-4 711q10 15 22 13q7 -2 5 -11q-4 -22 -13.5 -60t-15.5 -64t-10.5 -62.5t2.5 -55.5h6q35 29 78 105t77 104q14 10 23 -2q0 -12 -10.5 -54t-17.5 -76t-1 -36q17 -2 39.5 26.5t50 79t35.5 62.5q17 15 27 2q4 -10 -2 -28t4 -25q32 -26 107.5 13t119.5 95q10 10 18 7t3 -15
q-28 -38 -80 -77t-106.5 -57.5t-86.5 11.5q-8 16 -6 25l-37 -64q-35 -57 -76 -77q-39 -19 -42 24q-1 15 4 37q3 13 11 41t11 41q-10 -14 -45 -74.5t-63 -89t-60 -25.5q-8 1 -11.5 8.5t-3.5 20t1 23t3.5 23.5t2.5 16q16 48 16 81q13 53 21 95z" />
    <glyph glyph-name="x.calt" unicode="&#xe04b;" horiz-adv-x="610" 
d="M-69 424q-12 -14 -22 -7q-6 5 0 15q47 64 110 121q-1 25 -1 36.5t2.5 37.5t3.5 35q2 14 12 19t18 -5q-8 -64 -6 -98q98 79 221 147q15 6 19 -2.5t-8 -17.5q-134 -75 -228 -152q3 -22 19 -35q33 -39 106.5 -31.5t154.5 40.5t155 83.5t110 98.5q12 10 19.5 6.5t2.5 -15.5
q-44 -58 -123.5 -112.5t-164.5 -87.5t-163.5 -39t-121.5 35q-15 12 -22 32q-63 -63 -93 -104z" />
    <glyph glyph-name="y.calt" unicode="&#xe04c;" horiz-adv-x="661" 
d="M10 668q12 10 20 6.5t3 -15.5q-26 -32 -48.5 -81t-25.5 -84q28 0 64.5 31t66 68.5t66 71t63.5 37.5q9 0 14 -8q-3 -92 -36 -162q5 3 17 9t19 10q96 48 220 93t157 20q6 -4 10.5 -10t9.5 -17t7 -14q0 -7 -6 -13t-12.5 -6.5t-10.5 4.5q-15 25 -18 29q-181 -9 -408 -133
q-8 -14 -55 -92q-22 -33 -44 -62.5t-35.5 -46.5t-43 -52.5t-45.5 -55.5q-37 -46 -86 -89q-59 -56 -100 -66q-37 -8 -35 36q1 4 2 15t2.5 21t3.5 15q30 59 48 89t52.5 69t83.5 73q27 19 67.5 48.5t57 41.5t43.5 29t56 33q40 69 49 106q4 9 4.5 18t-1 21t-1.5 17
q-2 -2 -22 -21q-320 -306 -244 -122q5 13 12 28t16 34.5t13.5 28.5t12 22t17.5 26zM-229 66q68 16 176 144t188 267q-109 -67 -194 -137q-9 -8 -26 -26.5t-43 -47t-48.5 -58t-41 -59.5t-21.5 -50.5t10 -32.5z" />
    <glyph glyph-name="z.calt" unicode="&#xe04d;" horiz-adv-x="552" 
d="M-4 680q3 14 13 19t18 -5q5 -7 39.5 2.5t78 20.5t64.5 6q11 -2 6 -16q-17 -22 -95 -77.5t-83 -70.5q15 -5 64 5t59 -5q7 -7 10 -16q47 27 145 73q89 41 160 51q69 9 62 -32q-2 -9 -7 -21q-9 -10 -17.5 -8.5t-8.5 12.5q17 35 -58 17q-87 -21 -199 -74q-4 -2 -7 -4
q-32 -15 -68 -37q-6 -49 -63 -106q-233 -233 -433 -342q-18 -10 -18 10q3 16 26.5 45.5t47 54.5t53 54.5l33.5 33.5q135 144 323 256v2q1 9 -27 9.5t-58 -2t-48 1.5v12q7 24 33.5 47.5t66.5 50.5t58 43q-145 -47 -170 -10zM-293 115q2 1 34.5 23.5t45 31.5t48 34.5t54 40.5
t52 41.5t53.5 44.5t46.5 43t43 44.5t30.5 40.5t21 39q-206 -126 -428 -383z" />
    <glyph glyph-name="c_c" unicode="&#xe055;" horiz-adv-x="518" 
d="M123 711q13 0 12 -11t-18 -16q-59 -10 -117 -72q-52 -57 -43 -91q4 -14 20 -19q17 -6 74 28t146.5 97t101.5 71q69 62 139 56q13 -2 6 -15q-5 -9 -16 -12q-72 4 -127 -67t-55 -142q12 -17 33 -18t49 12.5t54 29.5t60 38.5t54 33.5q9 3 13.5 1t3.5 -8.5t-9 -12.5
q-23 -13 -76 -49t-91 -52t-81 -16q-48 0 -49 50.5t37 107.5q-8 -6 -30.5 -23.5t-33 -25.5t-32 -23.5t-34 -23.5t-31.5 -20.5t-32.5 -18.5t-30 -13t-30.5 -10.5t-27 -3.5q-38 -1 -34 44q5 56 61 116q58 63 133 78z" />
    <glyph glyph-name="e_e" unicode="&#xe05c;" horiz-adv-x="655" 
d="M481 766q19 -18 15 -41.5t-25.5 -48t-49 -44.5t-56.5 -32.5t-46 -11.5q-82 -146 0 -149q66 -3 192 77q78 51 122 98q14 10 15 1q0 -7 -9 -17q-23 -20 -50 -41t-65.5 -48.5t-73.5 -47t-73 -37t-64.5 -18.5t-48.5 10q-25 21 -21.5 61t31.5 92q-97 -79 -195 -131.5
t-142 -21.5q-32 22 -18.5 75t47 109.5t82.5 104.5t89 59q13 3 17 2q19 -18 15 -41.5t-25.5 -48t-49 -44.5t-56.5 -32.5t-46 -11.5q-82 -147 0 -150q66 -2 190 77q69 45 113 89q36 59 83 103.5t87 56.5q13 3 16 2zM463 737q-82 -39 -129 -123h2q45 19 102.5 61t24.5 62z
M135 737q-82 -39 -129 -123h2q45 19 102.5 61t24.5 62z" />
    </font>
</defs>
</svg>
